<?xml version="1.0" standalone="no"?>
<!DOCTYPE svg PUBLIC "-//W3C//DTD SVG 1.1//EN" "http://www.w3.org/Graphics/SVG/1.1/DTD/svg11.dtd" >
<svg xmlns="http://www.w3.org/2000/svg">
<metadata></metadata>
<defs>
<font id="caviar_dreamsbold_italic" horiz-adv-x="564" >
<font-face units-per-em="2048" ascent="1638" descent="-410" />
<missing-glyph horiz-adv-x="729" />
<glyph horiz-adv-x="2048" />
<glyph horiz-adv-x="2048" />
<glyph unicode="&#xd;" horiz-adv-x="729" />
<glyph unicode=" "  horiz-adv-x="729" />
<glyph unicode="&#x09;" horiz-adv-x="729" />
<glyph unicode="&#xa0;" horiz-adv-x="729" />
<glyph unicode="!" horiz-adv-x="557" d="M427 242q37 -43 25 -105q-11 -64 -62.5 -107t-113.5 -43q-61 0 -97.5 43t-25.5 107q12 62 63.5 105t112.5 43t98 -43zM675 1648l-208 -1179h-214l208 1179h214z" />
<glyph unicode="&#x22;" horiz-adv-x="591" d="M193 948l122 697h213l-122 -697h-213zM519 948l123 697h213l-123 -697h-213z" />
<glyph unicode="#" horiz-adv-x="1756" d="M1088 1064h86l179 422h218l-179 -422h423l-93 -213h-422l-39 -91h423l-92 -213h-422l-179 -423h-217l179 423h-87l-179 -423h-218l180 423h-423l91 213h423l39 91h-424l93 213h422l180 422h217zM1083 851h-87l-39 -91h86z" />
<glyph unicode="$" horiz-adv-x="986" d="M609 121l-21 -121h-189l20 121q-118 22 -198 106q-85 90 -84 262l231 70q-9 -150 37 -197q22 -24 50 -39l75 427q-111 44 -192 130q-108 112 -79 271q27 158 176 272q108 83 232 106l22 119h190l-22 -119q118 -23 198 -107q86 -90 84 -262l-231 -70q10 150 -36 198 q-22 23 -50 38l-75 -427q110 -44 191 -130q108 -112 81 -270q-28 -159 -176 -272q-109 -84 -234 -106zM571 974l61 352q-33 -14 -62 -36q-74 -57 -88 -139q-14 -81 37 -136q21 -21 52 -41zM707 675l-62 -352q33 14 63 37q73 56 87 139q15 80 -38 135q-20 21 -50 41z" />
<glyph unicode="%" horiz-adv-x="1300" d="M1445 1329l-1183 -1351l-154 122l1183 1349zM777.5 1199.5q68.5 -82.5 47.5 -200.5q-21 -117 -118.5 -200t-215.5 -83q-117 0 -185 83t-47 200q20 118 117.5 200.5t214.5 82.5q118 0 186.5 -82.5zM554 1071q-30 0 -54.5 -21t-29.5 -51q-5 -31 12 -52t46 -21q30 0 56 21 t31 52q5 30 -13 51t-48 21zM1247.5 630q68.5 -83 47.5 -200q-21 -119 -118.5 -202t-215.5 -83q-117 0 -185.5 83t-48.5 202q22 117 119 200t215 83t186.5 -83zM1024 502q-30 0 -54.5 -21.5t-31.5 -50.5q-5 -31 12.5 -52.5t47.5 -21.5t55 21.5t31 52.5q6 29 -12 50.5 t-48 21.5z" />
<glyph unicode="&#x26;" horiz-adv-x="1380" d="M1390 640q4 -37 -3 -72q-11 -69 -58 -131q-73 -98 -205 -135q-36 -75 -146 -168q-177 -152 -390 -152q-212 0 -336 151t-87 364q38 212 213 369q103 87 179 96q-131 161 -103 320q28 158 161 271.5t292 113.5q160 0 253 -113q53 -62 73 -196l-207 -77q-19 95 -42 124 q-43 49 -115 49q-71 0 -130 -50t-72 -122q-13 -73 30.5 -129.5t85 -74t179.5 -18.5l-36 -205l-126 -1q-189 -36 -295 -133.5t-129 -223.5q-22 -125 51.5 -213.5t198.5 -88.5t294 146q-25 24 -85 100q-22 25 -36 35q-13 9 -22 9h-1q-11 -1 -17 -11q-2 -4 -3 -8q-1 -8 1 -16 l-196 -118q-15 32 -20 72q-2 32 3 63q10 58 51 113q63 83 159 108q34 9 66 9q59 0 106 -31q41 -25 87 -95.5t95 -77.5q7 -1 14 -1q39 0 61 36q6 10 8 20q6 33 -35 72l138 182q85 -55 96 -162z" />
<glyph unicode="'" horiz-adv-x="471" d="M296 948l122 697h213l-122 -697h-213z" />
<glyph unicode="(" horiz-adv-x="811" d="M986 1570q-164 -70 -278 -188q-194 -200 -258 -558q-63 -359 61 -558q72 -119 211 -192l-37 -211q-246 91 -351 262q-163 259 -86 699q79 440 332 699q166 171 444 262z" />
<glyph unicode=")" horiz-adv-x="811" d="M418 1785q246 -91 351 -262q163 -259 86 -699q-78 -440 -332 -699q-166 -171 -444 -262l37 211q165 73 280 192q193 199 257 558q63 358 -61 558q-73 118 -212 188z" />
<glyph unicode="*" horiz-adv-x="959" d="M846 1471l168 113l91 -175l-216 -144l166 -143l-154 -175l-129 113l-29 -174h-214l31 175l-170 -114l-91 175l217 143l-167 144l154 175l129 -114l31 175h214z" />
<glyph unicode="+" horiz-adv-x="1145" d="M466 520h-337v213h337v337h214v-337h337v-213h-337v-338h-214v338z" />
<glyph unicode="," horiz-adv-x="553" d="M502 286l-326 -494h-203l220 494h309z" />
<glyph unicode="-" horiz-adv-x="946" d="M258 733h688l-38 -213h-688z" />
<glyph unicode="." horiz-adv-x="504" d="M401.5 242q36.5 -43 24.5 -105q-11 -64 -62.5 -107t-113.5 -43q-60 0 -97 43t-25 107q11 62 62.5 105t112.5 43q62 0 98.5 -43z" />
<glyph unicode="/" horiz-adv-x="880" d="M985 1648h238l-1038 -1648h-237z" />
<glyph unicode="0" horiz-adv-x="1327" d="M1218 1063q27 151 -62 258.5t-241 107.5t-278 -107.5t-153 -258.5l-90 -504q-26 -152 63 -259t240 -107q153 0 279 107t153 259zM1347 559q-42 -242 -244 -413.5t-445 -171.5q-242 0 -383 171.5t-99 413.5l90 504q42 242 244 413.5t444 171.5q243 0 384 -171.5t99 -413.5 z" />
<glyph unicode="1" horiz-adv-x="1469" d="M1210 1648l-290 -1648h-213l242 1370h-158l265 278h154z" />
<glyph unicode="2" horiz-adv-x="1347" d="M474.5 519.5q189.5 125.5 324 214t246 190.5t132.5 227q22 124 -50.5 211.5t-197.5 87.5q-123 0 -227 -87q-88 -75 -139 -260l-199 77q71 215 213 336q178 153 391 153q215 0 339.5 -151.5t86.5 -366.5q-37 -213 -212 -370q-110 -100 -249.5 -192.5t-309.5 -205.5 q-149 -98 -177 -169h783l-38 -214h-1033q127 394 316.5 519.5z" />
<glyph unicode="3" horiz-adv-x="1347" d="M766 849l-128 3l38 211q140 2 187.5 19t109.5 72.5t75 127.5q12 71 -29 120t-112 49q-70 0 -127 -48q-33 -29 -87 -126l-184 78q68 140 143 200q134 114 294 114q162 0 255.5 -114.5t65.5 -272.5q-28 -160 -245 -310q90 -6 174 -104q119 -158 82 -371 q-38 -214 -215.5 -366t-392.5 -152q-214 0 -338 153q-99 121 -94 337l227 77q-15 -186 47 -261q73 -87 196 -87q124 0 227.5 87.5t126.5 211.5q22 126 -49.5 222t-246.5 130z" />
<glyph unicode="4" horiz-adv-x="1390" d="M1170 1648h187l-176 -990h146l-37 -213h-146l-78 -445h-213l78 445h-675zM1059 1167l-395 -509h304z" />
<glyph unicode="5" horiz-adv-x="1353" d="M676 1203q59 12 122 12q116 0 216 -37q223 -81 300 -300q50 -136 24 -281q-15 -89 -59 -179q-115 -239 -355 -357q-147 -71 -291 -71q-90 0 -178 29q-181 58 -287 249l180 167q85 -169 208 -208q57 -19 114 -19q90 0 185 45q153 76 228 229q28 59 39 116q15 90 -16 178 q-51 142 -197 195q-62 24 -144 24q-110 0 -291 -55l-109 113l276 512l14 83h604l-37 -213h-424z" />
<glyph unicode="6" horiz-adv-x="1329" d="M399 559q-27 -152 62 -259t241 -107t278 107t153 259q28 153 -61 260t-241 107t-278.5 -107t-153.5 -260zM604 1017q109 98 321 98q213 0 330 -141q140 -172 96 -415q-42 -242 -243.5 -413.5t-444.5 -171.5q-242 0 -383 171q-136 166 -85 461l1 3q51 291 248 513 q198 222 521 526h280q-442 -387 -641 -631z" />
<glyph unicode="7" horiz-adv-x="1343" d="M1102 1025.5q-307 -286.5 -482 -485.5t-245 -540h-217q86 421 284 643t460.5 468t293.5 324h-783l37 213h1025q-66 -336 -373 -622.5z" />
<glyph unicode="8" horiz-adv-x="1332" d="M700 198q163 0 266.5 87.5t126.5 211.5q21 126 -50 220q-70 95 -228 129q-172 -34 -275 -129q-103 -94 -125 -220q-23 -124 49.5 -211.5t235.5 -87.5zM662 -21q-253 0 -377.5 152t-86.5 366q46 264 373 475q-113 150 -85 310q28 158 161 272.5t295 114.5h34 q163 0 256.5 -114.5t65.5 -272.5q-28 -160 -205 -307q264 -214 217 -478q-38 -214 -216 -366t-432 -152zM917 1450q-8 1 -13 1q-70 0 -128 -49t-70 -120q-13 -72 29.5 -127.5t81.5 -71.5q20 -9 38 -12q17 3 42 12q44 16 106.5 71.5t74.5 127.5q13 71 -28 120t-112 49 q-4 0 -11 -1h-10z" />
<glyph unicode="9" horiz-adv-x="1329" d="M1235 1089q27 152 -62 259t-242 107q-151 0 -277.5 -107t-152.5 -259q-27 -153 61.5 -260t239.5 -107q153 0 279.5 107t153.5 260zM1030 631q-109 -98 -321 -98q-214 0 -329 141q-141 172 -98 415q42 242 243.5 413.5t444.5 171.5q242 0 383 -171q136 -166 86 -461l-1 -3 q-52 -291 -248 -513q-198 -222 -522 -526h-280q443 387 642 631z" />
<glyph unicode=":" horiz-adv-x="557" d="M427 242q37 -43 25 -105q-11 -64 -62.5 -107t-113.5 -43q-61 0 -97.5 43t-25.5 107q12 62 63.5 105t112.5 43t98 -43zM530 828q36 -43 25 -105q-11 -64 -62 -107t-113 -43q-61 0 -98 43t-26 107q12 62 64 105t113 43t97 -43z" />
<glyph unicode=";" horiz-adv-x="654" d="M577 286l-326 -494h-203l220 494h309zM545.5 828q36.5 -43 25.5 -105q-12 -64 -63.5 -107t-111.5 -43q-62 0 -98.5 43t-25.5 107q11 62 62.5 105t113.5 43q61 0 97.5 -43z" />
<glyph unicode="&#x3c;" horiz-adv-x="1549" d="M1445 110l-1342 489l1342 489v-228l-718 -261l718 -261v-228z" />
<glyph unicode="=" horiz-adv-x="1145" d="M129 886h888v-214h-888v214zM129 581h888v-213h-888v213z" />
<glyph unicode="&#x3e;" horiz-adv-x="1549" d="M103 338l718 261l-718 261v228l1342 -489l-1342 -489v228z" />
<glyph unicode="?" horiz-adv-x="1058" d="M347 1222q13 76 63 150q96 144 255 197q70 22 134 22q85 0 159 -39q132 -69 159 -218q10 -65 -2 -129q-15 -85 -69 -167q-88 -134 -253 -246q-114 -87 -184 -196q-43 -63 -55 -126h-212q21 111 92 218q113 172 297 295q92 77 139 148q25 38 31 75q5 28 1 57 q-13 68 -71 99q-34 17 -71 17q-28 0 -60 -10q-72 -24 -114 -88q-13 -19 -24 -58l-227 -70zM558 137q-11 -64 -63 -107t-113 -43q-62 0 -98 43t-24 107q11 62 62 105t113 43q60 0 97.5 -43t25.5 -105z" />
<glyph unicode="@" horiz-adv-x="1692" d="M1136 530l20 112q-2 46 -36 87q-49 60 -132 60q-84 0 -153.5 -59.5t-83.5 -143.5q-16 -84 32.5 -143t132.5 -59t153 59q50 41 67 87zM885 218q-169 0 -271.5 100t-72.5 269q30 168 168.5 273t307.5 105q150 0 181 -76l9 53h205l-93 -512v-4q-10 -53 7 -53q14 0 48 37 q73 83 104 255q30 172 -77.5 302t-361.5 130q-252 0 -404 -130t-193 -362q-41 -233 82.5 -383t334.5 -150q145 0 261 65l119 -153q-219 -117 -416 -117q-296 0 -470 210.5t-121 507.5q51 296 300 506.5t544 210.5q298 0 470 -211t134 -429q-38 -217 -174 -352 q-112 -110 -225 -110q-24 0 -49 6q-138 30 -138 97q-69 -85 -209 -85z" />
<glyph unicode="A" horiz-adv-x="1417" d="M990 796l-73 386l-208 -386h281zM1057 1648l309 -1648h-227l-109 583h-437l-314 -583h-227l889 1648h116z" />
<glyph unicode="B" horiz-adv-x="1159" d="M779 1648q143 0 227 -101.5t59 -244.5q-26 -147 -180 -182q104 -16 216 -153t70 -379q-43 -242 -244 -418q-188 -166 -350 -168v-2h-423l291 1648h334zM536 955l-130 -741h209v3q67 4 182 106q128 112 156 265q27 152 -62.5 259.5t-240.5 107.5h-114zM621 1435l-46 -261 h139q48 4 87 36q44 34 54 92t-22 95.5t-91 37.5h-121z" />
<glyph unicode="C" horiz-adv-x="1691" d="M1499 392l134 -143q-339 -267 -666 -267q-349 0 -552 246.5t-141 595.5q61 348 351 595.5t639 247.5q326 0 571 -267l-185 -145q-185 195 -424 195q-259 0 -475 -183t-262 -443q-46 -261 105.5 -444t409.5 -183q239 0 495 195z" />
<glyph unicode="D" horiz-adv-x="1287" d="M620 1431l-214 -1215q254 0 446 164q215 183 261 444q46 260 -105 444q-134 163 -388 163zM602 1648q401 -2 586 -228q202 -248 141 -596q-62 -349 -352 -596q-264 -226 -666 -228h-157l291 1648h157z" />
<glyph unicode="E" horiz-adv-x="1171" d="M1333 1648l-37 -213h-675l-90 -504h675l-37 -213h-675l-88 -504h674l-38 -214h-888l291 1648h888z" />
<glyph unicode="F" horiz-adv-x="1076" d="M1238 1648l-37 -213h-580l-90 -504h580l-37 -213h-580l-126 -718h-214l291 1648h793z" />
<glyph unicode="G" horiz-adv-x="1718" d="M1591 226q-296 -244 -624 -244q-349 0 -552 246.5t-141 595.5q61 348 351 595.5t639 247.5q326 0 571 -267l-185 -145q-185 195 -424 195q-259 0 -475 -183t-262 -443q-46 -261 105.5 -444t409.5 -183q223 0 390 117l88 498h213z" />
<glyph unicode="H" horiz-adv-x="1244" d="M488 682l-120 -682h-214l291 1648h213l-133 -753h509l133 753h213l-290 -1648h-213l120 682h-509z" />
<glyph unicode="I" d="M679 1648l-291 -1648h-213l291 1648h213z" />
<glyph unicode="J" horiz-adv-x="965" d="M866 353q-30 -171 -140 -265q-117 -101 -259 -101t-223.5 100t-51.5 267l180 66q1 -156 39 -192q28 -28 83 -28h5q58 1 104 38q36 32 52 125l227 1285h213z" />
<glyph unicode="K" horiz-adv-x="1242" d="M505 778l-137 -778h-214l291 1648h213l-92 -519l482 519h269l-625 -678l459 -970h-259l-370 795z" />
<glyph unicode="L" horiz-adv-x="1049" d="M154 0l291 1648h213l-252 -1434h589l-38 -214h-803z" />
<glyph unicode="M" horiz-adv-x="1866" d="M690 1648l372 -924l695 924h195l-291 -1648h-213l210 1191l-671 -890l-359 890l-210 -1191h-213l290 1648h195z" />
<glyph unicode="N" horiz-adv-x="1397" d="M445 1648h195l472 -1176l207 1176h215l-291 -1648h-186l-479 1191l-210 -1191h-214z" />
<glyph unicode="O" horiz-adv-x="1945" d="M1820 1422.5q204 -247.5 142 -596.5t-353 -596.5t-640 -247.5t-552.5 247.5t-141.5 596.5t352.5 596.5t639.5 247.5t553 -247.5zM1229 1454q-261 0 -477 -183.5t-262 -444.5t106 -445t411 -184q261 0 477.5 184t262.5 445q45 261 -106.5 444.5t-411.5 183.5z" />
<glyph unicode="P" horiz-adv-x="1179" d="M460 527l-92 -527h-214l291 1648h468q194 -27 307 -164q134 -165 93 -395q-40 -233 -233 -397.5t-425 -164.5h-195zM620 1434l-121 -692h194q142 0 261.5 101.5t144.5 245.5q26 143 -58 244t-226 101h-195z" />
<glyph unicode="Q" horiz-adv-x="1945" d="M1229 1454q-261 0 -477 -183.5t-262 -444.5t106 -445t411 -184q261 0 477.5 184t262.5 445q45 261 -106.5 444.5t-411.5 183.5zM1335 57q22 -15 43 -33q66 -38 90 -47q11 -3 21 -3q18 0 37 11q29 15 43 45q5 9 21 76h216q-26 -101 -41 -134q-53 -114 -167 -172 q-73 -38 -145 -38q-40 0 -78 11q-63 18 -161 89q-80 46 -113 57q-18 5 -36 5q-31 0 -63 -17q-51 -26 -75 -80q-3 -5 -20 -68h-215q26 98 39 128q29 63 73 111q-234 46 -387 232q-204 247 -142 596t352.5 596.5t639.5 247.5t553 -247.5t142 -596.5t-352 -596 q-131 -112 -275 -173z" />
<glyph unicode="R" horiz-adv-x="1206" d="M620 1434l-121 -692h194q142 0 261.5 101.5t144.5 245.5q26 143 -58 244t-226 101h-195zM655 527h-195l-92 -527h-214l291 1648h468q194 -27 307 -164q134 -165 93 -395q-40 -233 -234 -398q-132 -113 -195 -128l267 -563h-259z" />
<glyph unicode="S" horiz-adv-x="1134" d="M723 846q-165 58 -254.5 167t-60.5 269q28 158 160.5 271.5t293.5 113.5q159 0 252 -113q53 -62 73 -196l-207 -77q-19 95 -43 124q-42 49 -113 49q-72 0 -131.5 -50t-71.5 -122t29 -122q46 -56 139 -102q182 -63 294 -198q124 -149 87 -363q-38 -213 -215.5 -364 t-390.5 -151t-336 152q-99 120 -94 333l220 75q-12 -183 51 -259q73 -88 198 -88q124 0 228 88.5t127 213.5q22 125 -52 214q-69 84 -183 135z" />
<glyph unicode="T" horiz-adv-x="1085" d="M903 1435l-253 -1435h-214l253 1435h-384l37 213h983l-37 -213h-385z" />
<glyph unicode="U" horiz-adv-x="1429" d="M1351 1648h215l-205 -1161q-63 -199 -223 -336q-193 -164 -425 -164t-367.5 164t-94.5 396l194 1101h214l-193 -1101q-26 -142 58 -243.5t227 -101.5q144 0 262.5 101t144.5 244z" />
<glyph unicode="V" horiz-adv-x="1417" d="M650 0l-308 1648h227l221 -1181l639 1181h227l-891 -1648h-115z" />
<glyph unicode="W" horiz-adv-x="1736" d="M816 308l236 1340h213l-236 -1340q7 -18 27 -43q55 -64 147 -64t170.5 65.5t94.5 156.5l216 1225h214l-217 -1233q-35 -174 -181 -299q-152 -129 -334 -129q-181 0 -278 127q-141 -127 -323 -127t-287 129q-104 124 -76 299l217 1233h213l-216 -1225q-15 -91 40 -156.5 t147 -65.5t169 64q31 25 44 43z" />
<glyph unicode="X" horiz-adv-x="1387" d="M52 0l676 899l-300 749h246l214 -537l406 537h245l-566 -749l362 -899h-245l-276 687l-517 -687h-245z" />
<glyph unicode="Y" horiz-adv-x="1456" d="M737 661l-395 987h245l299 -746l563 746h246l-744 -987l-117 -661h-213z" />
<glyph unicode="Z" horiz-adv-x="1506" d="M1236 1435h-781l37 213h1150l-1082 -1434h783l-38 -214h-1151z" />
<glyph unicode="[" horiz-adv-x="678" d="M316 -142h208l-37 -213h-421l352 1999h421l-37 -213h-208z" />
<glyph unicode="\" horiz-adv-x="878" d="M930 0h-237l-455 1644h238z" />
<glyph unicode="]" horiz-adv-x="678" d="M589 1431h-208l37 213h421l-352 -1999h-421l37 213h208z" />
<glyph unicode="^" horiz-adv-x="1110" d="M642 1644l365 -634h-246l-205 356l-206 -356h-247l367 634h172z" />
<glyph unicode="_" horiz-adv-x="1126" d="M43 99h1076l-37 -212h-1076z" />
<glyph unicode="`" horiz-adv-x="689" d="M791 1162h-203l-230 287h260z" />
<glyph unicode="a" horiz-adv-x="1443" d="M1158 480l28 157q-2 99 -67 181q-90 107 -241 107q-153 0 -279 -107t-153 -260q-27 -151 61.5 -258.5t241.5 -107.5q151 0 278 107q95 81 131 181zM1247 986l13 74h214l-186 -1061h-215l24 133q-183 -160 -387 -160q-243 0 -384.5 171.5t-97.5 414.5q42 243 244 414.5 t445 171.5q204 0 330 -158z" />
<glyph unicode="b" horiz-adv-x="1442" d="M481 642l-30 -166q3 -97 68 -176q90 -107 242 -107q153 0 279.5 107t153.5 259t-62 260t-241 108t-280 -108q-93 -79 -130 -177zM391 132l-23 -132h-214l291 1648h213l-116 -661q182 159 387 159q243 0 384 -172t99 -415q-43 -243 -245 -415t-445 -172q-205 0 -331 160z " />
<glyph unicode="c" horiz-adv-x="1299" d="M1058 364l200 -77q-97 -108 -138 -143q-203 -172 -446 -172q-242 0 -384 172t-98 415q42 243 244.5 415t444.5 172q243 0 385 -172q29 -35 88 -141l-227 -78q-32 50 -44 65q-88 107 -240 107t-278.5 -107.5t-153.5 -260.5q-27 -151 61.5 -258.5t240.5 -107.5t279 107 q16 14 66 64z" />
<glyph unicode="d" horiz-adv-x="1443" d="M1159 480l28 158q-1 99 -68 181q-88 108 -240 108q-153 0 -279.5 -108t-153.5 -260t61.5 -259t241.5 -107q152 0 278 107q96 81 132 180zM1248 987l117 661h214l-290 -1648h-215l23 132q-182 -160 -387 -160q-243 0 -384.5 172t-97.5 415q42 243 244 415t445 172 q205 0 331 -159z" />
<glyph unicode="e" horiz-adv-x="1299" d="M526 240q46 -47 187 -47q152 0 279 107q16 14 66 64l200 -77q-97 -108 -138 -143q-203 -172 -446 -172q-242 0 -384 172t-98 415q42 243 244.5 415t444.5 172q208 0 343 -125q21 -22 42 -47q8 -10 47 -65l-126 -108zM999 899q-31 28 -156 28q-152 0 -278.5 -107.5 t-153.5 -260.5q-23 -124 -1 -161z" />
<glyph unicode="f" horiz-adv-x="644" d="M551 848l-149 -849h-215l150 849h-95l38 213h95l33 190q31 132 141 227q113 91 241 91q64 0 185 -45l-106 -201q-84 38 -108 38q-43 0 -89 -36q-41 -34 -51 -82l-32 -182h191l-38 -213h-191z" />
<glyph unicode="g" horiz-adv-x="1447" d="M1187 642q-4 98 -68 177q-89 108 -241 108q-153 0 -279.5 -108t-152.5 -260q-28 -152 61 -259.5t242 -107.5q152 0 278 107q93 79 130 175zM1248 987l13 73h214l-139 -788q-55 -309 -251 -477q-199 -151 -442 -151t-389 151q-28 35 -87 142l225 76q33 -49 45 -63 q89 -108 241 -108q254 0 411 334q-134 -194 -377 -194t-385.5 167t-98.5 410q42 243 244 414.5t445 171.5q205 0 331 -158z" />
<glyph unicode="h" horiz-adv-x="1158" d="M445 1648h214l-123 -702q119 172 289 172t250.5 -122.5t50.5 -306.5l-122 -689h-213l121 681q15 91 -25 156.5t-153 65.5q-132 0 -231 -142l-134 -761h-215z" />
<glyph unicode="i" horiz-adv-x="557" d="M572 1060l-187 -1060h-213l186 1060h214zM640.5 1452.5q36.5 -43.5 24.5 -106.5q-10 -63 -62 -106t-114 -43q-61 0 -97.5 43t-25.5 106t63 106.5t113 43.5q62 0 98.5 -43.5z" />
<glyph unicode="j" horiz-adv-x="577" d="M48 -10q118 12 129 72l176 998h213l-176 -996q-46 -261 -379 -286zM634 1452.5q37 -43.5 26 -106.5t-63 -106t-114 -43q-61 0 -97.5 43t-25.5 106t63 106.5t113 43.5t98 -43.5z" />
<glyph unicode="k" horiz-adv-x="972" d="M995 1060l-349 -354l275 -706h-255l-195 528l-11 -11l-91 -517h-215l258 1457h214l-106 -599l200 202h275z" />
<glyph unicode="l" horiz-adv-x="523" d="M659 1649l-290 -1649h-215l291 1649h214z" />
<glyph unicode="m" horiz-adv-x="1460" d="M341 1060h213l-16 -99q88 156 264 156q175 0 166 -178q82 178 309 178q225 0 176 -273l-148 -844h-214l132 746q26 156 -100 156q-53 0 -97 -37t-83 -249l-108 -616h-213l133 746q27 156 -101 156q-52 0 -97 -37q-38 -32 -67 -169l-122 -696h-214z" />
<glyph unicode="n" horiz-adv-x="1173" d="M506 776l-137 -776h-215l187 1060h214l-21 -124q98 182 300 182q172 0 252.5 -122.5t50.5 -306.5l-121 -689h-214l121 681q15 91 -40 156.5t-148 65.5q-91 0 -170 -64q-44 -38 -59 -63z" />
<glyph unicode="o" horiz-adv-x="1357" d="M881 1146q243 0 384 -172t99 -415q-44 -243 -245.5 -415t-444.5 -172q-242 0 -384 172t-98 415q42 243 244.5 415t444.5 172zM563.5 819q-126.5 -108 -153.5 -260t61.5 -259t241.5 -107q152 0 279 107t153 259q27 152 -61.5 260t-240.5 108q-153 0 -279.5 -108z" />
<glyph unicode="p" horiz-adv-x="1416" d="M481 642l-30 -166q3 -98 69 -177q89 -107 241 -107q153 0 279.5 107.5t153.5 259.5t-62 260t-241 108t-279 -108q-94 -79 -131 -177zM391 132l-86 -488h-213l249 1416h213l-16 -96q186 181 391 181q243 0 384 -171.5t99 -414.5q-43 -243 -245 -415t-445 -172 q-205 0 -331 160z" />
<glyph unicode="q" horiz-adv-x="1417" d="M1133 480l28 158q-1 99 -68 181q-88 108 -240 108q-153 0 -279.5 -108t-153.5 -260t62 -259.5t241 -107.5q153 0 278 107q96 81 132 181zM1223 987l12 73h214l-249 -1416h-214l85 488q-182 -160 -387 -160q-243 0 -384 172t-98 415q42 243 244 414.5t445 171.5 q205 0 332 -158z" />
<glyph unicode="r" horiz-adv-x="713" d="M529 917q149 161 324 170l-39 -222q-118 -6 -199 -75q-122 -103 -151 -245l-96 -545h-214l187 1060h213z" />
<glyph unicode="s" horiz-adv-x="908" d="M409 228q32 -37 84 -37q53 0 97 37t54 91q9 53 -22 90q-20 26 -96 79q-104 63 -144 111q-70 85 -48 203q20 120 119.5 205t219.5 85q119 0 184 -81q47 -56 50 -126l-217 -60q-3 26 -9 34q-15 19 -45 19q-31 0 -57.5 -22.5t-31.5 -53.5q-6 -31 12 -52q17 -19 78 -63 q115 -70 162 -128q83 -101 58 -240q-25 -142 -142.5 -242.5t-259.5 -100.5q-141 0 -222 101q-58 69 -61 172l220 46q1 -48 17 -67z" />
<glyph unicode="t" horiz-adv-x="780" d="M470 1060l71 397h213l-71 -397h190l-37 -213h-190l-150 -847h-213l150 847h-191l37 213h191z" />
<glyph unicode="u" horiz-adv-x="1196" d="M600 -14q-200 0 -301 122.5t-71 306.5l113 645h214l-112 -637q-17 -91 39 -157t156 -66q91 0 170 65.5t95 157.5l113 637h213l-114 -645q-36 -184 -179 -307q-144 -122 -336 -122z" />
<glyph unicode="v" horiz-adv-x="1223" d="M557 0l-319 1060h241l197 -688l441 688h241l-694 -1060h-107z" />
<glyph unicode="w" horiz-adv-x="1460" d="M678 314l131 746h213l-128 -728q-10 -57 21.5 -94.5t83.5 -37.5q127 0 155 157l123 703h214l-130 -743q-29 -136 -140 -230q-119 -101 -260 -101q-142 0 -216 98q-112 -98 -253 -98q-142 0 -223 101q-78 94 -59 230l131 743h213l-123 -703q-28 -157 99 -157q53 0 98 37 q37 32 50 77z" />
<glyph unicode="x" horiz-adv-x="1061" d="M1120 1060l-365 -484l230 -576h-246l-145 356l-269 -356h-248l435 576l-195 484h246l109 -265l199 265h249z" />
<glyph unicode="y" horiz-adv-x="1173" d="M352 -356h-225l386 592l-249 824h240l167 -580l370 580h239z" />
<glyph unicode="z" horiz-adv-x="1158" d="M786 847h-436l37 213h804l-632 -846h473l-38 -214h-840z" />
<glyph unicode="{" horiz-adv-x="969" d="M266 771h168q94 55 139 152q26 60 38 128q7 37 8 75q0 72 11 138q13 72 41 136q59 132 191 200q85 44 169 44q23 0 98 -12l-36 -201q-84 14 -95 14q-33 0 -68 -17q-52 -27 -76 -81q-19 -44 -29 -102q-5 -25 -7 -50q2 -75 -12 -152q-15 -88 -52 -173q-79 -175 -161 -228 q63 -49 82 -224q7 -84 -10 -173q-13 -76 -41 -151q-7 -25 -11 -51q-10 -57 -7 -102q5 -52 48 -79q31 -19 64 -19q11 0 97 11l-34 -197q-80 -12 -102 -12q-85 0 -154 44q-108 68 -120 201q-5 64 7 136q11 66 37 137q12 38 19 75q12 68 7 128q-10 96 -87 151h-168z" />
<glyph unicode="|" horiz-adv-x="522" d="M657 1644l-352 -1999h-213l352 1999h213z" />
<glyph unicode="}" horiz-adv-x="969" d="M931 517h-168q-96 -55 -140 -151q-26 -60 -38 -128q-6 -37 -8 -75q1 -71 -11 -137q-12 -72 -41 -136q-58 -133 -191 -201q-84 -44 -168 -44q-23 0 -98 12l35 197q81 -11 93 -11q34 0 71 19q52 27 75 79q20 45 30 102q5 26 7 51q-2 75 11 151q16 89 52 173q79 175 161 224 q-63 53 -81 228q-7 85 8 173q14 77 43 152q6 25 11 50q10 58 5 102q-3 54 -46 81q-29 17 -62 17q-11 0 -100 -14l35 201q79 12 102 12q85 0 154 -44q108 -68 119 -200q6 -64 -6 -136q-11 -66 -38 -138q-12 -38 -18 -75q-12 -68 -7 -128q9 -97 87 -152h167z" />
<glyph unicode="~" horiz-adv-x="1365" d="M713 935q164 -95 226 -95h10q42 14 59 58q10 24 10 124l219 -34q-10 -115 -32 -170q-54 -133 -186 -177q-34 -11 -73 -11q-117 0 -296 102q-165 95 -228 95h-7q-42 -13 -61 -57q-9 -26 -12 -124l-213 34q5 113 28 170q54 133 188 177q33 10 72 10q118 0 296 -102z" />
<glyph unicode="&#xa1;" horiz-adv-x="557" d="M314 804.5q-36 43.5 -25 104.5q12 64 63 107.5t113 43.5q60 0 97 -43.5t26 -107.5q-11 -61 -63 -104.5t-113 -43.5q-62 0 -98 43.5zM67 -602l208 1180h213l-208 -1180h-213z" />
<glyph unicode="&#xa2;" horiz-adv-x="1143" d="M799 796q45 1 137 81q13 10 63 59l192 -75q-97 -105 -130 -134q-166 -141 -300 -143l-26 -146h-213l29 162q-89 17 -177 126q-119 142 -83 344q36 201 203 344q128 108 223 126l29 163h213l-26 -147q132 -2 248 -143q23 -29 85 -132l-220 -77q-32 51 -41 62 q-65 77 -110 78zM679 1316q-149 -90 -175 -246q-26 -144 86 -249z" />
<glyph unicode="&#xa3;" horiz-adv-x="1250" d="M684 524q-41 -234 -190 -362q94 53 194 53q27 0 55 -4q128 -18 205 -18q68 0 198 32l3 -211q-149 -35 -240 -35t-182 22q-83 19 -147 19q-54 0 -92 -13q-101 -34 -247 -102l-123 185q186 142 219 175q106 104 136 261h-226l37 213h178q0 3 -26 84q-81 181 -66 350 q2 21 6 42q27 155 150 277q138 136 324 154q21 1 41 1q154 0 260 -102q116 -117 101 -296q-1 -24 -5 -48q-12 -73 -82 -187l-187 66q48 92 55 130q2 12 3 22q7 89 -52 148q-53 52 -130 52q-11 0 -22 -1q-92 -8 -164 -78q-61 -61 -75 -138q-2 -12 -3 -23q-9 -95 27 -218 q62 -136 69 -235h200l-37 -213z" />
<glyph unicode="&#xa4;" horiz-adv-x="1250" d="M660 1536q87 62 246 62q161 0 226 -62l160 136l123 -152l-159 -136q49 -75 20 -236q-28 -159 -104 -234l112 -136l-177 -152l-112 136q-86 -62 -246 -62t-226 62l-158 -136l-125 152l160 136q-49 75 -21 234q29 161 104 236l-112 136l178 152zM1002 1338q-52 46 -133 46 q-80 0 -148 -46q-16 -10 -30 -22t-27 -26q-58 -61 -73 -142q-13 -80 23 -140q7 -13 18 -25q11 -14 22 -23q52 -46 132 -46t149 46q16 10 30 23q15 11 26 25q59 60 72 140q14 81 -22 142q-8 14 -17 26q-9 11 -22 22z" />
<glyph unicode="&#xa5;" horiz-adv-x="1456" d="M689 783l-347 865h245l299 -746l563 746h246l-653 -865h268l-38 -214h-338l-16 -91h338l-38 -213h-337l-47 -265h-213l46 265h-336l37 213h337l16 91h-337l38 214h267z" />
<glyph unicode="&#xa6;" horiz-adv-x="522" d="M657 1644l-164 -932h-213l164 932h213zM470 577l-165 -932h-213l164 932h214z" />
<glyph unicode="&#xa7;" horiz-adv-x="1241" d="M1011 512h1q6 0 26 117q22 125 -50 214q-70 84 -185 134q-163 58 -249 163l-29 14h-1q-6 0 -28 -119q-21 -124 52 -212q69 -86 183 -135q164 -59 251 -163zM489 1412q28 158 160.5 270.5t291.5 112.5q160 0 253 -112q53 -61 73 -196l-207 -76q-19 95 -41 124 q-43 49 -115 49q-71 0 -130 -50t-72 -122q-12 -71 29 -121q48 -56 139 -102q182 -63 293 -198q123 -149 86 -362q-38 -213 -204 -377q-26 -156 -158.5 -269.5t-293.5 -113.5q-158 0 -252 112q-54 61 -72 196l206 76q18 -94 42 -123q42 -50 113 -50t130.5 50t71.5 122 q13 71 -29 122q-45 56 -138 102q-182 63 -293 198q-124 149 -87 361q38 213 204 377z" />
<glyph unicode="&#xa8;" horiz-adv-x="737" d="M533 1438q37 -43 26 -105q-11 -63 -63 -106.5t-113 -43.5q-62 0 -98 43.5t-24 106.5q10 62 61.5 105t113.5 43q60 0 97 -43zM920.5 1438q36.5 -43 26.5 -105q-12 -63 -64 -106.5t-113 -43.5t-97 43.5t-25 106.5q10 62 61.5 105t113.5 43q61 0 97.5 -43z" />
<glyph unicode="&#xa9;" horiz-adv-x="1475" d="M920 558l186 -68q-71 -99 -94 -121q-110 -111 -266 -111q-157 0 -267 110.5t-110 267.5q0 155 110 265.5t267 110.5q156 0 266 -110q23 -22 94 -121l-186 -69q-38 48 -46 55q-52 53 -128 53t-130.5 -54t-54.5 -130q0 -77 54.5 -131t130.5 -54t130 54q7 7 44 53z M1182.5 1083.5q185.5 -185.5 185.5 -447.5q0 -263 -185.5 -448.5t-447.5 -185.5t-447.5 185.5t-185.5 448.5q0 262 185.5 447.5t447.5 185.5t447.5 -185.5zM735 1073q-182 0 -310 -128t-128 -309q0 -182 128 -310.5t310 -128.5t310 128.5t128 310.5q0 181 -128 309t-310 128 z" />
<glyph unicode="&#xaa;" horiz-adv-x="1049" d="M972 1249l17 94q-1 60 -47 109q-59 64 -159 64q-101 0 -183 -64.5t-98 -154.5q-17 -92 43 -156.5t161 -64.5q99 0 182 64q62 50 84 109zM1026 1553l8 45h141l-112 -637h-141l13 79q-118 -95 -253 -95q-160 0 -255 103t-70 249q26 145 157.5 248t291.5 103q134 0 220 -95z M1230 1387h162l-129 -728h-803l29 162h641z" />
<glyph unicode="&#xab;" horiz-adv-x="1258" d="M192 504l664 598l-51 -286l-346 -312l236 -313l-50 -289zM684 504l664 598l-50 -286l-346 -312l236 -313l-51 -289z" />
<glyph unicode="&#xad;" horiz-adv-x="946" d="M258 733h688l-38 -213h-688z" />
<glyph unicode="&#xae;" horiz-adv-x="1244" d="M833 856q4 6 28 29q99 100 99 239q0 141 -99 240l-14 14q73 -82 73 -195q0 -123 -87 -210q-45 -45 -45 -53q0 -1 3 -1h2zM579 1299v-230h45q48 0 82 33.5t34 80.5q0 49 -34 82.5t-82 33.5h-45zM579 788q21 -2 44 -2q30 0 41 -1l-66 102h-19v-99zM399 1378q-9 -7 -16 -14 q-99 -99 -99 -240q0 -139 99 -239q7 -7 16 -15v508zM623 605q-216 0 -368 152t-152 367t152 367.5t368 152.5q213 0 365.5 -152.5t152.5 -367.5t-152 -367q-54 -54 -148.5 -103t-217.5 -49z" />
<glyph unicode="&#xaf;" horiz-adv-x="738" d="M338 1480h584l-37 -213h-584z" />
<glyph unicode="&#xb0;" horiz-adv-x="874" d="M637.5 1561q82.5 -83 82.5 -200q0 -118 -82.5 -200.5t-199.5 -82.5q-118 0 -201 82.5t-83 200.5q0 117 83 200t201 83q117 0 199.5 -83zM438 1449q-37 0 -63 -25.5t-26 -62.5q0 -36 26 -62t63 -26q36 0 61.5 26t25.5 62q0 37 -25.5 62.5t-61.5 25.5z" />
<glyph unicode="&#xb1;" horiz-adv-x="1143" d="M503 213l54 305h-337l38 213h336l60 337h212l-60 -337h337l-37 -213h-337l-54 -305h337l-37 -213h-886l37 213h337z" />
<glyph unicode="&#xb2;" horiz-adv-x="1008" d="M432 934q158 110 242.5 162.5t148.5 107.5t74 115t-28 102.5t-103 42.5t-119 -43q-45 -36 -87 -178l-198 71q57 168 158 249q127 101 281 101q155 0 246 -100.5t66 -244.5q-24 -141 -149 -245q-73 -63 -250 -139t-193 -141h500l-35 -199h-752q40 229 198 339z" />
<glyph unicode="&#xb3;" horiz-adv-x="1008" d="M670 1156l-117 2l17 92l121 1q46 16 76.5 41t44.5 106q5 29 -12.5 48t-48.5 19q-81 0 -119 -116l-183 72q63 123 120 166q98 77 217 77q121 0 192 -78.5t51 -187.5q-25 -140 -170 -171q96 -22 152.5 -90t31.5 -209q-24 -142 -151.5 -243.5t-281.5 -101.5t-246 102 q-73 80 -70 249l224 71q-8 -143 24 -179q39 -42 103 -42q66 0 119 42t63 102q10 62 -24 135.5t-133 92.5z" />
<glyph unicode="&#xb4;" horiz-adv-x="689" d="M582 1449h260l-331 -287h-203z" />
<glyph unicode="&#xb5;" horiz-adv-x="1143" d="M793 83q-109 -89 -231 -89q-177 0 -183 69l-73 -416h-213l249 1413h213l-131 -742q6 -18 29 -47q56 -64 147 -64q92 0 170 66q51 42 72 86l123 701h211l-186 -1058h-211z" />
<glyph unicode="&#xb6;" horiz-adv-x="1258" d="M1172 1518l-326 -1853h-214l167 947h-80q-231 0 -366 163.5t-93 395.5q40 232 232 396q161 136 365 163h15l1 1h666l-38 -213h-43l-326 -1853h-213l326 1853h-73z" />
<glyph unicode="&#xb7;" horiz-adv-x="729" d="M481 914.5q31 -36.5 22 -89.5q-10 -55 -53.5 -91.5t-96.5 -36.5q-51 0 -82.5 36.5t-22.5 91.5q10 53 54 89.5t96 36.5t83 -36.5z" />
<glyph unicode="&#xb8;" horiz-adv-x="430" d="M323 18l-35 -63q69 -39 82 -92q2 -14 3 -28q0 -13 -2 -27q-8 -44 -47 -83q-61 -61 -161 -75q-21 -3 -47 -3q-59 0 -150 15l59 130q54 -27 91 -27q7 0 12 1q33 4 47 36q4 7 6 16v8q-1 29 -84 58l73 134h153z" />
<glyph unicode="&#xb9;" horiz-adv-x="1113" d="M1025 1644l-187 -1057h-214l144 820h-141l242 237h156z" />
<glyph unicode="&#xba;" horiz-adv-x="958" d="M770 1648q161 0 256 -103t69 -249q-26 -147 -157.5 -250t-291.5 -103t-255 103t-70 250q26 146 158 249t291 103zM564 1451q-83 -65 -98 -155q-17 -92 43 -156.5t161 -64.5q100 0 182 64.5t99 156.5q16 90 -43.5 155t-160.5 65q-100 0 -183 -65zM1230 1387h162l-129 -728 h-803l29 162h641z" />
<glyph unicode="&#xbb;" horiz-adv-x="1258" d="M85 -98l51 289l347 313l-237 312l51 286l454 -598zM578 -98l50 289l347 313l-236 312l50 286l454 -598z" />
<glyph unicode="&#xbf;" horiz-adv-x="1058" d="M871 -175q-13 -76 -63 -150q-95 -145 -255 -197q-70 -23 -134 -23q-84 0 -158 39q-133 69 -159 219q-10 65 1 128q15 86 68 167q89 134 254 246q115 88 185 196q42 64 54 127h213q-21 -111 -93 -219q-112 -172 -297 -294q-91 -77 -139 -148q-25 -39 -31 -76 q-5 -27 -1 -56q13 -68 71 -99q34 -18 71 -18q28 0 60 11q72 23 114 87q13 20 24 59l228 70zM660 909q12 64 64 107.5t112 43.5q62 0 98 -43.5t25 -107.5q-11 -61 -62.5 -104.5t-113.5 -43.5q-61 0 -97.5 43.5t-25.5 104.5z" />
<glyph unicode="&#xc0;" horiz-adv-x="1417" d="M990 796l-73 386l-208 -386h281zM1057 1648l309 -1648h-227l-109 583h-437l-314 -583h-227l889 1648h116zM1178 1750h-203l-229 287h259z" />
<glyph unicode="&#xc1;" horiz-adv-x="1417" d="M990 796l-73 386l-208 -386h281zM1057 1648l309 -1648h-227l-109 583h-437l-314 -583h-227l889 1648h116zM1130 2037h259l-330 -287h-203z" />
<glyph unicode="&#xc2;" horiz-adv-x="1417" d="M990 796l-73 386l-208 -386h281zM1057 1648l309 -1648h-227l-109 583h-437l-314 -583h-227l889 1648h116zM1119 1801l-81 85l-106 -85h-225l283 246h151l205 -246h-227z" />
<glyph unicode="&#xc3;" horiz-adv-x="1417" d="M990 796l-73 386l-208 -386h281zM1057 1648l309 -1648h-227l-109 583h-437l-314 -583h-227l889 1648h116zM1167 1945v-1q31 0 38 40q5 27 -1 71h192q-80 -227 -197 -260q-31 -8 -60 -8q-76 0 -126.5 58.5t-79.5 58.5h-4q-32 -2 -38 -40q-5 -25 2 -68h-193q81 227 199 260 q31 8 60 8q75 0 128 -59.5t80 -59.5z" />
<glyph unicode="&#xc4;" horiz-adv-x="1417" d="M990 796l-73 386l-208 -386h281zM1057 1648l309 -1648h-227l-109 583h-437l-314 -583h-227l889 1648h116zM977 2026q37 -43 26 -105q-11 -63 -63 -106t-113 -43q-62 0 -98 43t-24 106q10 62 61.5 105t113.5 43q60 0 97 -43zM1364.5 2026q36.5 -43 25.5 -105 q-11 -63 -63 -106t-113 -43t-97.5 43t-24.5 106q10 62 61.5 105t113.5 43q61 0 97.5 -43z" />
<glyph unicode="&#xc5;" horiz-adv-x="1417" d="M990 796l-73 386l-208 -386h281zM1027 1790q23 0 42.5 16t23.5 40q5 29 -9 45t-36 16q-29 0 -47.5 -16t-24.5 -45q-4 -24 9 -40t42 -16zM1059 1640l307 -1640h-227l-109 583h-437l-314 -583h-227l885 1640q-49 14 -82 55q-53 64 -37 153t91 153t165 64t142 -64t35 -153 q-15 -89 -89 -153q-49 -41 -103 -55z" />
<glyph unicode="&#xc6;" horiz-adv-x="1766" d="M1929 1648l-37 -213h-675l-89 -504h674l-37 -213h-674l-89 -504h675l-38 -214h-888l103 583h-200l-352 -583h-261l991 1594l9 54h888zM937 1059l-159 -263h113z" />
<glyph unicode="&#xc7;" horiz-adv-x="1691" d="M802 -2q-234 45 -387 231q-203 246 -141 595q61 348 351 595.5t639 247.5q326 0 571 -267l-185 -145q-185 195 -424 195q-259 0 -475 -183t-262 -443q-46 -261 105.5 -444t409.5 -183q239 0 495 195l134 -143q-339 -267 -666 -267h-19l-16 -27q69 -39 82 -92q2 -14 3 -28 q0 -13 -2 -27q-9 -44 -47 -83q-62 -61 -162 -75q-20 -3 -46 -3q-60 0 -150 15l58 130q55 -27 92 -27q6 0 11 1q32 4 48 36q4 7 6 16v8q-1 29 -84 58z" />
<glyph unicode="&#xc8;" horiz-adv-x="1171" d="M1333 1648l-37 -213h-675l-90 -504h675l-37 -213h-675l-88 -504h674l-38 -214h-888l291 1648h888zM1068 1750h-203l-229 287h259z" />
<glyph unicode="&#xc9;" horiz-adv-x="1171" d="M1333 1648l-37 -213h-675l-90 -504h675l-37 -213h-675l-88 -504h674l-38 -214h-888l291 1648h888zM1020 2037h259l-330 -287h-203z" />
<glyph unicode="&#xca;" horiz-adv-x="1171" d="M1333 1648l-37 -213h-675l-90 -504h675l-37 -213h-675l-88 -504h674l-38 -214h-888l291 1648h888zM1008 1801l-80 85l-106 -85h-226l284 246h151l205 -246h-228z" />
<glyph unicode="&#xcb;" horiz-adv-x="1171" d="M1333 1648l-37 -213h-675l-90 -504h675l-37 -213h-675l-88 -504h674l-38 -214h-888l291 1648h888zM866.5 2026q36.5 -43 26.5 -105q-11 -63 -63 -106t-113 -43q-62 0 -98 43t-25 106q11 62 62.5 105t112.5 43t97.5 -43zM1254 2026q37 -43 26 -105q-11 -63 -63 -106 t-113 -43q-62 0 -98 43t-24 106q10 62 61.5 105t113.5 43q60 0 97 -43z" />
<glyph unicode="&#xcc;" d="M679 1648l-291 -1648h-213l291 1648h213zM751 1750h-203l-229 287h260z" />
<glyph unicode="&#xcd;" d="M679 1648l-291 -1648h-213l291 1648h213zM703 2037h260l-331 -287h-202z" />
<glyph unicode="&#xce;" d="M679 1648l-291 -1648h-213l291 1648h213zM691 1801l-79 85l-107 -85h-226l283 246h152l205 -246h-228z" />
<glyph unicode="&#xcf;" d="M680 1648l-291 -1648h-213l291 1648h213zM551.5 2026q36.5 -43 25.5 -105q-11 -63 -63 -106t-112 -43q-62 0 -98 43t-26 106q11 62 62.5 105t113.5 43q61 0 97.5 -43zM938.5 2026q36.5 -43 25.5 -105q-10 -63 -62 -106t-113 -43q-62 0 -98 43t-26 106q12 62 63.5 105 t113.5 43q60 0 96.5 -43z" />
<glyph unicode="&#xd0;" horiz-adv-x="1287" d="M318 930l127 718h157q401 -2 586 -228q202 -248 141 -596q-62 -349 -352 -596q-264 -226 -666 -228h-157l127 718h-196l38 212h195zM531 930h358l-37 -212h-358l-88 -502q254 0 446 164q216 183 261 444q47 260 -105 444q-134 163 -388 163z" />
<glyph unicode="&#xd1;" horiz-adv-x="1397" d="M445 1648h195l472 -1176l207 1176h215l-291 -1648h-186l-479 1191l-210 -1191h-214zM1158 1945v-1q31 0 38 40q4 27 -1 71h191q-79 -227 -197 -260q-30 -8 -59 -8q-76 0 -127 58.5t-80 58.5h-4q-31 -2 -38 -40q-4 -25 3 -68h-193q79 227 199 260q30 8 59 8 q75 0 128.5 -59.5t80.5 -59.5z" />
<glyph unicode="&#xd2;" horiz-adv-x="1945" d="M1820 1422.5q204 -247.5 142 -596.5t-353 -596.5t-640 -247.5t-552.5 247.5t-141.5 596.5t352.5 596.5t639.5 247.5t553 -247.5zM1229 1454q-261 0 -477 -183.5t-262 -444.5t106 -445t411 -184q261 0 477.5 184t262.5 445q45 261 -106.5 444.5t-411.5 183.5zM1442 1750 h-203l-230 287h260z" />
<glyph unicode="&#xd3;" horiz-adv-x="1945" d="M1820 1422.5q204 -247.5 142 -596.5t-353 -596.5t-640 -247.5t-552.5 247.5t-141.5 596.5t352.5 596.5t639.5 247.5t553 -247.5zM1229 1454q-261 0 -477 -183.5t-262 -444.5t106 -445t411 -184q261 0 477.5 184t262.5 445q45 261 -106.5 444.5t-411.5 183.5zM1395 2037 h259l-330 -287h-203z" />
<glyph unicode="&#xd4;" horiz-adv-x="1945" d="M1820 1422.5q204 -247.5 142 -596.5t-353 -596.5t-640 -247.5t-552.5 247.5t-141.5 596.5t352.5 596.5t639.5 247.5t553 -247.5zM1229 1454q-261 0 -477 -183.5t-262 -444.5t106 -445t411 -184q261 0 477.5 184t262.5 445q45 261 -106.5 444.5t-411.5 183.5zM1382 1801 l-79 85l-107 -85h-226l284 246h151l205 -246h-228z" />
<glyph unicode="&#xd5;" horiz-adv-x="1945" d="M1820 1422.5q204 -247.5 142 -596.5t-353 -596.5t-640 -247.5t-552.5 247.5t-141.5 596.5t352.5 596.5t639.5 247.5t553 -247.5zM1229 1454q-261 0 -477 -183.5t-262 -444.5t106 -445t411 -184q261 0 477.5 184t262.5 445q45 261 -106.5 444.5t-411.5 183.5zM1432 1945 v-1q31 0 37 40q5 27 0 71h191q-79 -227 -197 -260q-30 -8 -59 -8q-76 0 -127 58.5t-80 58.5h-4q-31 -2 -38 -40q-4 -25 2 -68h-193q80 227 200 260q30 8 59 8q75 0 128.5 -59.5t80.5 -59.5z" />
<glyph unicode="&#xd6;" horiz-adv-x="1945" d="M1820 1422.5q204 -247.5 142 -596.5t-353 -596.5t-640 -247.5t-552.5 247.5t-141.5 596.5t352.5 596.5t639.5 247.5t553 -247.5zM1229 1454q-261 0 -477 -183.5t-262 -444.5t106 -445t411 -184q261 0 477.5 184t262.5 445q45 261 -106.5 444.5t-411.5 183.5zM1241.5 2026 q36.5 -43 25.5 -105q-11 -63 -62.5 -106t-112.5 -43q-62 0 -98.5 43t-25.5 106q12 62 63.5 105t112.5 43t97.5 -43zM1629 2026q37 -43 25 -105q-11 -63 -62.5 -106t-112.5 -43q-62 0 -98.5 43t-25.5 106q12 62 63.5 105t113.5 43q60 0 97 -43z" />
<glyph unicode="&#xd7;" horiz-adv-x="1212" d="M606 475l-238 -238l-152 151l238 238l-238 239l152 152l238 -239l239 239l149 -153l-238 -238l238 -238l-149 -151z" />
<glyph unicode="&#xd8;" horiz-adv-x="1945" d="M1139 1438q-42 16 -167 16q-260 0 -444 -183.5t-184 -444.5t184 -445q67 -67 84 -76zM804 214q44 -17 168 -17q261 0 445 184t184 445t-184 445q-67 67 -84 76zM1424 1543q53 -29 146 -120q246 -248 246 -597t-247.5 -596.5t-596.5 -247.5q-169 0 -258 37l-83 -179 l-194 91l83 178q-52 29 -144 121q-247 247 -247 596t247 596.5t596 247.5q169 0 259 -36l83 178l194 -91z" />
<glyph unicode="&#xd9;" horiz-adv-x="1429" d="M1351 1648h215l-205 -1161q-63 -199 -223 -336q-193 -164 -425 -164t-367.5 164t-94.5 396l194 1101h214l-193 -1101q-26 -142 58 -243.5t227 -101.5q144 0 262.5 101t144.5 244zM1184 1750h-202l-230 287h259z" />
<glyph unicode="&#xda;" horiz-adv-x="1429" d="M1351 1648h215l-205 -1161q-63 -199 -223 -336q-193 -164 -425 -164t-367.5 164t-94.5 396l194 1101h214l-193 -1101q-26 -142 58 -243.5t227 -101.5q144 0 262.5 101t144.5 244zM1136 2037h260l-331 -287h-203z" />
<glyph unicode="&#xdb;" horiz-adv-x="1429" d="M1351 1648h215l-205 -1161q-63 -199 -223 -336q-193 -164 -425 -164t-367.5 164t-94.5 396l194 1101h214l-193 -1101q-26 -142 58 -243.5t227 -101.5q144 0 262.5 101t144.5 244zM1125 1801l-81 85l-106 -85h-225l283 246h151l205 -246h-227z" />
<glyph unicode="&#xdc;" horiz-adv-x="1429" d="M1351 1648h215l-205 -1161q-63 -199 -223 -336q-193 -164 -425 -164t-367.5 164t-94.5 396l194 1101h214l-193 -1101q-26 -142 58 -243.5t227 -101.5q144 0 262.5 101t144.5 244zM983.5 2026q36.5 -43 25.5 -105q-11 -63 -63 -106t-113 -43q-62 0 -98 43t-24 106 q10 62 61.5 105t113.5 43q61 0 97.5 -43zM1370.5 2026q36.5 -43 26.5 -105q-12 -63 -64 -106t-112 -43q-62 0 -98 43t-25 106q10 62 61.5 105t113.5 43q61 0 97.5 -43z" />
<glyph unicode="&#xdd;" horiz-adv-x="1456" d="M737 661l-395 987h245l299 -746l563 746h246l-744 -987l-117 -661h-213zM1149 2037h260l-331 -287h-202z" />
<glyph unicode="&#xde;" horiz-adv-x="1215" d="M612 1385h254q194 -27 307 -164q135 -164 94 -396q-41 -233 -234 -396.5t-424 -163.5h-195l-46 -265h-214l291 1648h213zM452 479h195q142 0 261.5 101.5t144.5 244.5t-58.5 244t-226.5 101h-194z" />
<glyph unicode="&#xdf;" horiz-adv-x="1176" d="M775 1655h16q138 0 224 -80q91 -90 70 -264l-3 -17q-29 -169 -82 -198q244 -105 188 -507q-44 -243 -245 -419q-189 -166 -350 -168v-2h-80l38 214h80v3q67 4 183 106q127 112 155 265q27 152 -62 259.5t-234 107.5l38 216q69 8 109.5 40.5t50.5 89.5q11 60 -19 102 q-25 35 -90 35h-9q-71 -2 -111 -41.5t-61 -131.5l-224 -1265h-213l227 1283q42 179 146.5 273t257.5 99z" />
<glyph unicode="&#xe0;" horiz-adv-x="1443" d="M1158 480l28 157q-2 99 -67 181q-90 107 -241 107q-153 0 -279 -107t-153 -260q-27 -151 61.5 -258.5t241.5 -107.5q151 0 278 107q95 81 131 181zM1247 986l13 74h214l-186 -1061h-215l24 133q-183 -160 -387 -160q-243 0 -384.5 171.5t-97.5 414.5q42 243 244 414.5 t445 171.5q204 0 330 -158zM1074 1162h-203l-229 287h259z" />
<glyph unicode="&#xe1;" horiz-adv-x="1443" d="M1158 480l28 157q-2 99 -67 181q-90 107 -241 107q-153 0 -279 -107t-153 -260q-27 -151 61.5 -258.5t241.5 -107.5q151 0 278 107q95 81 131 181zM1247 986l13 74h214l-186 -1061h-215l24 133q-183 -160 -387 -160q-243 0 -384.5 171.5t-97.5 414.5q42 243 244 414.5 t445 171.5q204 0 330 -158zM1026 1449h259l-330 -287h-203z" />
<glyph unicode="&#xe2;" horiz-adv-x="1443" d="M1158 480l28 157q-2 99 -67 181q-90 107 -241 107q-153 0 -279 -107t-153 -260q-27 -151 61.5 -258.5t241.5 -107.5q151 0 278 107q95 81 131 181zM1247 986l13 74h214l-186 -1061h-215l24 133q-183 -160 -387 -160q-243 0 -384.5 171.5t-97.5 414.5q42 243 244 414.5 t445 171.5q204 0 330 -158zM1015 1213l-81 85l-106 -85h-225l283 245h151l205 -245h-227z" />
<glyph unicode="&#xe3;" horiz-adv-x="1443" d="M1158 480l28 157q-2 99 -67 181q-90 107 -241 107q-153 0 -279 -107t-153 -260q-27 -151 61.5 -258.5t241.5 -107.5q151 0 278 107q95 81 131 181zM1247 986l13 74h214l-186 -1061h-215l24 133q-183 -160 -387 -160q-243 0 -384.5 171.5t-97.5 414.5q42 243 244 414.5 t445 171.5q204 0 330 -158zM1063 1357v-2q31 0 38 41q5 26 -1 71h192q-80 -227 -197 -260q-31 -8 -60 -8q-76 0 -127 58.5t-80 58.5h-4q-31 -2 -37 -40q-5 -26 2 -68h-193q81 227 199 260q31 8 60 8q75 0 128 -59.5t80 -59.5z" />
<glyph unicode="&#xe4;" horiz-adv-x="1443" d="M1158 480l28 157q-2 99 -67 181q-90 107 -241 107q-153 0 -279 -107t-153 -260q-27 -151 61.5 -258.5t241.5 -107.5q151 0 278 107q95 81 131 181zM1247 986l13 74h214l-186 -1061h-215l24 133q-183 -160 -387 -160q-243 0 -384.5 171.5t-97.5 414.5q42 243 244 414.5 t445 171.5q204 0 330 -158zM872.5 1438q36.5 -43 26.5 -105q-11 -63 -63 -106.5t-113 -43.5q-62 0 -98 43.5t-25 106.5q11 62 62.5 105t113.5 43q60 0 96.5 -43zM1260.5 1438q36.5 -43 25.5 -105q-11 -63 -63 -106.5t-113 -43.5t-97.5 43.5t-24.5 106.5q10 62 61.5 105 t113.5 43q61 0 97.5 -43z" />
<glyph unicode="&#xe5;" horiz-adv-x="1443" d="M1158 480l28 157q-2 99 -67 181q-90 107 -241 107q-153 0 -279 -107t-153 -260q-27 -151 61.5 -258.5t241.5 -107.5q151 0 278 107q95 81 131 181zM928 1235q23 0 42.5 16t23.5 40q5 28 -9 44t-36 16q-29 0 -47.5 -16t-23.5 -44q-5 -24 8 -40t42 -16zM1045 1127 q118 -36 202 -141l13 74h214l-186 -1061h-215l24 133q-183 -160 -387 -160q-243 0 -384.5 171.5t-97.5 414.5q42 243 244 415q138 117 295 154q-6 6 -11 13q-53 64 -37 153t91 153t165 64t142 -64t36 -153t-90 -153q-9 -7 -18 -13z" />
<glyph unicode="&#xe6;" horiz-adv-x="2206" d="M1131 735q-18 45 -49 84q-89 107 -242 107q-151 0 -277 -107t-154 -260q-27 -152 62 -259t241 -107t278 108q47 39 78 82q37 49 55 98l28 157q-2 49 -20 97zM1991 758l-49 61q-89 107 -241 107q-153 0 -279 -107q-26 -23 -32 -29l-6 -32h607zM1218 1022l7 39h213 q73 84 302 84q243 0 384 -172q126 -153 85 -429l-862 1l-38 -216q3 -7 21 -28q89 -108 242 -108q152 0 278 108q24 19 78 75l196 -73q-79 -101 -145 -158q-203 -171 -446 -171q-229 0 -277 54l-5 -28h-213l17 98q-176 -124 -382 -124q-242 0 -383.5 171.5t-98.5 413.5 q43 243 245 414.5t444 171.5q205 0 338 -123z" />
<glyph unicode="&#xe7;" horiz-adv-x="1299" d="M583 -22q-179 28 -293 166q-142 172 -98 415q42 243 244.5 415t444.5 172q243 0 385 -172q29 -35 88 -141l-227 -78q-32 50 -44 65q-88 107 -240 107t-278.5 -107.5t-153.5 -260.5q-27 -151 61.5 -258.5t240.5 -107.5t279 107q16 14 66 64l200 -77q-97 -108 -138 -143 q-178 -150 -386 -169l-11 -20q69 -39 81 -92l4 -28q0 -13 -3 -27q-8 -44 -46 -83q-62 -61 -162 -75q-20 -3 -46 -3q-60 0 -150 15l58 130q55 -27 92 -27q6 0 11 1q33 4 48 36q4 7 6 16v8q-1 29 -85 58z" />
<glyph unicode="&#xe8;" horiz-adv-x="1299" d="M526 240q46 -47 187 -47q152 0 279 107q16 14 66 64l200 -77q-97 -108 -138 -143q-203 -172 -446 -172q-242 0 -384 172t-98 415q42 243 244.5 415t444.5 172q208 0 343 -125q21 -22 42 -47q8 -10 47 -65l-126 -108zM999 899q-31 28 -156 28q-152 0 -278.5 -107.5 t-153.5 -260.5q-23 -124 -1 -161zM1016 1162h-203l-230 287h260z" />
<glyph unicode="&#xe9;" horiz-adv-x="1299" d="M526 240q46 -47 187 -47q152 0 279 107q16 14 66 64l200 -77q-97 -108 -138 -143q-203 -172 -446 -172q-242 0 -384 172t-98 415q42 243 244.5 415t444.5 172q208 0 343 -125q21 -22 42 -47q8 -10 47 -65l-126 -108zM999 899q-31 28 -156 28q-152 0 -278.5 -107.5 t-153.5 -260.5q-23 -124 -1 -161zM968 1449h260l-332 -287h-203z" />
<glyph unicode="&#xea;" horiz-adv-x="1299" d="M526 240q46 -47 187 -47q152 0 279 107q16 14 66 64l200 -77q-97 -108 -138 -143q-203 -172 -446 -172q-242 0 -384 172t-98 415q42 243 244.5 415t444.5 172q208 0 343 -125q21 -22 42 -47q8 -10 47 -65l-126 -108zM999 899q-31 28 -156 28q-152 0 -278.5 -107.5 t-153.5 -260.5q-23 -124 -1 -161zM956 1213l-79 85l-108 -85h-225l283 245h151l205 -245h-227z" />
<glyph unicode="&#xeb;" horiz-adv-x="1299" d="M526 240q46 -47 187 -47q152 0 279 107q16 14 66 64l200 -77q-97 -108 -138 -143q-203 -172 -446 -172q-242 0 -384 172t-98 415q42 243 244.5 415t444.5 172q208 0 343 -125q21 -22 42 -47q8 -10 47 -65l-126 -108zM999 899q-31 28 -156 28q-152 0 -278.5 -107.5 t-153.5 -260.5q-23 -124 -1 -161zM815 1438q37 -43 25 -105q-11 -63 -63 -106.5t-113 -43.5t-97.5 43.5t-24.5 106.5q11 62 62 105t113 43q61 0 98 -43zM1202 1438q37 -43 26 -105q-12 -63 -64 -106.5t-112 -43.5q-62 0 -98 43.5t-25 106.5q11 62 62 105t113 43q61 0 98 -43 z" />
<glyph unicode="&#xec;" d="M576 1061l-188 -1061h-213l188 1061h213zM648 1162h-203l-230 287h260z" />
<glyph unicode="&#xed;" d="M576 1061l-188 -1061h-213l188 1061h213zM599 1449h260l-331 -287h-203z" />
<glyph unicode="&#xee;" d="M576 1061l-188 -1061h-213l188 1061h213zM588 1213l-80 85l-106 -85h-226l283 245h152l205 -245h-228z" />
<glyph unicode="&#xef;" d="M576 1061l-188 -1061h-213l188 1061h213zM446.5 1438q36.5 -43 26.5 -105q-12 -63 -64 -106.5t-112 -43.5q-62 0 -98 43.5t-25 106.5q10 62 61.5 105t113.5 43q61 0 97.5 -43zM833.5 1438q36.5 -43 26.5 -105q-11 -63 -63 -106.5t-113 -43.5q-62 0 -98 43.5t-25 106.5 q11 62 62.5 105t112.5 43t97.5 -43z" />
<glyph unicode="&#xf0;" horiz-adv-x="1357" d="M410 559q-27 -152 61.5 -259t241.5 -107q152 0 279 107t153 259q27 152 -61.5 260t-240.5 108q-153 0 -279.5 -108t-153.5 -260zM1364 559q-44 -243 -245.5 -415t-444.5 -172q-242 0 -384 172t-98 415q42 243 244.5 415t444.5 172q17 0 35 -1l-138 190l-144 -91h-264 l325 204l-151 200h259l66 -91l156 91h259l-338 -207l278 -421q21 -22 41 -46q53 -65 80 -141l1 -1q43 -122 18 -273z" />
<glyph unicode="&#xf1;" horiz-adv-x="1173" d="M506 776l-137 -776h-215l187 1060h214l-21 -124q98 182 300 182q172 0 252.5 -122.5t50.5 -306.5l-121 -689h-214l121 681q15 91 -40 156.5t-148 65.5q-91 0 -170 -64q-44 -38 -59 -63zM940 1357v-2q31 0 37 41q6 26 0 71h192q-79 -227 -198 -260q-30 -8 -58 -8 q-77 0 -128 58.5t-79 58.5h-5q-31 -2 -38 -40q-4 -26 2 -68h-192q80 227 200 260q29 8 58 8q75 0 129 -59.5t80 -59.5z" />
<glyph unicode="&#xf2;" horiz-adv-x="1357" d="M881 1146q243 0 384 -172t99 -415q-44 -243 -245.5 -415t-444.5 -172q-242 0 -384 172t-98 415q42 243 244.5 415t444.5 172zM563.5 819q-126.5 -108 -153.5 -260t61.5 -259t241.5 -107q152 0 279 107t153 259q27 152 -61.5 260t-240.5 108q-153 0 -279.5 -108z M1044 1162h-202l-230 287h259z" />
<glyph unicode="&#xf3;" horiz-adv-x="1357" d="M881 1146q243 0 384 -172t99 -415q-44 -243 -245.5 -415t-444.5 -172q-242 0 -384 172t-98 415q42 243 244.5 415t444.5 172zM563.5 819q-126.5 -108 -153.5 -260t61.5 -259t241.5 -107q152 0 279 107t153 259q27 152 -61.5 260t-240.5 108q-153 0 -279.5 -108zM997 1449 h260l-332 -287h-203z" />
<glyph unicode="&#xf4;" horiz-adv-x="1357" d="M881 1146q243 0 384 -172t99 -415q-44 -243 -245.5 -415t-444.5 -172q-242 0 -384 172t-98 415q42 243 244.5 415t444.5 172zM563.5 819q-126.5 -108 -153.5 -260t61.5 -259t241.5 -107q152 0 279 107t153 259q27 152 -61.5 260t-240.5 108q-153 0 -279.5 -108zM985 1213 l-80 85l-107 -85h-225l283 245h151l205 -245h-227z" />
<glyph unicode="&#xf5;" horiz-adv-x="1357" d="M881 1146q243 0 384 -172t99 -415q-44 -243 -245.5 -415t-444.5 -172q-242 0 -384 172t-98 415q42 243 244.5 415t444.5 172zM563.5 819q-126.5 -108 -153.5 -260t61.5 -259t241.5 -107q152 0 279 107t153 259q27 152 -61.5 260t-240.5 108q-153 0 -279.5 -108z M1034 1357l-1 -2q31 0 38 41q5 26 -1 71h192q-79 -227 -197 -260q-30 -8 -59 -8q-76 0 -127 58.5t-80 58.5h-4q-32 -2 -38 -40q-5 -26 2 -68h-193q81 227 200 260q30 8 59 8q75 0 128.5 -59.5t80.5 -59.5z" />
<glyph unicode="&#xf6;" horiz-adv-x="1357" d="M881 1146q243 0 384 -172t99 -415q-44 -243 -245.5 -415t-444.5 -172q-242 0 -384 172t-98 415q42 243 244.5 415t444.5 172zM563.5 819q-126.5 -108 -153.5 -260t61.5 -259t241.5 -107q152 0 279 107t153 259q27 152 -61.5 260t-240.5 108q-153 0 -279.5 -108z M843.5 1438q37.5 -43 25.5 -105q-11 -63 -63 -106.5t-113 -43.5q-62 0 -98 43.5t-24 106.5q11 62 62 105t113 43q60 0 97.5 -43zM1231 1438q37 -43 26 -105q-12 -63 -64 -106.5t-113 -43.5t-97 43.5t-25 106.5q11 62 62 105t113 43q61 0 98 -43z" />
<glyph unicode="&#xf7;" horiz-adv-x="1145" d="M129 754h888v-213h-888v213zM678 1045.5q44 -43.5 44 -105.5t-44 -105.5t-105 -43.5q-62 0 -106 43.5t-44 105.5t44 105.5t106 43.5q61 0 105 -43.5zM678 459.5q44 -43.5 44 -105.5q0 -63 -44 -106t-105 -43q-62 0 -106 43t-44 106q0 62 44 105.5t106 43.5 q61 0 105 -43.5z" />
<glyph unicode="&#xf8;" horiz-adv-x="1356" d="M929 925q-5 2 -89 2q-151 0 -277.5 -107.5t-153.5 -259.5t50 -258zM624 196q5 -2 88 -2q152 0 278.5 107t152.5 259q27 152 -61 260zM321 108l-31 38q-142 172 -99 414q43 243 245 414.5t444 171.5q138 0 194 -29l152 202l173 -97l-166 -208l31 -40q141 -171 98 -414 q-43 -242 -244.5 -414t-444.5 -172q-137 0 -193 30l-152 -202l-176 92z" />
<glyph unicode="&#xf9;" horiz-adv-x="1196" d="M600 -14q-200 0 -301 122.5t-71 306.5l113 645h214l-112 -637q-17 -91 39 -157t156 -66q91 0 170 65.5t95 157.5l113 637h213l-114 -645q-36 -184 -179 -307q-144 -122 -336 -122zM964 1162h-203l-230 287h260z" />
<glyph unicode="&#xfa;" horiz-adv-x="1196" d="M600 -14q-200 0 -301 122.5t-71 306.5l113 645h214l-112 -637q-17 -91 39 -157t156 -66q91 0 170 65.5t95 157.5l113 637h213l-114 -645q-36 -184 -179 -307q-144 -122 -336 -122zM916 1449h259l-330 -287h-203z" />
<glyph unicode="&#xfb;" horiz-adv-x="1196" d="M600 -14q-200 0 -301 122.5t-71 306.5l113 645h214l-112 -637q-17 -91 39 -157t156 -66q91 0 170 65.5t95 157.5l113 637h213l-114 -645q-36 -184 -179 -307q-144 -122 -336 -122zM904 1213l-80 85l-106 -85h-226l284 245h151l205 -245h-228z" />
<glyph unicode="&#xfc;" horiz-adv-x="1196" d="M600 -14q-200 0 -301 122.5t-71 306.5l113 645h214l-112 -637q-17 -91 39 -157t156 -66q91 0 170 65.5t95 157.5l113 637h213l-114 -645q-36 -184 -179 -307q-144 -122 -336 -122zM762.5 1438q36.5 -43 26.5 -105q-11 -63 -63 -106.5t-113 -43.5q-62 0 -98 43.5 t-25 106.5q11 62 62.5 105t112.5 43t97.5 -43zM1150 1438q37 -43 26 -105q-11 -63 -63 -106.5t-113 -43.5q-62 0 -98 43.5t-24 106.5q10 62 61.5 105t113.5 43q60 0 97 -43z" />
<glyph unicode="&#xfd;" horiz-adv-x="1173" d="M352 -356h-225l386 592l-249 824h240l167 -580l370 580h239zM903 1449h260l-331 -287h-203z" />
<glyph unicode="&#xfe;" horiz-adv-x="1415" d="M451 476q3 -97 68 -176q90 -108 241 -108q153 0 279 107.5t154 259.5q27 153 -62.5 260t-241.5 107t-278 -107q-94 -79 -130 -177zM397 163l-92 -518h-213l353 2003h213l-123 -699q189 195 393 195q243 0 384 -171t99 -414q-43 -242 -244.5 -413.5t-445.5 -171.5 q-204 0 -324 189z" />
<glyph unicode="&#xff;" horiz-adv-x="1173" d="M352 -356h-225l386 592l-249 824h240l167 -580l370 580h239zM750.5 1438q36.5 -43 26.5 -105q-12 -63 -64 -106.5t-113 -43.5t-97 43.5t-25 106.5q10 62 61.5 105t113.5 43q61 0 97.5 -43zM1137.5 1438q36.5 -43 26.5 -105q-11 -63 -63 -106.5t-113 -43.5q-62 0 -98 43.5 t-25 106.5q11 62 62 105t113 43q61 0 97.5 -43z" />
<glyph unicode="&#x100;" horiz-adv-x="1417" d="M990 796l-73 386l-208 -386h281zM1057 1648l309 -1648h-227l-109 583h-437l-314 -583h-227l889 1648h116zM782 2068h584l-38 -213h-584z" />
<glyph unicode="&#x101;" horiz-adv-x="1443" d="M1158 480l28 157q-2 99 -67 181q-90 107 -241 107q-153 0 -279 -107t-153 -260q-27 -151 61.5 -258.5t241.5 -107.5q151 0 278 107q95 81 131 181zM1247 986l13 74h214l-186 -1061h-215l24 133q-183 -160 -387 -160q-243 0 -384.5 171.5t-97.5 414.5q42 243 244 414.5 t445 171.5q204 0 330 -158zM677 1480h584l-37 -213h-584z" />
<glyph unicode="&#x102;" horiz-adv-x="1417" d="M990 796l-73 386l-208 -386h281zM1057 1648l309 -1648h-227l-109 583h-437l-314 -583h-227l889 1648h116zM977 2044q0 -64 14 -80q21 -27 60 -27q37 0 69 28q17 15 39 79h195q-44 -127 -115 -188q-98 -84 -217 -84q-121 0 -190 84q-53 65 -49 188h194z" />
<glyph unicode="&#x103;" horiz-adv-x="1443" d="M1158 480l28 157q-2 99 -67 181q-90 107 -241 107q-153 0 -279 -107t-153 -260q-27 -151 61.5 -258.5t241.5 -107.5q151 0 278 107q95 81 131 181zM1247 986l13 74h214l-186 -1061h-215l24 133q-183 -160 -387 -160q-243 0 -384.5 171.5t-97.5 414.5q42 243 244 414.5 t445 171.5q204 0 330 -158zM873 1455q0 -63 14 -79q21 -27 60 -27q37 0 69 28q17 15 39 78h195q-44 -126 -115 -187q-98 -85 -217 -85q-121 0 -190 85q-53 65 -49 187h194z" />
<glyph unicode="&#x104;" horiz-adv-x="1417" d="M990 796l-73 386l-208 -386h281zM1125 77l-95 506h-437l-314 -583h-227l889 1648h116l309 -1648h-160q-66 -73 -74 -123q-3 -16 1 -29q8 -39 40 -39q38 0 108 53l32 -158q-134 -51 -199 -51q-97 0 -147 68q-39 55 -26 134q4 17 9 36q32 99 175 186z" />
<glyph unicode="&#x105;" horiz-adv-x="1443" d="M1158 480l28 157q-2 99 -67 181q-90 107 -241 107q-153 0 -279 -107t-153 -260q-27 -151 61.5 -258.5t241.5 -107.5q151 0 278 107q95 81 131 181zM1085 62l12 70q-183 -160 -387 -160q-243 0 -384.5 171.5t-97.5 414.5q42 243 244 414.5t445 171.5q204 0 330 -158l13 74 h214l-186 -1061h-99q-65 -73 -74 -122q-3 -16 2 -29q8 -39 40 -39q38 0 108 53l32 -158q-134 -51 -199 -51q-98 0 -147 68q-39 55 -26 134q3 17 8 36q30 90 152 171z" />
<glyph unicode="&#x106;" horiz-adv-x="1691" d="M1499 392l134 -143q-339 -267 -666 -267q-349 0 -552 246.5t-141 595.5q61 348 351 595.5t639 247.5q326 0 571 -267l-185 -145q-185 195 -424 195q-259 0 -475 -183t-262 -443q-46 -261 105.5 -444t409.5 -183q239 0 495 195zM1280 2037h260l-331 -287h-203z" />
<glyph unicode="&#x107;" horiz-adv-x="1299" d="M1058 364l200 -77q-97 -108 -138 -143q-203 -172 -446 -172q-242 0 -384 172t-98 415q42 243 244.5 415t444.5 172q243 0 385 -172q29 -35 88 -141l-227 -78q-32 50 -44 65q-88 107 -240 107t-278.5 -107.5t-153.5 -260.5q-27 -151 61.5 -258.5t240.5 -107.5t279 107 q16 14 66 64zM968 1449h260l-332 -287h-203z" />
<glyph unicode="&#x108;" horiz-adv-x="1691" d="M1499 392l134 -143q-339 -267 -666 -267q-349 0 -552 246.5t-141 595.5q61 348 351 595.5t639 247.5q326 0 571 -267l-185 -145q-185 195 -424 195q-259 0 -475 -183t-262 -443q-46 -261 105.5 -444t409.5 -183q239 0 495 195zM1269 1801l-80 85l-106 -85h-226l283 246 h152l205 -246h-228z" />
<glyph unicode="&#x109;" horiz-adv-x="1299" d="M1058 364l200 -77q-97 -108 -138 -143q-203 -172 -446 -172q-242 0 -384 172t-98 415q42 243 244.5 415t444.5 172q243 0 385 -172q29 -35 88 -141l-227 -78q-32 50 -44 65q-88 107 -240 107t-278.5 -107.5t-153.5 -260.5q-27 -151 61.5 -258.5t240.5 -107.5t279 107 q16 14 66 64zM956 1213l-79 85l-108 -85h-225l283 245h151l205 -245h-227z" />
<glyph unicode="&#x10a;" horiz-adv-x="1691" d="M1499 392l134 -143q-339 -267 -666 -267q-349 0 -552 246.5t-141 595.5q61 348 351 595.5t639 247.5q326 0 571 -267l-185 -145q-185 195 -424 195q-259 0 -475 -183t-262 -443q-46 -261 105.5 -444t409.5 -183q239 0 495 195zM1312.5 2028q33.5 -39 23.5 -97 q-10 -57 -57 -96.5t-103 -39.5t-89.5 39.5t-23.5 96.5q10 58 57 97t104 39q55 0 88.5 -39z" />
<glyph unicode="&#x10b;" horiz-adv-x="1299" d="M1058 364l200 -77q-97 -108 -138 -143q-203 -172 -446 -172q-242 0 -384 172t-98 415q42 243 244.5 415t444.5 172q243 0 385 -172q29 -35 88 -141l-227 -78q-32 50 -44 65q-88 107 -240 107t-278.5 -107.5t-153.5 -260.5q-27 -151 61.5 -258.5t240.5 -107.5t279 107 q16 14 66 64zM1000 1440q33 -39 23 -97q-11 -58 -57.5 -97t-102.5 -39q-57 0 -90 39t-23 97t57.5 97t104.5 39q55 0 88 -39z" />
<glyph unicode="&#x10c;" horiz-adv-x="1691" d="M1499 392l134 -143q-339 -267 -666 -267q-349 0 -552 246.5t-141 595.5q61 348 351 595.5t639 247.5q326 0 571 -267l-185 -145q-185 195 -424 195q-259 0 -475 -183t-262 -443q-46 -261 105.5 -444t409.5 -183q239 0 495 195zM1540 2047l-292 -246h-151l-197 246h226 l76 -85l110 85h228z" />
<glyph unicode="&#x10d;" horiz-adv-x="1299" d="M1058 364l200 -77q-97 -108 -138 -143q-203 -172 -446 -172q-242 0 -384 172t-98 415q42 243 244.5 415t444.5 172q243 0 385 -172q29 -35 88 -141l-227 -78q-32 50 -44 65q-88 107 -240 107t-278.5 -107.5t-153.5 -260.5q-27 -151 61.5 -258.5t240.5 -107.5t279 107 q16 14 66 64zM1227 1458l-292 -245h-151l-197 245h226l77 -84l109 84h228z" />
<glyph unicode="&#x10e;" horiz-adv-x="1287" d="M620 1431l-214 -1215q254 0 446 164q215 183 261 444q46 260 -105 444q-134 163 -388 163zM602 1648q401 -2 586 -228q202 -248 141 -596q-62 -349 -352 -596q-264 -226 -666 -228h-157l291 1648h157zM1349 2047l-291 -246h-152l-196 246h225l77 -85l110 85h227z" />
<glyph unicode="&#x10f;" horiz-adv-x="1667" d="M1159 480l28 158q-1 99 -68 181q-88 108 -240 108q-153 0 -279.5 -108t-153.5 -260t61.5 -259t241.5 -107q152 0 278 107q96 81 132 180zM1248 987l117 661h214l-290 -1648h-215l23 132q-182 -160 -387 -160q-243 0 -384.5 172t-97.5 415q42 243 244 415t445 172 q205 0 331 -159zM1649 1404q-35 43 -25 106q12 62 63.5 105t112.5 43t97.5 -43t25.5 -105q-5 -33 -24 -64l-150 -225h-195z" />
<glyph unicode="&#x110;" horiz-adv-x="1287" d="M318 930l127 718h157q401 -2 586 -228q202 -248 141 -596q-62 -349 -352 -596q-264 -226 -666 -228h-157l127 718h-196l38 212h195zM531 930h358l-37 -212h-358l-88 -502q254 0 446 164q216 183 261 444q47 260 -105 444q-134 163 -388 163z" />
<glyph unicode="&#x111;" horiz-adv-x="1443" d="M1159 480l28 158q-1 99 -68 181q-88 108 -240 108q-153 0 -279.5 -108t-153.5 -260t61.5 -259t241.5 -107q152 0 278 107q96 81 132 180zM1511 1262l-222 -1262h-215l23 132q-182 -160 -387 -160q-243 0 -384.5 172t-97.5 415q42 243 244 415t445 172q205 0 331 -159 l49 275h-480l37 212h480l31 174h214l-31 -174h175l-37 -212h-175z" />
<glyph unicode="&#x112;" horiz-adv-x="1171" d="M1333 1648l-37 -213h-675l-90 -504h675l-37 -213h-675l-88 -504h674l-38 -214h-888l291 1648h888zM672 2068h584l-39 -213h-584z" />
<glyph unicode="&#x113;" horiz-adv-x="1299" d="M526 240q46 -47 187 -47q152 0 279 107q16 14 66 64l200 -77q-97 -108 -138 -143q-203 -172 -446 -172q-242 0 -384 172t-98 415q42 243 244.5 415t444.5 172q208 0 343 -125q21 -22 42 -47q8 -10 47 -65l-126 -108zM999 899q-31 28 -156 28q-152 0 -278.5 -107.5 t-153.5 -260.5q-23 -124 -1 -161zM619 1480h584l-38 -213h-584z" />
<glyph unicode="&#x114;" horiz-adv-x="1171" d="M1333 1648l-37 -213h-675l-90 -504h675l-37 -213h-675l-88 -504h674l-38 -214h-888l291 1648h888zM867 2044q0 -64 14 -80q21 -27 59 -27q37 0 69 28q18 15 40 79h195q-44 -127 -115 -188q-98 -84 -217 -84q-121 0 -190 84q-54 65 -49 188h194z" />
<glyph unicode="&#x115;" horiz-adv-x="1299" d="M526 240q46 -47 187 -47q152 0 279 107q16 14 66 64l200 -77q-97 -108 -138 -143q-203 -172 -446 -172q-242 0 -384 172t-98 415q42 243 244.5 415t444.5 172q208 0 343 -125q21 -22 42 -47q8 -10 47 -65l-126 -108zM999 899q-31 28 -156 28q-152 0 -278.5 -107.5 t-153.5 -260.5q-23 -124 -1 -161zM816 1455q0 -63 12 -79q22 -27 60 -27q37 0 69 28q18 15 40 78h196q-46 -126 -117 -187q-98 -85 -217 -85q-120 0 -189 85q-53 65 -49 187h195z" />
<glyph unicode="&#x116;" horiz-adv-x="1171" d="M1333 1648l-37 -213h-675l-90 -504h675l-37 -213h-675l-88 -504h674l-38 -214h-888l291 1648h888zM1052.5 2028q33.5 -39 22.5 -97q-10 -57 -57 -96.5t-102 -39.5q-57 0 -90.5 39.5t-23.5 96.5q11 58 57.5 97t103.5 39q56 0 89.5 -39z" />
<glyph unicode="&#x117;" horiz-adv-x="1299" d="M526 240q46 -47 187 -47q152 0 279 107q16 14 66 64l200 -77q-97 -108 -138 -143q-203 -172 -446 -172q-242 0 -384 172t-98 415q42 243 244.5 415t444.5 172q208 0 343 -125q21 -22 42 -47q8 -10 47 -65l-126 -108zM999 899q-31 28 -156 28q-152 0 -278.5 -107.5 t-153.5 -260.5q-23 -124 -1 -161zM1000 1440q33 -39 23 -97q-11 -58 -57.5 -97t-102.5 -39q-57 0 -90 39t-23 97t57.5 97t104.5 39q55 0 88 -39z" />
<glyph unicode="&#x118;" horiz-adv-x="1171" d="M699 0h-545l291 1648h888l-37 -213h-675l-90 -504h675l-37 -213h-675l-88 -504h674l-38 -214h-159q-66 -73 -74 -123q-4 -16 1 -29q8 -39 40 -39q38 0 108 53l32 -158q-134 -51 -199 -51q-98 0 -147 68q-39 55 -26 134q3 17 8 36q19 56 73 109z" />
<glyph unicode="&#x119;" horiz-adv-x="1299" d="M999 899q-31 28 -156 28q-152 0 -278.5 -107.5t-153.5 -260.5q-23 -124 -1 -161zM750 -24q-38 -4 -76 -4q-242 0 -384 172t-98 415q42 243 244.5 415t444.5 172q208 0 343 -125q21 -22 42 -47q8 -10 47 -65l-126 -108l-661 -561q46 -47 187 -47q152 0 279 107 q16 14 66 64l200 -77q-97 -108 -138 -143q-36 -31 -74 -55q-152 -136 -165 -213q-3 -16 1 -29q8 -39 40 -39q38 0 108 53l32 -158q-135 -51 -200 -51q-98 0 -146 68q-40 55 -26 134q3 17 8 36q15 44 52 86z" />
<glyph unicode="&#x11a;" horiz-adv-x="1171" d="M1333 1648l-37 -213h-675l-90 -504h675l-37 -213h-675l-88 -504h674l-38 -214h-888l291 1648h888zM1279 2047l-291 -246h-152l-196 246h225l76 -85l111 85h227z" />
<glyph unicode="&#x11b;" horiz-adv-x="1299" d="M526 240q46 -47 187 -47q152 0 279 107q16 14 66 64l200 -77q-97 -108 -138 -143q-203 -172 -446 -172q-242 0 -384 172t-98 415q42 243 244.5 415t444.5 172q208 0 343 -125q21 -22 42 -47q8 -10 47 -65l-126 -108zM999 899q-31 28 -156 28q-152 0 -278.5 -107.5 t-153.5 -260.5q-23 -124 -1 -161zM1227 1458l-292 -245h-151l-197 245h226l77 -84l109 84h228z" />
<glyph unicode="&#x11c;" horiz-adv-x="1718" d="M1591 226q-296 -244 -624 -244q-349 0 -552 246.5t-141 595.5q61 348 351 595.5t639 247.5q326 0 571 -267l-185 -145q-185 195 -424 195q-259 0 -475 -183t-262 -443q-46 -261 105.5 -444t409.5 -183q223 0 390 117l88 498h213zM1269 1801l-80 85l-106 -85h-226l283 246 h152l205 -246h-228z" />
<glyph unicode="&#x11d;" horiz-adv-x="1447" d="M1187 642q-4 98 -68 177q-89 108 -241 108q-153 0 -279.5 -108t-152.5 -260q-28 -152 61 -259.5t242 -107.5q152 0 278 107q93 79 130 175zM1248 987l13 73h214l-139 -788q-55 -309 -251 -477q-199 -151 -442 -151t-389 151q-28 35 -87 142l225 76q33 -49 45 -63 q89 -108 241 -108q254 0 411 334q-134 -194 -377 -194t-385.5 167t-98.5 410q42 243 244 414.5t445 171.5q205 0 331 -158zM1015 1213l-81 85l-106 -85h-225l283 245h151l205 -245h-227z" />
<glyph unicode="&#x11e;" horiz-adv-x="1718" d="M1591 226q-296 -244 -624 -244q-349 0 -552 246.5t-141 595.5q61 348 351 595.5t639 247.5q326 0 571 -267l-185 -145q-185 195 -424 195q-259 0 -475 -183t-262 -443q-46 -261 105.5 -444t409.5 -183q223 0 390 117l88 498h213zM1128 2044q0 -64 12 -80q23 -27 61 -27 q37 0 69 28q18 15 39 79h196q-45 -127 -116 -188q-98 -84 -218 -84t-188 84q-54 65 -50 188h195z" />
<glyph unicode="&#x11f;" horiz-adv-x="1447" d="M1187 642q-4 98 -68 177q-89 108 -241 108q-153 0 -279.5 -108t-152.5 -260q-28 -152 61 -259.5t242 -107.5q152 0 278 107q93 79 130 175zM1248 987l13 73h214l-139 -788q-55 -309 -251 -477q-199 -151 -442 -151t-389 151q-28 35 -87 142l225 76q33 -49 45 -63 q89 -108 241 -108q254 0 411 334q-134 -194 -377 -194t-385.5 167t-98.5 410q42 243 244 414.5t445 171.5q205 0 331 -158zM873 1455q0 -63 14 -79q21 -27 60 -27q37 0 69 28q17 15 39 78h195q-44 -126 -115 -187q-98 -85 -217 -85q-121 0 -190 85q-53 65 -49 187h194z" />
<glyph unicode="&#x120;" horiz-adv-x="1718" d="M1591 226q-296 -244 -624 -244q-349 0 -552 246.5t-141 595.5q61 348 351 595.5t639 247.5q326 0 571 -267l-185 -145q-185 195 -424 195q-259 0 -475 -183t-262 -443q-46 -261 105.5 -444t409.5 -183q223 0 390 117l88 498h213zM1312.5 2028q33.5 -39 23.5 -97 q-10 -57 -57 -96.5t-103 -39.5t-89.5 39.5t-23.5 96.5q10 58 57 97t104 39q55 0 88.5 -39z" />
<glyph unicode="&#x121;" horiz-adv-x="1447" d="M1187 642q-4 98 -68 177q-89 108 -241 108q-153 0 -279.5 -108t-152.5 -260q-28 -152 61 -259.5t242 -107.5q152 0 278 107q93 79 130 175zM1248 987l13 73h214l-139 -788q-55 -309 -251 -477q-199 -151 -442 -151t-389 151q-28 35 -87 142l225 76q33 -49 45 -63 q89 -108 241 -108q254 0 411 334q-134 -194 -377 -194t-385.5 167t-98.5 410q42 243 244 414.5t445 171.5q205 0 331 -158zM1058.5 1440q33.5 -39 23.5 -97q-11 -58 -58 -97t-102 -39q-57 0 -90.5 39t-22.5 97q10 58 57 97t103 39t89.5 -39z" />
<glyph unicode="&#x122;" horiz-adv-x="1718" d="M802 -2q-234 45 -387 231q-203 246 -141 595q61 348 351 595.5t639 247.5q326 0 571 -267l-185 -145q-185 195 -424 195q-259 0 -475 -183t-262 -443q-46 -261 105.5 -444t409.5 -183q223 0 390 117l88 498h213l-104 -586q-296 -244 -624 -244h-19l-16 -27q69 -39 82 -92 q2 -14 3 -28q0 -13 -2 -27q-9 -44 -47 -83q-62 -61 -162 -75q-20 -3 -46 -3q-60 0 -150 15l58 130q55 -27 92 -27q6 0 11 1q32 4 48 36q4 7 6 16v8q-1 29 -84 58z" />
<glyph unicode="&#x123;" horiz-adv-x="1447" d="M1187 642q-4 98 -68 177q-89 108 -241 108q-153 0 -279.5 -108t-152.5 -260q-28 -152 61 -259.5t242 -107.5q152 0 278 107q93 79 130 175zM1248 987l13 73h214l-139 -788q-55 -309 -251 -477q-199 -151 -442 -151t-389 151q-28 35 -87 142l225 76q33 -49 45 -63 q89 -108 241 -108q254 0 411 334q-134 -194 -377 -194t-385.5 167t-98.5 410q42 243 244 414.5t445 171.5q205 0 331 -158zM1071 1475q36 -43 25 -106q-10 -62 -61.5 -105t-113.5 -43q-61 0 -97.5 43t-26.5 105q6 33 24 64l151 225h195z" />
<glyph unicode="&#x124;" horiz-adv-x="1244" d="M488 682l-120 -682h-214l291 1648h213l-133 -753h509l133 753h213l-290 -1648h-213l120 682h-509zM1032 1801l-80 85l-106 -85h-226l283 246h152l205 -246h-228z" />
<glyph unicode="&#x125;" horiz-adv-x="1158" d="M445 1648h214l-123 -702q119 172 289 172t250.5 -122.5t50.5 -306.5l-122 -689h-213l121 681q15 91 -25 156.5t-153 65.5q-132 0 -231 -142l-134 -761h-215zM1032 1801l-80 85l-106 -85h-226l283 246h152l205 -246h-228z" />
<glyph unicode="&#x126;" horiz-adv-x="1244" d="M1307 1230l-217 -1230h-213l120 682h-509l-120 -682h-214l218 1230h-142l37 212h142l36 206h213l-36 -206h509l36 206h213l-36 -206h142l-37 -212h-142zM585 1230l-60 -335h509l60 335h-509z" />
<glyph unicode="&#x127;" horiz-adv-x="1158" d="M414 1474l31 174h214l-31 -174h460l-37 -212h-460l-55 -316q119 172 289 172t250.5 -122.5t50.5 -306.5l-122 -689h-213l121 681q15 91 -25 156.5t-153 65.5q-132 0 -231 -142l-134 -761h-215l223 1262h-144l37 212h144z" />
<glyph unicode="&#x128;" d="M679 1648l-291 -1648h-213l291 1648h213zM741 1945v-1q30 0 38 40q4 27 -1 71h191q-79 -227 -198 -260q-29 -8 -58 -8q-76 0 -127 58.5t-80 58.5h-4q-31 -2 -38 -40q-5 -25 3 -68h-193q79 227 199 260q30 8 58 8q76 0 129.5 -59.5t80.5 -59.5z" />
<glyph unicode="&#x129;" d="M576 1061l-188 -1061h-213l188 1061h213zM637 1357v-2q30 0 38 41q5 26 -1 71h191q-79 -227 -197 -260q-30 -8 -59 -8q-76 0 -126.5 58.5t-79.5 58.5h-4q-32 -2 -39 -40q-5 -26 3 -68h-193q80 227 199 260q31 8 59 8q76 0 129 -59.5t80 -59.5z" />
<glyph unicode="&#x12a;" d="M679 1648l-291 -1648h-213l291 1648h213zM354 2068h584l-37 -213h-584z" />
<glyph unicode="&#x12b;" d="M576 1061l-188 -1061h-213l188 1061h213zM250 1480h584l-37 -213h-584z" />
<glyph unicode="&#x12c;" d="M679 1648l-291 -1648h-213l291 1648h213zM551 2044q0 -64 12 -80q23 -27 61 -27q37 0 68 28q19 15 40 79h196q-45 -127 -115 -188q-99 -84 -219 -84t-188 84q-54 65 -50 188h195z" />
<glyph unicode="&#x12d;" d="M576 1061l-188 -1061h-213l188 1061h213zM447 1455q0 -63 13 -79q22 -27 60 -27q37 0 69 28q18 15 39 78h196q-45 -126 -115 -187q-98 -85 -218 -85t-189 85q-54 65 -50 187h195z" />
<glyph unicode="&#x12e;" d="M194 103l272 1545h213l-291 -1648h-158q-66 -73 -76 -123q-3 -16 2 -29q9 -39 41 -39q38 0 108 53l32 -158q-135 -51 -200 -51q-98 0 -147 68q-39 55 -26 134q3 17 9 36q36 114 221 212z" />
<glyph unicode="&#x12f;" horiz-adv-x="557" d="M640.5 1452.5q36.5 -43.5 25.5 -106.5t-63 -106t-114 -43q-61 0 -97.5 43t-24.5 106q10 63 62 106.5t113 43.5q62 0 98.5 -43.5zM185 75l174 985h214l-188 -1060h-115q-66 -73 -75 -123q-3 -16 1 -29q9 -39 41 -39q38 0 108 53l32 -158q-135 -51 -200 -51q-98 0 -147 68 q-39 55 -26 134q3 17 9 36q31 98 172 184z" />
<glyph unicode="&#x131;" d="M576 1061l-188 -1061h-213l188 1061h213z" />
<glyph unicode="&#x132;" horiz-adv-x="1529" d="M679 1648l-291 -1648h-213l291 1648h213zM1431 353q-30 -171 -140 -265q-118 -101 -260 -101q-141 0 -223 100t-52 267l180 66q1 -156 39 -192q28 -28 84 -28h4q59 1 104 38q36 32 53 125l226 1285h213z" />
<glyph unicode="&#x133;" horiz-adv-x="1135" d="M572 1060l-187 -1060h-213l186 1060h214zM640.5 1452.5q36.5 -43.5 24.5 -106.5q-10 -63 -62 -106t-114 -43q-61 0 -97.5 43t-25.5 106t63 106.5t113 43.5q62 0 98.5 -43.5zM606 -10q117 12 128 72l175 998h214l-175 -996q-47 -261 -379 -286zM1191.5 1452.5 q36.5 -43.5 24.5 -106.5q-10 -63 -62 -106t-114 -43q-60 0 -97 43t-26 106t63 106.5t113 43.5q62 0 98.5 -43.5z" />
<glyph unicode="&#x134;" horiz-adv-x="965" d="M866 353q-30 -171 -140 -265q-117 -101 -259 -101t-223.5 100t-51.5 267l180 66q1 -156 39 -192q28 -28 83 -28h5q58 1 104 38q36 32 52 125l227 1285h213zM1083 1801l-81 85l-106 -85h-225l283 246h151l205 -246h-227z" />
<glyph unicode="&#x135;" horiz-adv-x="705" d="M152 -10q118 12 129 72l176 998h214l-177 -996q-46 -261 -379 -286zM664 1183l-79 85l-107 -85h-226l284 246h151l205 -246h-228z" />
<glyph unicode="&#x136;" horiz-adv-x="1242" d="M505 778l-137 -778h-214l291 1648h213l-92 -519l482 519h269l-625 -678l459 -970h-259l-370 795zM693 18l-35 -63q70 -39 83 -92l2 -28q0 -13 -2 -27q-8 -44 -47 -83q-61 -61 -161 -75q-20 -3 -46 -3q-60 0 -151 15l58 130q55 -27 92 -27q6 0 11 1q33 4 48 36q4 7 6 16v8 q-1 29 -84 58l73 134h153z" />
<glyph unicode="&#x137;" horiz-adv-x="972" d="M995 1060l-349 -354l275 -706h-255l-195 528l-11 -11l-91 -517h-215l258 1457h214l-106 -599l200 202h275zM646 18l-35 -63q70 -39 82 -92l2 -28q0 -13 -2 -27q-7 -44 -46 -83q-61 -61 -162 -75q-19 -3 -45 -3q-60 0 -152 15l59 130q55 -27 92 -27q6 0 11 1q33 4 47 36 q5 7 7 16v8q-1 29 -85 58l73 134h154z" />
<glyph unicode="&#x138;" horiz-adv-x="971" d="M995 1061l-349 -355l274 -706h-255l-194 529l-12 -11l-91 -518h-214l188 1061h213l-36 -203l201 203h275z" />
<glyph unicode="&#x139;" horiz-adv-x="1049" d="M154 0l291 1648h213l-252 -1434h589l-38 -214h-803zM969 1995h196l-262 -287h-152z" />
<glyph unicode="&#x13a;" horiz-adv-x="523" d="M660 1649l-290 -1649h-214l290 1649h214zM661 1995h195l-261 -287h-152z" />
<glyph unicode="&#x13b;" horiz-adv-x="1049" d="M502 0h-348l291 1648h213l-252 -1434h589l-38 -214h-302l-26 -45q70 -39 83 -92l2 -28q0 -13 -2 -27q-7 -44 -47 -83q-60 -61 -161 -75q-20 -3 -46 -3q-59 0 -151 15l59 130q54 -27 91 -27q7 0 12 1q33 4 47 36q4 7 6 16v8q-1 29 -84 58z" />
<glyph unicode="&#x13c;" horiz-adv-x="523" d="M193 0h-37l290 1649h214l-290 -1649h-25l-25 -45q69 -39 82 -92q2 -14 3 -28q0 -13 -2 -27q-9 -44 -47 -83q-61 -61 -161 -75q-21 -3 -47 -3q-59 0 -150 15l59 130q54 -27 91 -27q6 0 12 1q33 4 47 36q4 7 6 16v8q-1 29 -84 58z" />
<glyph unicode="&#x13d;" horiz-adv-x="984" d="M131 0l290 1648h215l-253 -1434h579l-38 -214h-793zM877 1404q-35 43 -25 106q11 62 62.5 105t113.5 43q61 0 97.5 -43t25.5 -105q-6 -33 -23 -64l-152 -225h-194z" />
<glyph unicode="&#x13e;" horiz-adv-x="699" d="M636 1648l-291 -1648h-214l290 1648h215zM671 1404q-35 43 -25 106q11 62 62.5 105t113.5 43q61 0 97.5 -43t25.5 -105q-6 -33 -23 -64l-152 -225h-194z" />
<glyph unicode="&#x13f;" horiz-adv-x="984" d="M131 0l290 1648h215l-253 -1434h579l-38 -214h-793zM1002.5 920.5q33.5 -39.5 23.5 -96.5t-57 -96.5t-103 -39.5q-55 0 -89 39.5t-24 96.5t57.5 96.5t103.5 39.5q55 0 88.5 -39.5z" />
<glyph unicode="&#x140;" horiz-adv-x="612" d="M620 1648l-290 -1648h-215l291 1648h214zM786 920.5q34 -39.5 24 -96.5q-11 -57 -58 -96.5t-102 -39.5q-57 0 -90.5 39.5t-22.5 96.5q10 57 57 96.5t103 39.5q55 0 89 -39.5z" />
<glyph unicode="&#x141;" horiz-adv-x="1069" d="M598 947l494 351l-48 -266l-493 -351l-82 -467h579l-38 -214h-793l89 506l-248 -176l46 265l249 176l155 877h214z" />
<glyph unicode="&#x142;" horiz-adv-x="532" d="M310 860l139 788h214l-108 -614l182 130l-47 -266l-182 -131l-135 -767h-214l104 593l-182 -129l47 265z" />
<glyph unicode="&#x143;" horiz-adv-x="1397" d="M445 1648h195l472 -1176l207 1176h215l-291 -1648h-186l-479 1191l-210 -1191h-214zM1121 2037h259l-330 -287h-203z" />
<glyph unicode="&#x144;" horiz-adv-x="1173" d="M506 776l-137 -776h-215l187 1060h214l-21 -124q98 182 300 182q172 0 252.5 -122.5t50.5 -306.5l-121 -689h-214l121 681q15 91 -40 156.5t-148 65.5q-91 0 -170 -64q-44 -38 -59 -63zM903 1449h260l-331 -287h-203z" />
<glyph unicode="&#x145;" horiz-adv-x="1397" d="M445 1648h195l472 -1176l207 1176h215l-291 -1648h-186l-479 1191l-210 -1191h-214zM806 18l-34 -63q70 -39 82 -92q2 -14 2 -28q1 -13 -1 -27q-8 -44 -47 -83q-61 -61 -161 -75q-21 -3 -47 -3q-59 0 -150 15l59 130q53 -27 90 -27q7 0 12 1q33 4 48 36q4 7 5 16q1 4 1 8 q-1 29 -84 58l72 134h153z" />
<glyph unicode="&#x146;" horiz-adv-x="1173" d="M506 776l-137 -776h-215l187 1060h214l-21 -124q98 182 300 182q172 0 252.5 -122.5t50.5 -306.5l-121 -689h-214l121 681q15 91 -40 156.5t-148 65.5q-91 0 -170 -64q-44 -38 -59 -63zM693 18l-35 -63q70 -39 83 -92l2 -28q0 -13 -2 -27q-8 -44 -47 -83 q-61 -61 -161 -75q-20 -3 -46 -3q-60 0 -151 15l58 130q55 -27 92 -27q6 0 11 1q33 4 48 36q4 7 6 16v8q-1 29 -84 58l73 134h153z" />
<glyph unicode="&#x147;" horiz-adv-x="1397" d="M445 1648h195l472 -1176l207 1176h215l-291 -1648h-186l-479 1191l-210 -1191h-214zM1379 2047l-291 -246h-152l-196 246h225l77 -85l110 85h227z" />
<glyph unicode="&#x148;" horiz-adv-x="1173" d="M506 776l-137 -776h-215l187 1060h214l-21 -124q98 182 300 182q172 0 252.5 -122.5t50.5 -306.5l-121 -689h-214l121 681q15 91 -40 156.5t-148 65.5q-91 0 -170 -64q-44 -38 -59 -63zM1162 1458l-292 -245h-151l-197 245h226l77 -84l109 84h228z" />
<glyph unicode="&#x149;" horiz-adv-x="1173" d="M506 776l-137 -776h-215l187 1060h214l-21 -124q98 182 300 182q172 0 252.5 -122.5t50.5 -306.5l-121 -689h-214l121 681q15 91 -40 156.5t-148 65.5q-91 0 -170 -64q-44 -38 -59 -63zM156 1404q-35 43 -24 106q10 62 61.5 105t113.5 43q61 0 97.5 -43t26.5 -105 q-7 -33 -24 -64l-152 -225h-194z" />
<glyph unicode="&#x14a;" horiz-adv-x="1397" d="M1038 46l-460 1145l-210 -1191h-214l291 1648h195l471 -1175l97 552h1l110 623h215l-291 -1648h-4q-50 -239 -280 -343l-93 126q146 114 168 232q3 21 4 31z" />
<glyph unicode="&#x14b;" horiz-adv-x="1170" d="M915 645l7 36q15 91 -40 156.5t-147 65.5q-91 0 -170 -64q-45 -38 -60 -63l-137 -776h-214l188 1061h213l-22 -125q89 182 281 182q150 0 251 -122.5t71 -306.5l-121 -689h-6q-53 -206 -270 -348l-108 131q130 80 174 246l109 616h1z" />
<glyph unicode="&#x14c;" horiz-adv-x="1945" d="M1820 1422.5q204 -247.5 142 -596.5t-353 -596.5t-640 -247.5t-552.5 247.5t-141.5 596.5t352.5 596.5t639.5 247.5t553 -247.5zM1229 1454q-261 0 -477 -183.5t-262 -444.5t106 -445t411 -184q261 0 477.5 184t262.5 445q45 261 -106.5 444.5t-411.5 183.5zM1045 2068 h584l-38 -213h-584z" />
<glyph unicode="&#x14d;" horiz-adv-x="1357" d="M881 1146q243 0 384 -172t99 -415q-44 -243 -245.5 -415t-444.5 -172q-242 0 -384 172t-98 415q42 243 244.5 415t444.5 172zM563.5 819q-126.5 -108 -153.5 -260t61.5 -259t241.5 -107q152 0 279 107t153 259q27 152 -61.5 260t-240.5 108q-153 0 -279.5 -108zM648 1480 h584l-38 -213h-584z" />
<glyph unicode="&#x14e;" horiz-adv-x="1945" d="M1820 1422.5q204 -247.5 142 -596.5t-353 -596.5t-640 -247.5t-552.5 247.5t-141.5 596.5t352.5 596.5t639.5 247.5t553 -247.5zM1229 1454q-261 0 -477 -183.5t-262 -444.5t106 -445t411 -184q261 0 477.5 184t262.5 445q45 261 -106.5 444.5t-411.5 183.5zM1242 2044 q0 -64 13 -80q22 -27 60 -27q37 0 68 28q19 15 40 79h196q-45 -127 -115 -188q-99 -84 -219 -84t-188 84q-54 65 -49 188h194z" />
<glyph unicode="&#x14f;" horiz-adv-x="1357" d="M881 1146q243 0 384 -172t99 -415q-44 -243 -245.5 -415t-444.5 -172q-242 0 -384 172t-98 415q42 243 244.5 415t444.5 172zM563.5 819q-126.5 -108 -153.5 -260t61.5 -259t241.5 -107q152 0 279 107t153 259q27 152 -61.5 260t-240.5 108q-153 0 -279.5 -108zM845 1455 q0 -63 12 -79q22 -27 60 -27q37 0 69 28q18 15 40 78h196q-46 -126 -117 -187q-98 -85 -217 -85q-121 0 -190 85q-52 65 -48 187h195z" />
<glyph unicode="&#x150;" horiz-adv-x="1945" d="M1820 1422.5q204 -247.5 142 -596.5t-353 -596.5t-640 -247.5t-552.5 247.5t-141.5 596.5t352.5 596.5t639.5 247.5t553 -247.5zM1229 1454q-261 0 -477 -183.5t-262 -444.5t106 -445t411 -184q261 0 477.5 184t262.5 445q45 261 -106.5 444.5t-411.5 183.5zM1360 2063 l-277 -279h-191l143 279h325zM1731 2063l-277 -279h-190l143 279h324z" />
<glyph unicode="&#x151;" horiz-adv-x="1357" d="M881 1146q243 0 384 -172t99 -415q-44 -243 -245.5 -415t-444.5 -172q-242 0 -384 172t-98 415q42 243 244.5 415t444.5 172zM563.5 819q-126.5 -108 -153.5 -260t61.5 -259t241.5 -107q152 0 279 107t153 259q27 152 -61.5 260t-240.5 108q-153 0 -279.5 -108zM962 1475 l-277 -279h-191l144 279h324zM1334 1475l-277 -279h-191l143 279h325z" />
<glyph unicode="&#x152;" horiz-adv-x="2325" d="M1786 1435q189 -244 156 -504h419l-38 -213h-421q-58 -259 -333 -504h665l-38 -214h-1008q-119 -18 -255 -18q-349 0 -552.5 247.5t-141.5 596.5t352.5 596.5t639.5 247.5q137 0 248 -22h1007l-37 -213h-663zM1716 864q31 235 -110 407q-56 67 -125 109q-35 21 -71 36 q-97 38 -217 38q-261 0 -477 -183.5t-262 -444.5t106 -445t411 -184q121 0 231 38q41 15 83 37q84 41 164 109q199 170 254 404q4 19 8 41q3 20 5 38z" />
<glyph unicode="&#x153;" horiz-adv-x="2249" d="M1369 599q-2 -19 -5 -40q-5 -24 -12 -49q-9 -84 8 -112l589 501q-31 28 -157 28q-151 0 -278 -107q-110 -94 -145 -221zM1134 513q3 23 7 46t10 46q7 122 -67 214q-89 108 -241 108q-153 0 -279.5 -108t-153.5 -260t61.5 -259t241.5 -107q152 0 279 107q107 90 142 213z M1192 214q-34 -36 -73 -70q-202 -172 -445 -172q-242 0 -384 172t-98 415q42 243 244.5 415t444.5 172q243 0 384 -172q28 -34 48 -70q33 36 73 70q202 172 444 172q208 0 343 -125q22 -22 43 -47q8 -10 47 -65l-127 -108l-660 -561q45 -47 186 -47q153 0 280 107 q16 14 65 64l200 -77q-97 -108 -138 -143q-203 -172 -446 -172q-242 0 -383 172q-28 34 -48 70z" />
<glyph unicode="&#x154;" horiz-adv-x="1206" d="M620 1434l-121 -692h194q142 0 261.5 101.5t144.5 245.5q26 143 -58 244t-226 101h-195zM655 527h-195l-92 -527h-214l291 1648h468q194 -27 307 -164q134 -165 93 -395q-40 -233 -234 -398q-132 -113 -195 -128l267 -563h-259zM1074 2037h260l-331 -287h-203z" />
<glyph unicode="&#x155;" horiz-adv-x="713" d="M529 917q149 161 324 170l-39 -222q-118 -6 -199 -75q-122 -103 -151 -245l-96 -545h-214l187 1060h213zM726 1449h260l-331 -287h-203z" />
<glyph unicode="&#x156;" horiz-adv-x="1206" d="M620 1434l-121 -692h194q142 0 261.5 101.5t144.5 245.5q26 143 -58 244t-226 101h-195zM655 527h-195l-92 -527h-214l291 1648h468q194 -27 307 -164q134 -165 93 -395q-40 -233 -234 -398q-132 -113 -195 -128l267 -563h-259zM751 -137q2 -14 2 -28q1 -13 -1 -27 q-8 -44 -47 -83q-61 -61 -161 -75q-21 -3 -47 -3q-59 0 -150 15l59 130q53 -27 90 -27q7 0 12 1q33 4 48 36q4 7 5 16q1 4 1 8q-1 29 -84 58l72 134q185 -61 201 -155z" />
<glyph unicode="&#x157;" horiz-adv-x="713" d="M530 917q149 161 324 170l-39 -222q-118 -6 -199 -75q-122 -103 -151 -245l-96 -545h-213l186 1060h213zM597 -137l2 -28q0 -13 -2 -27q-7 -44 -46 -83q-61 -61 -162 -75q-19 -3 -45 -3q-60 0 -151 15l58 130q55 -27 92 -27q6 0 11 1q33 4 48 36q4 7 6 16v8q-1 29 -85 58 l74 134q185 -61 200 -155z" />
<glyph unicode="&#x158;" horiz-adv-x="1206" d="M620 1434l-121 -692h194q142 0 261.5 101.5t144.5 245.5q26 143 -58 244t-226 101h-195zM655 527h-195l-92 -527h-214l291 1648h468q194 -27 307 -164q134 -165 93 -395q-40 -233 -234 -398q-132 -113 -195 -128l267 -563h-259zM1333 2047l-292 -246h-151l-197 246h226 l77 -85l109 85h228z" />
<glyph unicode="&#x159;" horiz-adv-x="713" d="M530 917q149 161 324 170l-39 -222q-118 -6 -199 -75q-122 -103 -151 -245l-96 -545h-213l186 1060h213zM986 1458l-292 -245h-151l-197 245h226l77 -84l109 84h228z" />
<glyph unicode="&#x15a;" horiz-adv-x="1134" d="M723 846q-165 58 -254.5 167t-60.5 269q28 158 160.5 271.5t293.5 113.5q159 0 252 -113q53 -62 73 -196l-207 -77q-19 95 -43 124q-42 49 -113 49q-72 0 -131.5 -50t-71.5 -122t29 -122q46 -56 139 -102q182 -63 294 -198q124 -149 87 -363q-38 -213 -215.5 -364 t-390.5 -151t-336 152q-99 120 -94 333l220 75q-12 -183 51 -259q73 -88 198 -88q124 0 228 88.5t127 213.5q22 125 -52 214q-69 84 -183 135zM989 2037h259l-330 -287h-203z" />
<glyph unicode="&#x15b;" horiz-adv-x="908" d="M409 228q32 -37 84 -37q53 0 97 37t54 91q9 53 -22 90q-20 26 -96 79q-104 63 -144 111q-70 85 -48 203q20 120 119.5 205t219.5 85q119 0 184 -81q47 -56 50 -126l-217 -60q-3 26 -9 34q-15 19 -45 19q-31 0 -57.5 -22.5t-31.5 -53.5q-6 -31 12 -52q17 -19 78 -63 q115 -70 162 -128q83 -101 58 -240q-25 -142 -142.5 -242.5t-259.5 -100.5q-141 0 -222 101q-58 69 -61 172l220 46q1 -48 17 -67zM783 1449h259l-331 -287h-203z" />
<glyph unicode="&#x15c;" horiz-adv-x="1134" d="M723 846q-165 58 -254.5 167t-60.5 269q28 158 160.5 271.5t293.5 113.5q159 0 252 -113q53 -62 73 -196l-207 -77q-19 95 -43 124q-42 49 -113 49q-72 0 -131.5 -50t-71.5 -122t29 -122q46 -56 139 -102q182 -63 294 -198q124 -149 87 -363q-38 -213 -215.5 -364 t-390.5 -151t-336 152q-99 120 -94 333l220 75q-12 -183 51 -259q73 -88 198 -88q124 0 228 88.5t127 213.5q22 125 -52 214q-69 84 -183 135zM976 1801l-79 85l-107 -85h-226l284 246h151l205 -246h-228z" />
<glyph unicode="&#x15d;" horiz-adv-x="908" d="M409 228q32 -37 84 -37q53 0 97 37t54 91q9 53 -22 90q-20 26 -96 79q-104 63 -144 111q-70 85 -48 203q20 120 119.5 205t219.5 85q119 0 184 -81q47 -56 50 -126l-217 -60q-3 26 -9 34q-15 19 -45 19q-31 0 -57.5 -22.5t-31.5 -53.5q-6 -31 12 -52q17 -19 78 -63 q115 -70 162 -128q83 -101 58 -240q-25 -142 -142.5 -242.5t-259.5 -100.5q-141 0 -222 101q-58 69 -61 172l220 46q1 -48 17 -67zM770 1213l-79 85l-107 -85h-226l284 245h151l205 -245h-228z" />
<glyph unicode="&#x15e;" horiz-adv-x="1134" d="M505 -14q-171 19 -277 148q-99 120 -94 333l220 75q-12 -183 51 -259q73 -88 198 -88q124 0 228 88.5t127 213.5q22 125 -52 214q-69 84 -183 135q-165 58 -254.5 167t-60.5 269q28 158 160.5 271.5t293.5 113.5q159 0 252 -113q53 -62 73 -196l-207 -77q-19 95 -43 124 q-42 49 -113 49q-72 0 -131.5 -50t-71.5 -122t29 -122q46 -56 139 -102q182 -63 294 -198q124 -149 87 -363q-38 -213 -215 -363q-137 -118 -295 -143l-19 -36q69 -39 81 -92q2 -14 2 -28q1 -13 -1 -27q-8 -44 -47 -83q-61 -61 -162 -75q-20 -3 -45 -3q-60 0 -151 15l59 130 q54 -27 91 -27q6 0 11 1q33 4 48 36q4 7 6 16q1 4 1 8q-1 29 -85 58z" />
<glyph unicode="&#x15f;" horiz-adv-x="908" d="M400 -20q-102 17 -167 97q-58 69 -61 172l220 46q1 -48 17 -67q32 -37 84 -37q53 0 97 37t54 91q9 53 -22 90q-20 26 -96 79q-104 63 -144 111q-70 85 -48 203q20 120 119.5 205t219.5 85q119 0 184 -81q47 -56 50 -126l-217 -60q-3 26 -9 34q-15 19 -45 19 q-31 0 -57.5 -22.5t-31.5 -53.5q-6 -31 12 -52q17 -19 78 -63q115 -70 162 -128q83 -101 58 -240q-25 -142 -142 -242q-73 -64 -157 -86l-19 -36q69 -39 81 -92l2 -28q1 -13 -1 -27q-8 -44 -47 -83q-61 -61 -162 -75q-20 -3 -45 -3q-60 0 -152 15l60 130q54 -27 91 -27 q6 0 11 1q33 4 47 36q6 7 7 16q1 4 1 8q-2 29 -86 58z" />
<glyph unicode="&#x160;" horiz-adv-x="1134" d="M723 846q-165 58 -254.5 167t-60.5 269q28 158 160.5 271.5t293.5 113.5q159 0 252 -113q53 -62 73 -196l-207 -77q-19 95 -43 124q-42 49 -113 49q-72 0 -131.5 -50t-71.5 -122t29 -122q46 -56 139 -102q182 -63 294 -198q124 -149 87 -363q-38 -213 -215.5 -364 t-390.5 -151t-336 152q-99 120 -94 333l220 75q-12 -183 51 -259q73 -88 198 -88q124 0 228 88.5t127 213.5q22 125 -52 214q-69 84 -183 135zM1247 2047l-291 -246h-152l-196 246h225l78 -85l109 85h227z" />
<glyph unicode="&#x161;" horiz-adv-x="908" d="M409 228q32 -37 84 -37q53 0 97 37t54 91q9 53 -22 90q-20 26 -96 79q-104 63 -144 111q-70 85 -48 203q20 120 119.5 205t219.5 85q119 0 184 -81q47 -56 50 -126l-217 -60q-3 26 -9 34q-15 19 -45 19q-31 0 -57.5 -22.5t-31.5 -53.5q-6 -31 12 -52q17 -19 78 -63 q115 -70 162 -128q83 -101 58 -240q-25 -142 -142.5 -242.5t-259.5 -100.5q-141 0 -222 101q-58 69 -61 172l220 46q1 -48 17 -67zM1041 1458l-291 -245h-152l-196 245h225l78 -84l109 84h227z" />
<glyph unicode="&#x162;" horiz-adv-x="1085" d="M488 0h-52l252 1435h-384l38 213h983l-39 -213h-384l-252 -1435h-9l-25 -45q69 -39 81 -92q2 -14 3 -28q0 -13 -2 -27q-8 -44 -46 -83q-62 -61 -162 -75q-20 -3 -46 -3q-60 0 -150 15l58 130q55 -27 92 -27q6 0 11 1q33 4 48 36q4 7 6 16v8q-1 29 -85 58z" />
<glyph unicode="&#x163;" horiz-adv-x="780" d="M336 0h-53l150 847h-191l37 213h191l70 397h213l-70 -397h190l-37 -213h-190l-150 -847h-8l-24 -45q69 -39 81 -92q2 -14 3 -28q0 -13 -2 -27q-8 -44 -46 -83q-62 -61 -162 -75q-21 -3 -47 -3q-59 0 -150 15l59 130q54 -27 91 -27q7 0 12 1q33 4 47 36q4 7 6 16v8 q-1 29 -84 58z" />
<glyph unicode="&#x164;" horiz-adv-x="1085" d="M903 1435l-253 -1435h-214l253 1435h-384l37 213h983l-37 -213h-385zM1224 2047l-292 -246h-151l-197 246h226l77 -85l109 85h228z" />
<glyph unicode="&#x165;" horiz-adv-x="780" d="M470 1060l71 397h213l-71 -397h190l-37 -213h-190l-150 -847h-213l150 847h-191l37 213h191zM877 1404q-35 43 -24 106q10 62 61.5 105t113.5 43q61 0 97.5 -43t26.5 -105q-7 -33 -24 -64l-152 -225h-194z" />
<glyph unicode="&#x166;" horiz-adv-x="1085" d="M600 930l89 505h-384l37 213h983l-37 -213h-385l-88 -505h224l-38 -212h-224l-127 -718h-214l126 718h-224l38 212h224z" />
<glyph unicode="&#x167;" horiz-adv-x="656" d="M343 689l28 158h-191l38 213h191l70 397h213l-70 -397h191l-38 -213h-191l-28 -158h191l-37 -212h-191l-84 -477h-214l85 477h-191l37 212h191z" />
<glyph unicode="&#x168;" horiz-adv-x="1429" d="M1351 1648h215l-205 -1161q-63 -199 -223 -336q-193 -164 -425 -164t-367.5 164t-94.5 396l194 1101h214l-193 -1101q-26 -142 58 -243.5t227 -101.5q144 0 262.5 101t144.5 244zM1173 1945v-1q31 0 38 40q5 27 -1 71h192q-78 -227 -197 -260q-31 -8 -60 -8 q-76 0 -126.5 58.5t-79.5 58.5h-4q-32 -2 -38 -40q-5 -25 2 -68h-192q80 227 198 260q31 8 60 8q75 0 128 -59.5t80 -59.5z" />
<glyph unicode="&#x169;" horiz-adv-x="1196" d="M600 -14q-200 0 -301 122.5t-71 306.5l113 645h214l-112 -637q-17 -91 39 -157t156 -66q91 0 170 65.5t95 157.5l113 637h213l-114 -645q-36 -184 -179 -307q-144 -122 -336 -122zM953 1357v-2q31 0 38 41q5 26 -1 71h191q-79 -227 -196 -260q-31 -8 -60 -8 q-76 0 -127 58.5t-80 58.5h-4q-31 -2 -38 -40q-4 -26 3 -68h-193q80 227 199 260q31 8 60 8q75 0 128 -59.5t80 -59.5z" />
<glyph unicode="&#x16a;" horiz-adv-x="1429" d="M1351 1648h215l-205 -1161q-63 -199 -223 -336q-193 -164 -425 -164t-367.5 164t-94.5 396l194 1101h214l-193 -1101q-26 -142 58 -243.5t227 -101.5q144 0 262.5 101t144.5 244zM788 2068h584l-38 -213h-584z" />
<glyph unicode="&#x16b;" horiz-adv-x="1196" d="M600 -14q-200 0 -301 122.5t-71 306.5l113 645h214l-112 -637q-17 -91 39 -157t156 -66q91 0 170 65.5t95 157.5l113 637h213l-114 -645q-36 -184 -179 -307q-144 -122 -336 -122zM566 1480h585l-38 -213h-584z" />
<glyph unicode="&#x16c;" horiz-adv-x="1429" d="M1351 1648h215l-205 -1161q-63 -199 -223 -336q-193 -164 -425 -164t-367.5 164t-94.5 396l194 1101h214l-193 -1101q-26 -142 58 -243.5t227 -101.5q144 0 262.5 101t144.5 244zM984 2044q0 -64 13 -80q22 -27 60 -27q37 0 69 28q17 15 39 79h196q-45 -127 -116 -188 q-98 -84 -217 -84q-121 0 -190 84q-53 65 -49 188h195z" />
<glyph unicode="&#x16d;" horiz-adv-x="1196" d="M600 -14q-200 0 -301 122.5t-71 306.5l113 645h214l-112 -637q-17 -91 39 -157t156 -66q91 0 170 65.5t95 157.5l113 637h213l-114 -645q-36 -184 -179 -307q-144 -122 -336 -122zM763 1455q0 -63 14 -79q21 -27 59 -27q37 0 69 28q18 15 40 78h195q-45 -126 -115 -187 q-98 -85 -217 -85q-121 0 -190 85q-54 65 -49 187h194z" />
<glyph unicode="&#x16e;" horiz-adv-x="1429" d="M1351 1648h215l-205 -1161q-63 -199 -223 -336q-193 -164 -425 -164t-367.5 164t-94.5 396l194 1101h214l-193 -1101q-26 -142 58 -243.5t227 -101.5q144 0 262.5 101t144.5 244zM1185.5 1964.5q42.5 -51.5 28.5 -124.5q-12 -73 -72 -124.5t-134 -51.5q-73 0 -115 51.5 t-30 124.5q14 73 74 124.5t134 51.5q72 0 114.5 -51.5zM1032 1782q23 0 42 16t23 40q5 28 -8.5 44t-35.5 16q-29 0 -48 -16t-24 -44q-5 -24 8.5 -40t42.5 -16z" />
<glyph unicode="&#x16f;" horiz-adv-x="1196" d="M600 -14q-200 0 -301 122.5t-71 306.5l113 645h214l-112 -637q-17 -91 39 -157t156 -66q91 0 170 65.5t95 157.5l113 637h213l-114 -645q-36 -184 -179 -307q-144 -122 -336 -122zM965 1376.5q42 -51.5 29 -125.5q-12 -72 -72.5 -123.5t-133.5 -51.5t-115.5 51.5 t-29.5 123.5q13 74 73.5 125.5t133.5 51.5t115 -51.5zM811 1194q22 0 41.5 16t24.5 39q5 29 -9 45t-37 16q-29 0 -47.5 -16t-23.5 -45q-4 -23 9 -39t42 -16z" />
<glyph unicode="&#x170;" horiz-adv-x="1429" d="M1351 1648h215l-205 -1161q-63 -199 -223 -336q-193 -164 -425 -164t-367.5 164t-94.5 396l194 1101h214l-193 -1101q-26 -142 58 -243.5t227 -101.5q144 0 262.5 101t144.5 244zM1102 2063l-277 -279h-191l144 279h324zM1474 2063l-277 -279h-191l143 279h325z" />
<glyph unicode="&#x171;" horiz-adv-x="1196" d="M600 -14q-200 0 -301 122.5t-71 306.5l113 645h214l-112 -637q-17 -91 39 -157t156 -66q91 0 170 65.5t95 157.5l113 637h213l-114 -645q-36 -184 -179 -307q-144 -122 -336 -122zM882 1475l-277 -279h-191l143 279h325zM1254 1475l-278 -279h-190l143 279h325z" />
<glyph unicode="&#x172;" horiz-adv-x="1429" d="M686 -12q-213 8 -341 163q-135 164 -94 396l194 1101h214l-193 -1101q-26 -142 58 -243.5t227 -101.5q144 0 262.5 101t144.5 244l193 1101h215l-205 -1161q-63 -199 -223 -336q-114 -97 -243 -137q-84 -88 -94 -144q-3 -16 1 -30q9 -38 41 -38q38 0 108 53l32 -158 q-135 -51 -200 -51q-98 0 -146 68q-40 55 -26 134q3 17 8 36q18 53 67 104z" />
<glyph unicode="&#x173;" horiz-adv-x="1196" d="M623 -14h-23q-200 0 -301 122.5t-71 306.5l113 645h214l-112 -637q-17 -91 39 -157t156 -66q91 0 170 65.5t95 157.5l113 637h213l-114 -645q-36 -184 -179 -307q-15 -12 -31 -25q-146 -130 -158 -206q-3 -16 0 -29q9 -39 41 -39q38 0 108 53l32 -158q-135 -51 -200 -51 q-98 0 -146 68q-40 55 -26 134q3 17 8 36q16 49 59 95z" />
<glyph unicode="&#x174;" horiz-adv-x="1736" d="M816 308l236 1340h213l-236 -1340q7 -18 27 -43q55 -64 147 -64t170.5 65.5t94.5 156.5l216 1225h214l-217 -1233q-35 -174 -181 -299q-152 -129 -334 -129q-181 0 -278 127q-141 -127 -323 -127t-287 129q-104 124 -76 299l217 1233h213l-216 -1225q-15 -91 40 -156.5 t147 -65.5t169 64q31 25 44 43zM1278 1801l-80 85l-106 -85h-226l283 246h152l205 -246h-228z" />
<glyph unicode="&#x175;" horiz-adv-x="1460" d="M678 314l131 746h213l-128 -728q-10 -57 21.5 -94.5t83.5 -37.5q127 0 155 157l123 703h214l-130 -743q-29 -136 -140 -230q-119 -101 -260 -101q-142 0 -216 98q-112 -98 -253 -98q-142 0 -223 101q-78 94 -59 230l131 743h213l-123 -703q-28 -157 99 -157q53 0 98 37 q37 32 50 77zM1036 1213l-80 85l-106 -85h-226l283 245h152l205 -245h-228z" />
<glyph unicode="&#x176;" horiz-adv-x="1456" d="M737 661l-395 987h245l299 -746l563 746h246l-744 -987l-117 -661h-213zM1138 1801l-80 85l-106 -85h-226l283 246h152l205 -246h-228z" />
<glyph unicode="&#x177;" horiz-adv-x="1173" d="M352 -356h-225l386 592l-249 824h240l167 -580l370 580h239zM892 1213l-80 85l-106 -85h-226l283 245h152l205 -245h-228z" />
<glyph unicode="&#x178;" horiz-adv-x="1456" d="M737 661l-395 987h245l299 -746l563 746h246l-744 -987l-117 -661h-213zM996.5 2026q36.5 -43 26.5 -105q-12 -63 -64 -106t-112 -43q-62 0 -98 43t-25 106q10 62 61.5 105t113.5 43q61 0 97.5 -43zM1383.5 2026q36.5 -43 26.5 -105q-11 -63 -63 -106t-113 -43 q-62 0 -98 43t-25 106q11 62 62.5 105t112.5 43t97.5 -43z" />
<glyph unicode="&#x179;" horiz-adv-x="1506" d="M1236 1435h-781l37 213h1150l-1082 -1434h783l-38 -214h-1151zM1174 2037h260l-331 -287h-203z" />
<glyph unicode="&#x17a;" horiz-adv-x="1158" d="M786 847h-436l37 213h804l-632 -846h473l-38 -214h-840zM897 1449h260l-331 -287h-203z" />
<glyph unicode="&#x17b;" horiz-adv-x="1506" d="M1236 1435h-781l37 213h1150l-1082 -1434h783l-38 -214h-1151zM1206.5 2028q33.5 -39 23.5 -97q-10 -57 -57 -96.5t-103 -39.5t-89.5 39.5t-23.5 96.5q10 58 57 97t104 39q55 0 88.5 -39z" />
<glyph unicode="&#x17c;" horiz-adv-x="1158" d="M786 847h-436l37 213h804l-632 -846h473l-38 -214h-840zM929.5 1440q33.5 -39 23.5 -97q-11 -58 -57.5 -97t-102.5 -39q-57 0 -90 39t-23 97t57 97t103 39t89.5 -39z" />
<glyph unicode="&#x17d;" horiz-adv-x="1506" d="M1236 1435h-781l37 213h1150l-1082 -1434h783l-38 -214h-1151zM1434 2047l-292 -246h-151l-197 246h226l76 -85l110 85h228z" />
<glyph unicode="&#x17e;" horiz-adv-x="1158" d="M786 847h-436l37 213h804l-632 -846h473l-38 -214h-840zM1157 1458l-292 -245h-151l-197 245h226l76 -84l110 84h228z" />
<glyph unicode="&#x17f;" horiz-adv-x="559" d="M342 0h-214l220 1251q32 131 140 226q114 91 240 91q64 0 188 -46l-107 -202q-84 40 -109 40q-42 0 -88 -36q-40 -34 -51 -82z" />
<glyph unicode="&#x192;" horiz-adv-x="557" d="M340 0h-1l-2 -12q-71 -333 -462 -333l37 208q184 0 213 126l151 857h-95l38 214h95l33 191q31 131 140 226q113 91 239 91q65 0 188 -46l-108 -202q-83 40 -107 40q-42 0 -89 -36q-40 -34 -51 -82l-32 -182h191l-38 -214h-191z" />
<glyph unicode="&#x1fa;" horiz-adv-x="1386" d="M986 806l-81 394l-219 -394h300zM973 1568q16 0 31 13t18 29q5 26 -6 39t-26 13q-27 0 -42.5 -13t-19.5 -39q-3 -16 8 -29t37 -13zM943 1786l133 150h370l-319 -193q43 -55 30 -129t-77 -142l302 -1472h-226l-128 593h-459l-342 -593h-228l827 1471q-43 69 -31 143 q14 75 76 128q45 38 72 44z" />
<glyph unicode="&#x1fb;" horiz-adv-x="1443" d="M1158 480l28 157q-2 99 -67 181q-90 107 -241 107q-153 0 -279 -107t-153 -260q-27 -151 61.5 -258.5t241.5 -107.5q151 0 278 107q95 81 131 181zM921 1194q22 0 42 16t24 39q5 29 -9 45t-37 16q-28 0 -46.5 -16t-24.5 -45q-4 -23 9 -39t42 -16zM1033 1130 q126 -34 214 -144l13 74h214l-186 -1061h-215l24 133q-183 -160 -387 -160q-243 0 -384.5 171.5t-97.5 414.5q42 243 244 415q144 122 309 157q-40 51 -28 121q13 74 74 125q33 29 70 41h-74l274 288h260l-331 -288h-7q33 -12 56 -41q43 -51 29 -125q-12 -71 -71 -121z" />
<glyph unicode="&#x1fc;" horiz-adv-x="1766" d="M1929 1648l-37 -213h-675l-89 -504h674l-37 -213h-674l-89 -504h675l-38 -214h-888l103 583h-200l-352 -583h-261l991 1594l9 54h888zM937 1059l-159 -263h113zM1262 2037h259l-330 -287h-203z" />
<glyph unicode="&#x1fd;" horiz-adv-x="2206" d="M1131 735q-18 45 -49 84q-89 107 -242 107q-151 0 -277 -107t-154 -260q-27 -152 62 -259t241 -107t278 108q47 39 78 82q37 49 55 98l28 157q-2 49 -20 97zM1991 758l-49 61q-89 107 -241 107q-153 0 -279 -107q-26 -23 -32 -29l-6 -32h607zM1218 1022l7 39h213 q73 84 302 84q243 0 384 -172q126 -153 85 -429l-862 1l-38 -216q3 -7 21 -28q89 -108 242 -108q152 0 278 108q24 19 78 75l196 -73q-79 -101 -145 -158q-203 -171 -446 -171q-229 0 -277 54l-5 -28h-213l17 98q-176 -124 -382 -124q-242 0 -383.5 171.5t-98.5 413.5 q43 243 245 414.5t444 171.5q205 0 338 -123zM1420 1449h260l-331 -287h-203z" />
<glyph unicode="&#x1fe;" horiz-adv-x="1945" d="M1394 1438q-41 16 -165 16q-261 0 -477 -183.5t-262 -444.5t106 -445q55 -67 70 -76zM843 214q40 -17 164 -17q261 0 477.5 184t262.5 445q45 261 -105 445q-56 67 -71 76zM1696 1543q49 -29 125 -120q203 -248 141 -597t-353 -596.5t-640 -247.5q-169 0 -251 37 l-114 -179l-179 91l115 178q-48 29 -123 121q-204 247 -142 596t352.5 596.5t639.5 247.5q169 0 252 -36l116 178l177 -91zM1395 2037h259l-330 -287h-203z" />
<glyph unicode="&#x1ff;" horiz-adv-x="1356" d="M929 925q-5 2 -89 2q-151 0 -277.5 -107.5t-153.5 -259.5t50 -258zM624 196q5 -2 88 -2q152 0 278.5 107t152.5 259q27 152 -61 260zM321 108l-31 38q-142 172 -99 414q43 243 245 414.5t444 171.5q138 0 194 -29l152 202l173 -97l-166 -208l31 -40q141 -171 98 -414 q-43 -242 -244.5 -414t-444.5 -172q-137 0 -193 30l-152 -202l-176 92zM996 1449h260l-331 -287h-203z" />
<glyph unicode="&#x2c6;" horiz-adv-x="1097" d="M854 1213l-80 85l-107 -85h-225l283 245h152l205 -245h-228z" />
<glyph unicode="&#x2c7;" horiz-adv-x="1097" d="M1125 1458l-292 -245h-151l-197 245h226l77 -84l109 84h228z" />
<glyph unicode="&#x2d8;" horiz-adv-x="1007" d="M667 1455q0 -63 13 -79q22 -27 61 -27q37 0 69 28q17 15 39 78h195q-45 -126 -115 -187q-99 -85 -218 -85q-121 0 -189 85q-53 65 -49 187h194z" />
<glyph unicode="&#x2d9;" horiz-adv-x="531" d="M615.5 1440q33.5 -39 23.5 -97q-11 -58 -57.5 -97t-102.5 -39q-57 0 -90.5 39t-22.5 97q10 58 57 97t103 39t89.5 -39z" />
<glyph unicode="&#x2da;" horiz-adv-x="895" d="M816 1376.5q42 -51.5 29 -125.5q-13 -72 -73 -123.5t-133 -51.5q-74 0 -116 51.5t-30 123.5q14 74 74 125.5t133 51.5q74 0 116 -51.5zM661 1194q23 0 42.5 16t23.5 39q5 29 -8.5 45t-36.5 16q-29 0 -47.5 -16t-23.5 -45q-4 -23 8.5 -39t41.5 -16z" />
<glyph unicode="&#x2db;" horiz-adv-x="450" d="M377 107q-172 -148 -186 -230q-4 -16 1 -29q9 -39 41 -39q38 0 108 53l32 -158q-135 -51 -200 -51q-98 0 -147 68q-39 55 -26 134q3 17 9 36q43 133 285 244z" />
<glyph unicode="&#x2dc;" horiz-adv-x="958" d="M834 1357v-2q31 0 38 41q6 26 -1 71h192q-79 -227 -197 -260q-31 -8 -60 -8q-76 0 -126.5 58.5t-79.5 58.5h-4q-32 -2 -38 -40q-5 -26 2 -68h-192q80 227 198 260q31 8 60 8q75 0 128.5 -59.5t79.5 -59.5z" />
<glyph unicode="&#x2dd;" horiz-adv-x="841" d="M705 1475l-278 -279h-190l143 279h325zM1076 1475l-277 -279h-190l143 279h324z" />
<glyph unicode="&#x386;" horiz-adv-x="1417" d="M644 1449h259l-330 -287h-203zM1093 796l-73 386l-208 -386h281zM1160 1648l309 -1648h-227l-109 583h-437l-314 -583h-228l890 1648h116z" />
<glyph unicode="&#x388;" horiz-adv-x="1602" d="M582 1449h260l-331 -287h-203zM2161 1648l-38 -213h-675l-88 -504h674l-37 -213h-674l-90 -504h675l-38 -214h-887l290 1648h888z" />
<glyph unicode="&#x389;" horiz-adv-x="1675" d="M582 1449h260l-331 -287h-203zM1315 682l-119 -682h-213l290 1648h213l-133 -753h509l133 753h213l-290 -1648h-213l119 682h-509z" />
<glyph unicode="&#x38a;" horiz-adv-x="1184" d="M582 1449h260l-331 -287h-203zM1333 1648l-291 -1648h-214l291 1648h214z" />
<glyph unicode="&#x38c;" horiz-adv-x="2402" d="M582 1449h260l-331 -287h-203zM2164 1422.5q204 -247.5 142 -596.5t-352.5 -596.5t-639.5 -247.5t-553 247.5t-142 596.5t352.5 596.5t639.5 247.5t553 -247.5zM1574 1454q-261 0 -477 -183.5t-263 -444.5q-46 -261 106 -445t411 -184q261 0 477.5 184t262.5 445 t-105.5 444.5t-411.5 183.5z" />
<glyph unicode="&#x38e;" horiz-adv-x="1990" d="M582 1449h260l-331 -287h-203zM1566 661l-396 987h245l299 -746l563 746h247l-745 -987l-117 -661h-213z" />
<glyph unicode="&#x38f;" horiz-adv-x="1967" d="M530 1449h260l-331 -287h-203zM720 213q-46 33 -109 104q-176 196 -125 484q67 382 307 614.5t570 232.5h15q329 0 487 -232.5t91 -614.5q-52 -288 -296 -484q-87 -71 -146 -104h241l-37 -213h-534l36 200q143 54 310 204t212 397q52 301 -58.5 474t-346.5 173h-4 q-236 0 -408.5 -173t-225.5 -474q-44 -247 71.5 -397t239.5 -204l-35 -200h-534l37 213h242z" />
<glyph unicode="&#x390;" horiz-adv-x="551" d="M569 1061l-187 -1061h-213l186 1061h214zM889 1448.5q31 -35.5 22 -85.5q-10 -53 -53 -89t-93 -36t-81 36t-22 89q10 50 53 85.5t94 35.5q49 0 80 -35.5zM346.5 1448.5q30.5 -35.5 21.5 -85.5q-10 -53 -52.5 -89t-91.5 -36q-52 0 -82.5 36t-20.5 89q9 50 51.5 85.5 t94.5 35.5q49 0 79.5 -35.5zM540 1561h209l-243 -348h-164z" />
<glyph unicode="&#x391;" horiz-adv-x="1417" d="M990 796l-73 386l-208 -386h281zM1057 1648l309 -1648h-227l-109 583h-437l-314 -583h-227l889 1648h116z" />
<glyph unicode="&#x392;" horiz-adv-x="1159" d="M779 1648q143 0 227 -101.5t59 -244.5q-26 -147 -180 -182q104 -16 216 -153t70 -379q-43 -242 -244 -418q-188 -166 -350 -168v-2h-423l291 1648h334zM536 955l-130 -741h209v3q67 4 182 106q128 112 156 265q27 152 -62.5 259.5t-240.5 107.5h-114zM621 1435l-46 -261 h139q48 4 87 36q44 34 54 92t-22 95.5t-91 37.5h-121z" />
<glyph unicode="&#x393;" horiz-adv-x="949" d="M1214 1648l-38 -214h-579l-252 -1434h-214l290 1648h793z" />
<glyph unicode="&#x394;" horiz-adv-x="1365" d="M57 1h-92l891 1647h194l316 -1648h-1309v1zM1097 214l-207 1077l-584 -1077h791z" />
<glyph unicode="&#x395;" horiz-adv-x="1171" d="M1333 1648l-37 -213h-675l-90 -504h675l-37 -213h-675l-88 -504h674l-38 -214h-888l291 1648h888z" />
<glyph unicode="&#x396;" horiz-adv-x="1506" d="M1236 1435h-781l37 213h1150l-1082 -1434h783l-38 -214h-1151z" />
<glyph unicode="&#x397;" horiz-adv-x="1244" d="M488 682l-120 -682h-214l291 1648h213l-133 -753h509l133 753h213l-290 -1648h-213l120 682h-509z" />
<glyph unicode="&#x398;" horiz-adv-x="1831" d="M1762 1422.5q204 -247.5 142 -596.5q-61 -350 -352 -597.5t-640 -247.5q-350 0 -553 247.5t-142 597.5q62 349 352.5 596.5t639.5 247.5t553 -247.5zM1172 1454q-259 0 -476.5 -184t-262.5 -444q-47 -261 105 -445t412 -184q259 0 476 184t263 445q46 260 -105.5 444 t-411.5 184zM586 933h988l-37 -214h-988z" />
<glyph unicode="&#x399;" horiz-adv-x="498" d="M647 1648l-291 -1648h-214l291 1648h214z" />
<glyph unicode="&#x39a;" horiz-adv-x="1242" d="M505 778l-137 -778h-214l291 1648h213l-92 -519l482 519h269l-625 -678l459 -970h-259l-370 795z" />
<glyph unicode="&#x39b;" horiz-adv-x="1400" d="M1085 1648l316 -1648h-227l-249 1291l-698 -1290h-227l891 1647h194z" />
<glyph unicode="&#x39c;" horiz-adv-x="1866" d="M690 1648l372 -924l695 924h195l-291 -1648h-213l210 1191l-671 -890l-359 890l-210 -1191h-213l290 1648h195z" />
<glyph unicode="&#x39d;" horiz-adv-x="1397" d="M445 1648h195l472 -1176l207 1176h215l-291 -1648h-186l-479 1191l-210 -1191h-214z" />
<glyph unicode="&#x39e;" horiz-adv-x="1320" d="M330 933h987l-38 -214h-988zM349 1648h1203l-38 -214h-1203zM97 214h1203l-38 -214h-1203z" />
<glyph unicode="&#x39f;" horiz-adv-x="1945" d="M1820 1422.5q204 -247.5 142 -596.5t-353 -596.5t-640 -247.5t-552.5 247.5t-141.5 596.5t352.5 596.5t639.5 247.5t553 -247.5zM1229 1454q-261 0 -477 -183.5t-262 -444.5t106 -445t411 -184q261 0 477.5 184t262.5 445q45 261 -106.5 444.5t-411.5 183.5z" />
<glyph unicode="&#x3a0;" horiz-adv-x="1297" d="M576 1434l-253 -1434h-214l291 1648h1078l-290 -1648h-215l253 1434h-650z" />
<glyph unicode="&#x3a1;" horiz-adv-x="1179" d="M460 527l-92 -527h-214l291 1648h468q194 -27 307 -164q134 -165 93 -395q-40 -233 -233 -397.5t-425 -164.5h-195zM620 1434l-121 -692h194q142 0 261.5 101.5t144.5 245.5q26 143 -58 244t-226 101h-195z" />
<glyph unicode="&#x3a3;" horiz-adv-x="1273" d="M318 1648h1218l-38 -214h-925l395 -611l-610 -609h925l-38 -214h-1217l37 212l625 611l-409 613z" />
<glyph unicode="&#x3a4;" horiz-adv-x="1085" d="M903 1435l-253 -1435h-214l253 1435h-384l37 213h983l-37 -213h-385z" />
<glyph unicode="&#x3a5;" horiz-adv-x="1456" d="M737 661l-395 987h245l299 -746l563 746h246l-744 -987l-117 -661h-213z" />
<glyph unicode="&#x3a6;" horiz-adv-x="1837" d="M889 447l129 728q-207 -5 -377 -111q-172 -108 -198 -253q-25 -145 108 -252t338 -112zM1065 229l-40 -229h-214l40 229q-286 7 -467 163q-204 171 -159 421q43 248 306 419q237 154 525 162l45 254h214l-45 -254q286 -8 470 -162q203 -171 159 -419q-44 -250 -307 -421 q-238 -156 -527 -163zM1232 1175l-129 -728q208 5 379 112q172 107 197 252q26 145 -107 253q-133 106 -340 111z" />
<glyph unicode="&#x3a7;" horiz-adv-x="1387" d="M52 0l676 899l-300 749h246l214 -537l406 537h245l-566 -749l362 -899h-245l-276 687l-517 -687h-245z" />
<glyph unicode="&#x3a8;" horiz-adv-x="1878" d="M1103 336l-60 -336h-214l60 336q-285 8 -468 165q-191 171 -153 421l128 726h214l-129 -729q-26 -145 108 -253q133 -107 338 -112l193 1094h214l-193 -1094q208 5 379 112q171 108 209 321h6l116 661h213l-129 -730q-44 -247 -305 -418q-238 -156 -527 -164z" />
<glyph unicode="&#x3a9;" horiz-adv-x="1774" d="M528 213q-47 33 -110 104q-175 196 -124 484q68 382 307 614.5t569 232.5h16q328 0 486.5 -232.5t90.5 -614.5q-50 -288 -295 -484q-88 -71 -147 -104h243l-39 -213h-533l35 200q144 54 311.5 204t210.5 397q54 301 -57.5 474t-347.5 173h-4q-236 0 -408 -173t-225 -474 q-43 -247 72 -397t239 -204l-35 -200h-535l38 213h242z" />
<glyph unicode="&#x3aa;" horiz-adv-x="498" d="M647 1648l-291 -1648h-214l291 1648h214zM517.5 2026q36.5 -43 26.5 -105q-11 -63 -63.5 -106t-112.5 -43q-62 0 -98 43t-25 106q10 62 61.5 105t113.5 43q61 0 97.5 -43zM904.5 2026q36.5 -43 26.5 -105q-11 -63 -63 -106t-113 -43q-62 0 -98 43t-25 106q11 62 62.5 105 t113.5 43q60 0 96.5 -43z" />
<glyph unicode="&#x3ab;" horiz-adv-x="1456" d="M737 661l-395 987h245l299 -746l563 746h246l-744 -987l-117 -661h-213zM996.5 2026q36.5 -43 26.5 -105q-12 -63 -64 -106t-112 -43q-62 0 -98 43t-25 106q10 62 61.5 105t113.5 43q61 0 97.5 -43zM1383.5 2026q36.5 -43 26.5 -105q-11 -63 -63 -106t-113 -43 q-62 0 -98 43t-25 106q11 62 62.5 105t112.5 43t97.5 -43z" />
<glyph unicode="&#x3ac;" horiz-adv-x="1404" d="M1083 819q-89 108 -241 108t-278.5 -108t-153.5 -261q-27 -151 62 -258t241 -107t279 107q92 78 121 236q35 198 -30 283zM1268 969l64 91h212l-236 -530l50 -530h-213l-25 148v-2q-202 -173 -446 -173q-241 0 -383 172t-99 413q43 244 245.5 415.5t443.5 171.5 q244 0 384 -172q2 -2 3 -4zM1043 1449h260l-331 -287h-203z" />
<glyph unicode="&#x3ad;" horiz-adv-x="957" d="M654 858q-99 0 -149 -22.5t-55 -54.5q-12 -70 26 -101t52 -35h291l-37 -212h-293q-15 -3 -63.5 -34t-58.5 -91q-8 -38 34.5 -73.5t134.5 -35.5q107 4 200 69l138 -122q-192 -166 -374 -166q-163 0 -265 89t-73 251q29 164 132 221q-84 55 -53 230q30 167 161.5 236 t289.5 69q177 0 318 -156l-186 -109q-69 47 -170 47zM795 1449h260l-331 -287h-203z" />
<glyph unicode="&#x3ae;" horiz-adv-x="1046" d="M456 776l-137 -776h-214l188 1061h214l-24 -134q110 190 317 190t261 -122.5t26 -305.5l-185 -1044h-213l182 1035q17 92 -38 157.5t-147 65.5t-170 -65q-44 -37 -60 -62zM853 1449h259l-330 -287h-203z" />
<glyph unicode="&#x3af;" horiz-adv-x="551" d="M570 1061l-188 -1061h-213l187 1061h214zM593 1449h260l-331 -287h-203z" />
<glyph unicode="&#x3b0;" horiz-adv-x="1195" d="M600 -13q-201 0 -301.5 122t-70.5 306l113 645h213l-112 -637q-17 -91 39 -156q57 -66 157 -66q91 0 169.5 65.5t94.5 156.5l113 637h213l-114 -645q-36 -184 -179 -306q-144 -122 -335 -122zM1210.5 1448.5q30.5 -35.5 22.5 -85.5q-9 -53 -53 -89t-93 -36 q-51 0 -81.5 36t-20.5 89q8 50 51.5 85.5t94.5 35.5q49 0 79.5 -35.5zM668.5 1448.5q29.5 -35.5 21.5 -85.5q-9 -53 -52.5 -89t-92.5 -36q-52 0 -81.5 36t-20.5 89q8 50 51.5 85.5t94.5 35.5q50 0 79.5 -35.5zM862 1561h209l-243 -348h-164z" />
<glyph unicode="&#x3b1;" horiz-adv-x="1404" d="M1083 819q-89 108 -241 108t-278.5 -108t-153.5 -261q-27 -151 62 -258t241 -107t279 107q92 78 121 236q35 198 -30 283zM1268 969l64 91h212l-236 -530l50 -530h-213l-25 148v-2q-202 -173 -446 -173q-241 0 -383 172t-99 413q43 244 245.5 415.5t443.5 171.5 q244 0 384 -172q2 -2 3 -4z" />
<glyph unicode="&#x3b2;" horiz-adv-x="1123" d="M542 1062q137 2 183 20q47 17 109.5 72.5t76.5 126.5q12 72 -28.5 121t-111.5 49q-68 0 -123.5 -52t-72.5 -149zM505 852l-212 -1204h-215l285 1614q31 178 157.5 292.5t289.5 114.5q161 0 254.5 -114.5t65.5 -273.5q-34 -190 -299 -313q144 -2 229 -101 q119 -157 81 -370q-37 -215 -215 -366.5t-392 -151.5q-70 0 -110 26l127 194q10 -1 21 -1q124 0 227 87.5t125 211.5q23 126 -48.5 222t-246.5 130z" />
<glyph unicode="&#x3b3;" horiz-adv-x="1160" d="M478 52l-245 1008h239l170 -697l420 697h239l-604 -1003l-72 -411h-218z" />
<glyph unicode="&#x3b4;" horiz-adv-x="1337" d="M400 558q-27 -151 62 -258t240 -107q153 0 278.5 107t152.5 258q27 153 -61 261t-241 108q-151 0 -278 -108t-153 -261zM1277.5 945.5q117.5 -143.5 73.5 -387.5q-42 -241 -243 -413t-445 -172q-241 0 -382.5 172t-99.5 413q44 244 245 415q178 151 332 167l-326 508h876 l-38 -214h-412q139 -259 220.5 -302t199 -186.5z" />
<glyph unicode="&#x3b5;" horiz-adv-x="957" d="M654 858q-99 0 -149 -22.5t-55 -54.5q-12 -70 26 -101t52 -35h291l-37 -212h-293q-15 -3 -63.5 -34t-58.5 -91q-8 -38 34.5 -73.5t134.5 -35.5q107 4 200 69l138 -122q-192 -166 -374 -166q-163 0 -265 89t-73 251q29 164 132 221q-84 55 -53 230q30 167 161.5 236 t289.5 69q177 0 318 -156l-186 -109q-69 47 -170 47z" />
<glyph unicode="&#x3b6;" horiz-adv-x="984" d="M1276 1530q-693 -593 -840 -985q-22 -59 -31 -108q-40 -232 261 -242q326 -11 280 -275q-83 -229 -364 -238l39 219q105 0 113 38l1 3q7 37 -103 37q-518 12 -441 443q8 49 25 102q149 482 673 910h-480l38 214h851z" />
<glyph unicode="&#x3b7;" horiz-adv-x="1046" d="M456 776l-137 -776h-214l188 1061h214l-24 -134q110 190 317 190t261 -122.5t26 -305.5l-185 -1044h-213l182 1035q17 92 -38 157.5t-147 65.5t-170 -65q-44 -37 -60 -62z" />
<glyph unicode="&#x3b8;" horiz-adv-x="1357" d="M1189 811q53 302 -30 460t-228 158t-283.5 -158t-192.5 -460q-53 -303 30 -460.5t228 -157.5t283.5 157.5t192.5 460.5zM1407 811q-67 -380 -275 -609t-456 -229q-249 0 -377.5 228.5t-61.5 609.5q67 380 276.5 608.5t457.5 228.5q249 0 376 -228.5t60 -608.5zM527 918 h630l-38 -213h-630z" />
<glyph unicode="&#x3b9;" horiz-adv-x="551" d="M570 1061l-188 -1061h-213l187 1061h214z" />
<glyph unicode="&#x3ba;" horiz-adv-x="975" d="M1064 1061l-350 -355l275 -706h-254l-197 534l-135 -126l-72 -408h-215l188 1061h214l-57 -318l330 318h273z" />
<glyph unicode="&#x3bb;" horiz-adv-x="1124" d="M1065 0h-237l-167 565l-365 -565h-237l529 824l-185 634h238z" />
<glyph unicode="&#x3bc;" horiz-adv-x="1143" d="M793 83q-109 -89 -231 -89q-177 0 -183 69l-73 -416h-213l249 1413h213l-131 -742q6 -18 29 -47q56 -64 147 -64q92 0 170 66q51 42 72 86l123 701h211l-186 -1058h-211z" />
<glyph unicode="&#x3bd;" horiz-adv-x="1223" d="M557 0l-319 1060h241l197 -688l441 688h241l-694 -1060h-107z" />
<glyph unicode="&#x3be;" horiz-adv-x="1094" d="M271.5 147q-128.5 133 -90.5 350q58 326 392 475q-135 125 -106 290q88 386 545 386h297l-36 -207h-266q-279 0 -310 -173l-1 -7q-12 -70 26.5 -116t122.5 -81l354 -1l-37 -213l-343 3q-188 -38 -293 -134t-127 -222q-22 -121 52.5 -195t378.5 -109t258 -300l-5 -29 q-78 -180 -367 -208l41 235q114 0 119 16l1 3q11 64 -233 84t-372.5 153z" />
<glyph unicode="&#x3bf;" horiz-adv-x="1357" d="M881 1146q243 0 384 -172t99 -415q-44 -243 -245.5 -415t-444.5 -172q-242 0 -384 172t-98 415q42 243 244.5 415t444.5 172zM563.5 819q-126.5 -108 -153.5 -260t61.5 -259t241.5 -107q152 0 279 107t153 259q27 152 -61.5 260t-240.5 108q-153 0 -279.5 -108z" />
<glyph unicode="&#x3c0;" horiz-adv-x="1337" d="M710 847l-150 -847h-213l149 847h-277l39 214h1196l-38 -214h-277l-149 -847h-212l149 847h-217z" />
<glyph unicode="&#x3c1;" horiz-adv-x="1334" d="M435 642l-30 -166q2 -98 67 -176q89 -108 242 -108q151 0 277.5 107.5t152.5 258.5q27 153 -61 261t-239 108q-153 0 -281 -108q-93 -80 -128 -177zM338 96l-79 -451h-215l186 1048q79 181 244.5 315.5t407.5 134.5t383 -170.5t98 -414.5q-43 -241 -244.5 -413 t-443.5 -172q-205 0 -337 123z" />
<glyph unicode="&#x3c2;" horiz-adv-x="1115" d="M316 151.5q-151 124.5 -112 345.5q37 213 212 370q190 176 534 193h271l-38 -209h-219q-268 -8 -394.5 -118.5t-148.5 -235.5q-20 -117 75.5 -188.5t321.5 -124.5t190 -258l-5 -29q-80 -203 -371 -230l42 234q114 0 122 38l1 3q3 17 -163.5 51t-317.5 158.5z" />
<glyph unicode="&#x3c3;" horiz-adv-x="1429" d="M412 558q-27 -151 62 -258t241 -107t278 107t152 258q27 153 -61 261t-240 108t-278.5 -108t-153.5 -261zM1362 847q43 -58 2 -289q-43 -241 -243.5 -413t-444.5 -172q-241 0 -383 172t-99 413q43 244 245.5 415.5t443.5 171.5q181 0 290 -85h361l-37 -213h-135z" />
<glyph unicode="&#x3c4;" horiz-adv-x="1126" d="M819 846l-149 -846h-213l150 846h-386l39 214h982l-38 -214h-385z" />
<glyph unicode="&#x3c5;" horiz-adv-x="1195" d="M600 -13q-201 0 -301.5 122t-70.5 306l113 645h213l-112 -637q-17 -91 39 -156q57 -66 157 -66q91 0 169.5 65.5t94.5 156.5l113 637h213l-114 -645q-36 -184 -179 -306q-144 -122 -335 -122z" />
<glyph unicode="&#x3c6;" horiz-adv-x="1358" d="M949 887l-117 -653q91 14 162 74q126 108 152 261q33 184 -106 273q-59 38 -91 45zM615 212l130 733q52 159 206 159q82 0 195 -53q280 -138 219 -482q-42 -242 -243 -413q-176 -151 -325 -165l-61 -341h-214l60 338q-159 8 -288 168q-143 171 -100 413q43 243 245 414 q67 57 179 118l36 -208q-64 -45 -86 -65q-128 -108 -155 -259q-27 -153 62 -260q64 -77 140 -97z" />
<glyph unicode="&#x3c7;" horiz-adv-x="1278" d="M674 197l-431 -547h-246l588 750l-286 660h248l198 -456l358 456h247l-518 -660l325 -750h-248z" />
<glyph unicode="&#x3c8;" horiz-adv-x="1396" d="M847 212q83 20 174 97q125 107 152 260l88 491h219l-87 -491q-43 -242 -245 -413q-183 -157 -340 -167l-58 -329h-221l58 329q-154 10 -282 167q-142 171 -100 413l88 491h219l-88 -491q-26 -153 62 -260q64 -77 140 -97l151 848h220z" />
<glyph unicode="&#x3c9;" horiz-adv-x="1602" d="M1096 181q113 0 191.5 91t118.5 313q35 203 -30 475h184q103 -250 64 -475q-51 -289 -193 -450.5t-359 -161.5q-218 0 -257 93q-73 -93 -291 -93q-217 0 -303.5 161.5t-35.5 450.5q41 229 240 475h186q-169 -255 -207 -475q-40 -222 6.5 -313t159.5 -91q105 0 177 106 l98 556h212l-99 -558q11 -104 138 -104z" />
<glyph unicode="&#x3ca;" horiz-adv-x="551" d="M570 1061l-188 -1061h-213l187 1061h214zM440.5 1438q36.5 -43 26.5 -105q-12 -63 -64 -106.5t-113 -43.5t-97 43.5t-25 106.5q10 62 61.5 105t113.5 43q61 0 97.5 -43zM827.5 1438q36.5 -43 26.5 -105q-11 -63 -63 -106.5t-113 -43.5q-62 0 -98 43.5t-25 106.5 q10 62 61.5 105t113.5 43q61 0 97.5 -43z" />
<glyph unicode="&#x3cb;" horiz-adv-x="1195" d="M600 -13q-201 0 -301.5 122t-70.5 306l113 645h213l-112 -637q-17 -91 39 -156q57 -66 157 -66q91 0 169.5 65.5t94.5 156.5l113 637h213l-114 -645q-36 -184 -179 -306q-144 -122 -335 -122zM762.5 1438q36.5 -43 25.5 -105q-11 -63 -62.5 -106.5t-112.5 -43.5 q-62 0 -98.5 43.5t-25.5 106.5q12 62 63.5 105t112.5 43t97.5 -43zM1150 1438q37 -43 25 -105q-11 -63 -62.5 -106.5t-112.5 -43.5q-62 0 -98.5 43.5t-24.5 106.5q11 62 62.5 105t113.5 43q60 0 97 -43z" />
<glyph unicode="&#x3cc;" horiz-adv-x="1357" d="M881 1146q243 0 384 -172t99 -415q-44 -243 -245.5 -415t-444.5 -172q-242 0 -384 172t-98 415q42 243 244.5 415t444.5 172zM563.5 819q-126.5 -108 -153.5 -260t61.5 -259t241.5 -107q152 0 279 107t153 259q27 152 -61.5 260t-240.5 108q-153 0 -279.5 -108zM997 1449 h260l-332 -287h-203z" />
<glyph unicode="&#x3cd;" horiz-adv-x="1195" d="M600 -13q-201 0 -301.5 122t-70.5 306l113 645h213l-112 -637q-17 -91 39 -156q57 -66 157 -66q91 0 169.5 65.5t94.5 156.5l113 637h213l-114 -645q-36 -184 -179 -306q-144 -122 -335 -122zM916 1449h259l-330 -287h-203z" />
<glyph unicode="&#x3ce;" horiz-adv-x="1602" d="M1096 181q113 0 191.5 91t118.5 313q35 203 -30 475h184q103 -250 64 -475q-51 -289 -193 -450.5t-359 -161.5q-218 0 -257 93q-73 -93 -291 -93q-217 0 -303.5 161.5t-35.5 450.5q41 229 240 475h186q-169 -255 -207 -475q-40 -222 6.5 -313t159.5 -91q105 0 177 106 l98 556h212l-99 -558q11 -104 138 -104zM1120 1449h259l-331 -287h-203z" />
<glyph unicode="&#x401;" horiz-adv-x="1171" d="M1333 1648l-37 -213h-675l-90 -504h675l-37 -213h-675l-88 -504h674l-38 -214h-888l291 1648h888zM866.5 2026q36.5 -43 26.5 -105q-11 -63 -63 -106t-113 -43q-62 0 -98 43t-25 106q11 62 62.5 105t112.5 43t97.5 -43zM1254 2026q37 -43 26 -105q-11 -63 -63 -106 t-113 -43q-62 0 -98 43t-24 106q10 62 61.5 105t113.5 43q60 0 97 -43z" />
<glyph unicode="&#x402;" horiz-adv-x="1695" d="M827 909q181 181 391 181q247 0 386 -145q143 -125 88 -434q-54 -308 -242 -443q-51 -39 -155 -95l-118 158q108 60 141 84q122 92 158 286q32 191 -57 284q-93 97 -247 97q-153 0 -269 -96q-104 -85 -132 -191l-104 -595h-212l253 1434h-386l38 214h983l-38 -214h-385z " />
<glyph unicode="&#x403;" horiz-adv-x="984" d="M1214 1648l-38 -214h-579l-252 -1434h-214l290 1648h793zM949 2037h259l-330 -287h-203z" />
<glyph unicode="&#x404;" horiz-adv-x="1834" d="M1430 933l-37 -214h-934q-20 -167 121 -338q151 -184 411 -184q259 0 477 184q116 99 206 261h226q-135 -267 -306 -412q-292 -249 -641 -249t-552.5 247.5t-141.5 597.5q61 349 351.5 596.5t639.5 247.5q350 0 555 -248q59 -73 138 -251h-253q-36 63 -66 99 q-151 184 -411 184q-259 0 -477 -184q-200 -171 -240 -337h934z" />
<glyph unicode="&#x405;" horiz-adv-x="1134" d="M723 846q-165 58 -254.5 167t-60.5 269q28 158 160.5 271.5t293.5 113.5q159 0 252 -113q53 -62 73 -196l-207 -77q-19 95 -43 124q-42 49 -113 49q-72 0 -131.5 -50t-71.5 -122t29 -122q46 -56 139 -102q182 -63 294 -198q124 -149 87 -363q-38 -213 -215.5 -364 t-390.5 -151t-336 152q-99 120 -94 333l220 75q-12 -183 51 -259q73 -88 198 -88q124 0 228 88.5t127 213.5q22 125 -52 214q-69 84 -183 135z" />
<glyph unicode="&#x406;" d="M679 1648l-291 -1648h-213l291 1648h213z" />
<glyph unicode="&#x407;" d="M680 1648l-291 -1648h-213l291 1648h213zM551.5 2026q36.5 -43 25.5 -105q-11 -63 -63 -106t-112 -43q-62 0 -98 43t-26 106q11 62 62.5 105t113.5 43q61 0 97.5 -43zM938.5 2026q36.5 -43 25.5 -105q-10 -63 -62 -106t-113 -43q-62 0 -98 43t-26 106q12 62 63.5 105 t113.5 43q60 0 96.5 -43z" />
<glyph unicode="&#x408;" horiz-adv-x="965" d="M866 353q-30 -171 -140 -265q-117 -101 -259 -101t-223.5 100t-51.5 267l180 66q1 -156 39 -192q28 -28 83 -28h5q58 1 104 38q36 32 52 125l227 1285h213z" />
<glyph unicode="&#x409;" horiz-adv-x="2275" d="M1108 0l253 1434h-650l-194 -1101q-25 -142 -139 -240t-320 -98l38 214q116 0 158 35q40 34 52 100l230 1304h1077l-127 -719h435q184 -4 282 -137t64 -321q-35 -200 -178.5 -333.5t-331.5 -137.5h-649zM1448 715l-87 -501h426q89 0 169 76.5t98 179.5q16 93 -37.5 169 t-141.5 76h-427z" />
<glyph unicode="&#x40a;" horiz-adv-x="2147" d="M981 0l126 717h-650l-126 -717h-215l291 1648h214l-127 -717h650l127 717h214l-126 -719h443q185 -4 283 -137t65 -321q-36 -200 -180.5 -333.5t-330.5 -137.5h-658zM1320 715l-87 -501h436q88 0 168.5 76.5t97.5 179.5q17 93 -36.5 169t-142.5 76h-436z" />
<glyph unicode="&#x40b;" horiz-adv-x="1695" d="M816 898q183 192 393 192q247 0 379 -149q129 -150 74 -457l-84 -484h-221l87 493q35 200 -46 300q-79 94 -220 94h-13q-154 -4 -271 -101q-103 -85 -132 -192l-104 -594h-212l252 1434h-385l38 214h983l-38 -214h-385z" />
<glyph unicode="&#x40c;" horiz-adv-x="1242" d="M660 778l-137 -778h-213l290 1648h214l-92 -519l481 519h270l-625 -678l458 -970h-258l-370 795zM577 2037h259l-330 -287h-203z" />
<glyph unicode="&#x40e;" horiz-adv-x="1429" d="M516 75q-127 -86 -230 -86q-71 0 -175 72l135 183q81 -48 107 -48q11 0 21 3q36 10 218 229l145 184l-493 1036h250l398 -832l633 832h244q-1066 -1445 -1253 -1573zM985 2044q0 -64 12 -80q23 -27 61 -27q37 0 69 28q17 15 39 79h196q-46 -127 -116 -188 q-99 -84 -218 -84q-121 0 -189 84q-53 65 -49 188h195z" />
<glyph unicode="&#x40f;" horiz-adv-x="1355" d="M568 0h-463l291 1648h214l-253 -1433h718l253 1433h213l-291 -1648h-470l-63 -355h-212z" />
<glyph unicode="&#x410;" horiz-adv-x="1417" d="M990 796l-73 386l-208 -386h281zM1057 1648l309 -1648h-227l-109 583h-437l-314 -583h-227l889 1648h116z" />
<glyph unicode="&#x411;" horiz-adv-x="1249" d="M407 1648h793l-38 -214h-579l-89 -503h428q186 -4 283 -137t64 -321q-35 -200 -179.5 -336.5t-331.5 -136.5h-642zM457 717l-88 -501h419q90 0 170 76.5t99 179.5q16 93 -37.5 169t-142.5 76h-420z" />
<glyph unicode="&#x412;" horiz-adv-x="1159" d="M779 1648q143 0 227 -101.5t59 -244.5q-26 -147 -180 -182q104 -16 216 -153t70 -379q-43 -242 -244 -418q-188 -166 -350 -168v-2h-423l291 1648h334zM536 955l-130 -741h209v3q67 4 182 106q128 112 156 265q27 152 -62.5 259.5t-240.5 107.5h-114zM621 1435l-46 -261 h139q48 4 87 36q44 34 54 92t-22 95.5t-91 37.5h-121z" />
<glyph unicode="&#x413;" horiz-adv-x="984" d="M1214 1648l-38 -214h-579l-252 -1434h-214l290 1648h793z" />
<glyph unicode="&#x414;" horiz-adv-x="1394" d="M1030 221l213 1213h-407q2 -84 -30 -267q-119 -673 -421 -946h645zM1245 221h84l-102 -576h-212l62 355h-840l-63 -355h-213l102 576h44q384 367 486 946q30 171 14 481h889z" />
<glyph unicode="&#x415;" horiz-adv-x="1171" d="M1333 1648l-37 -213h-675l-90 -504h675l-37 -213h-675l-88 -504h674l-38 -214h-888l291 1648h888z" />
<glyph unicode="&#x416;" horiz-adv-x="2062" d="M1327 1061l512 587h260l-550 -634l530 -1014h-261l-435 830l-122 -141l-122 -689h-215l121 689l-74 141l-727 -830h-260l887 1014l-326 634h259l307 -587l103 587h216z" />
<glyph unicode="&#x417;" horiz-adv-x="1136" d="M723 722h-422l37 213h422q116 0 190.5 71t94.5 193q21 116 -48.5 182.5t-181.5 66.5q-201 0 -487 -187l42 242q232 152 459 152q217 0 345 -120.5t93 -323.5q-55 -304 -183 -376q106 -58 48 -387q-36 -204 -206.5 -325.5t-387.5 -121.5q-232 0 -404 162l54 308 q176 -252 389 -252q115 0 216.5 63t121.5 175q21 123 -28 194t-164 71z" />
<glyph unicode="&#x418;" horiz-adv-x="1587" d="M1750 1648l-290 -1648h-215l220 1246l-1110 -1246h-228l290 1648h214l-225 -1279l1138 1279h206z" />
<glyph unicode="&#x419;" horiz-adv-x="1587" d="M1750 1648l-290 -1648h-215l220 1246l-1110 -1246h-228l290 1648h214l-225 -1279l1138 1279h206zM1062 2044q0 -64 13 -80q22 -27 60 -27q37 0 69 28q18 15 39 79h196q-44 -127 -115 -188q-98 -84 -218 -84t-189 84q-54 65 -50 188h195z" />
<glyph unicode="&#x41a;" horiz-adv-x="1242" d="M505 778l-137 -778h-214l291 1648h213l-92 -519l482 519h269l-625 -678l459 -970h-259l-370 795z" />
<glyph unicode="&#x41b;" horiz-adv-x="1431" d="M517 333q-25 -142 -139 -240t-320 -98l38 214q116 0 158 35q40 34 52 100l230 1304h1077l-290 -1648h-215l253 1434h-650z" />
<glyph unicode="&#x41c;" horiz-adv-x="1866" d="M690 1648l372 -924l695 924h195l-291 -1648h-213l210 1191l-671 -890l-359 890l-210 -1191h-213l290 1648h195z" />
<glyph unicode="&#x41d;" horiz-adv-x="1244" d="M488 682l-120 -682h-214l291 1648h213l-133 -753h509l133 753h213l-290 -1648h-213l120 682h-509z" />
<glyph unicode="&#x41e;" horiz-adv-x="1945" d="M1820 1422.5q204 -247.5 142 -596.5t-353 -596.5t-640 -247.5t-552.5 247.5t-141.5 596.5t352.5 596.5t639.5 247.5t553 -247.5zM1229 1454q-261 0 -477 -183.5t-262 -444.5t106 -445t411 -184q261 0 477.5 184t262.5 445q45 261 -106.5 444.5t-411.5 183.5z" />
<glyph unicode="&#x41f;" horiz-adv-x="1297" d="M576 1434l-253 -1434h-214l291 1648h1078l-290 -1648h-215l253 1434h-650z" />
<glyph unicode="&#x420;" horiz-adv-x="1179" d="M460 527l-92 -527h-214l291 1648h468q194 -27 307 -164q134 -165 93 -395q-40 -233 -233 -397.5t-425 -164.5h-195zM620 1434l-121 -692h194q142 0 261.5 101.5t144.5 245.5q26 143 -58 244t-226 101h-195z" />
<glyph unicode="&#x421;" horiz-adv-x="1691" d="M1499 392l134 -143q-339 -267 -666 -267q-349 0 -552 246.5t-141 595.5q61 348 351 595.5t639 247.5q326 0 571 -267l-185 -145q-185 195 -424 195q-259 0 -475 -183t-262 -443q-46 -261 105.5 -444t409.5 -183q239 0 495 195z" />
<glyph unicode="&#x422;" horiz-adv-x="1085" d="M903 1435l-253 -1435h-214l253 1435h-384l37 213h983l-37 -213h-385z" />
<glyph unicode="&#x423;" horiz-adv-x="1429" d="M516 75q-127 -86 -230 -86q-71 0 -175 72l135 183q81 -48 107 -48q11 0 21 3q36 10 218 229l145 184l-493 1036h250l398 -832l633 832h244q-1066 -1445 -1253 -1573z" />
<glyph unicode="&#x424;" horiz-adv-x="1837" d="M889 447l129 728q-207 -5 -377 -111q-172 -108 -198 -253q-25 -145 108 -252t338 -112zM1065 229l-40 -229h-214l40 229q-286 7 -467 163q-204 171 -159 421q43 248 306 419q237 154 525 162l45 254h214l-45 -254q286 -8 470 -162q203 -171 159 -419q-44 -250 -307 -421 q-238 -156 -527 -163zM1232 1175l-129 -728q208 5 379 112q172 107 197 252q26 145 -107 253q-133 106 -340 111z" />
<glyph unicode="&#x425;" horiz-adv-x="1387" d="M52 0l676 899l-300 749h246l214 -537l406 537h245l-566 -749l362 -899h-245l-276 687l-517 -687h-245z" />
<glyph unicode="&#x426;" horiz-adv-x="1366" d="M1130 0h-1014l291 1648h214l-252 -1434h718l252 1434h213l-251 -1428h81l-102 -575h-213z" />
<glyph unicode="&#x427;" horiz-adv-x="1322" d="M1141 721q-177 -162 -387 -162q-247 0 -377 150q-131 149 -76 456l84 483h222l-88 -492q-35 -200 47 -300q78 -94 219 -94h15q152 5 270 101q103 85 131 192l104 593h213l-290 -1648h-213z" />
<glyph unicode="&#x428;" horiz-adv-x="1880" d="M407 1648h214l-252 -1433h502l253 1433h214l-252 -1433h502l253 1433h214l-291 -1648h-1648z" />
<glyph unicode="&#x429;" horiz-adv-x="1875" d="M1632 0h-1516l291 1648h214l-252 -1433h502l253 1433h214l-252 -1433h502l253 1433h214l-251 -1427h80l-102 -576h-213z" />
<glyph unicode="&#x42a;" horiz-adv-x="1571" d="M641 1434h-365l38 214h578l-127 -719h433q185 -4 282 -137t64 -321q-35 -200 -179 -333.5t-331 -137.5h-646zM727 715l-88 -501h424q90 0 169.5 76.5t98.5 179.5q16 93 -37 169t-142 76h-425z" />
<glyph unicode="&#x42b;" horiz-adv-x="1644" d="M1829 1648l-290 -1648h-214l290 1648h214zM108 0l291 1648h214l-127 -719h442q184 -4 282 -137t65 -321q-36 -200 -180 -333.5t-331 -137.5h-656zM448 715l-88 -501h434q89 0 169 76.5t98 179.5q16 93 -37.5 169t-141.5 76h-434z" />
<glyph unicode="&#x42c;" horiz-adv-x="1249" d="M108 0l291 1648h214l-127 -719h442q184 -4 282 -137t65 -321q-36 -200 -180 -333.5t-331 -137.5h-656zM448 715l-88 -501h434q89 0 169 76.5t98 179.5q16 93 -37.5 169t-141.5 76h-434z" />
<glyph unicode="&#x42d;" horiz-adv-x="1850" d="M1691 933q20 166 -120 337q-153 184 -412 184q-260 0 -476 -184q-43 -36 -101 -99h-255q145 179 229 251q292 248 641 248t552.5 -247.5t142.5 -596.5q-62 -350 -353 -597.5t-640 -247.5t-554 249q-120 145 -160 412h225q33 -162 115 -261q153 -184 412 -184 q260 0 476 184q202 171 240 338h-933l38 214h933z" />
<glyph unicode="&#x42e;" horiz-adv-x="2336" d="M1676 1454q-260 0 -476.5 -184t-263.5 -444q-45 -261 107 -445t411 -184q261 0 478 184t262 445q46 260 -106 444t-412 184zM708 717h-251l-126 -717h-215l291 1648h214l-127 -717h250q58 261 331 491q290 248 639 248q350 0 553.5 -247.5t141.5 -596.5 q-62 -350 -352.5 -597.5t-640.5 -247.5q-349 0 -552 249q-189 228 -156 487z" />
<glyph unicode="&#x42f;" horiz-adv-x="1206" d="M933 1433q-142 0 -261 -100.5t-145 -243.5q-24 -144 59.5 -245.5t225.5 -101.5h194l122 691h-195zM352 0h-258l464 563q-56 15 -151 129q-134 164 -94 397q41 230 234 395q161 136 366 164h466l-290 -1648h-213l92 526h-187z" />
<glyph unicode="&#x430;" horiz-adv-x="1443" d="M1158 480l28 157q-2 99 -67 181q-90 107 -241 107q-153 0 -279 -107t-153 -260q-27 -151 61.5 -258.5t241.5 -107.5q151 0 278 107q95 81 131 181zM1247 986l13 74h214l-186 -1061h-215l24 133q-183 -160 -387 -160q-243 0 -384.5 171.5t-97.5 414.5q42 243 244 414.5 t445 171.5q204 0 330 -158z" />
<glyph unicode="&#x431;" horiz-adv-x="1409" d="M473 558q-27 -151 61 -258t241 -107q151 0 277.5 107t153.5 258q27 153 -61.5 261t-240.5 108t-278 -108t-153 -261zM513 985q196 160 429 160q244 0 384.5 -171.5t97.5 -415.5q-43 -241 -243.5 -413t-445.5 -172q-242 0 -382 173q-126 152 -122.5 345.5t31.5 352.5 q57 323 250 532q242 265 506 265q54 0 108 -12q122 -25 199 -25q167 0 197 47l-31 -176q-71 -82 -198 -82q-85 0 -215 28q-42 10 -81 10q-181 0 -345 -193q-91 -106 -139 -253z" />
<glyph unicode="&#x432;" horiz-adv-x="954" d="M443 643h137v-2q130 6 167.5 38t43.5 68q6 35 -20 66.5t-154 37.5l-1 -2h-137zM404 420l-36 -206h137l-1 -2q129 6 167 38t44 67t-20.5 67t-153.5 38v-2h-137zM303 1060h482q86 0 167.5 -76t52.5 -237v-1q-27 -153 -205 -216q156 -60 129 -212v-1q-29 -163 -136.5 -240 t-194.5 -77h-482z" />
<glyph unicode="&#x433;" horiz-adv-x="796" d="M479 846l-149 -846h-214l187 1060h597l-37 -214h-384z" />
<glyph unicode="&#x434;" horiz-adv-x="1156" d="M1063 221h75l-102 -576h-213l63 355h-614l-63 -355h-213l102 576h113q-8 -7 -9 -8h1q206 176 271 544q14 77 18 146q3 42 -2 157h720zM484 214h365l111 633h-254l-17 -90q-71 -407 -205 -543z" />
<glyph unicode="&#x435;" horiz-adv-x="1299" d="M526 240q46 -47 187 -47q152 0 279 107q16 14 66 64l200 -77q-97 -108 -138 -143q-203 -172 -446 -172q-242 0 -384 172t-98 415q42 243 244.5 415t444.5 172q208 0 343 -125q21 -22 42 -47q8 -10 47 -65l-126 -108zM999 899q-31 28 -156 28q-152 0 -278.5 -107.5 t-153.5 -260.5q-23 -124 -1 -161z" />
<glyph unicode="&#x436;" horiz-adv-x="1501" d="M989 744l327 316h273l-348 -354l274 -706h-253l-198 534l-134 -125l-72 -409h-215l72 409l-91 125l-385 -534h-253l523 706l-225 354h273l217 -316l55 316h215z" />
<glyph unicode="&#x437;" horiz-adv-x="957" d="M788 534q173 -47 143 -215q-24 -137 -159.5 -228.5t-296.5 -91.5q-162 0 -266 91.5t-80 228.5l13 73h220l-14 -73q-7 -46 36 -84t125 -38q80 0 138 38t65 84q8 46 -31 81q-29 23 -57 53h-240l31 171h266q20 28 46 44q53 35 61 81q8 45 -35.5 83t-124.5 38t-143 -40 q-47 -32 -76 -125h-217q51 190 178 276q132 87 293 87t264.5 -91t79.5 -228q-30 -168 -219 -215z" />
<glyph unicode="&#x438;" horiz-adv-x="1110" d="M291 1060h214l-117 -661l617 661h187l-187 -1060h-212l119 671l-585 -627l-9 -44h-213z" />
<glyph unicode="&#x439;" horiz-adv-x="1110" d="M291 1060h214l-117 -661l617 661h187l-187 -1060h-212l119 671l-585 -627l-9 -44h-213zM721 1455q0 -63 12 -79q22 -27 60 -27q37 0 69 28q19 15 40 78h196q-45 -126 -115 -187q-99 -85 -219 -85t-188 85q-54 65 -50 187h195z" />
<glyph unicode="&#x43a;" horiz-adv-x="975" d="M1063 1060l-349 -354l275 -706h-254l-197 534l-135 -126l-72 -408h-215l187 1060h214l-56 -317l329 317h273z" />
<glyph unicode="&#x43b;" horiz-adv-x="1198" d="M1280 1060l-186 -1060h-213l149 846h-494l-100 -567q-46 -258 -378 -285l37 211q117 13 127 72l138 783h920z" />
<glyph unicode="&#x43c;" horiz-adv-x="1194" d="M660 353l431 707h198l-187 -1060h-213l84 478l-291 -478h-169l-122 478l-84 -478h-213l186 1060h198z" />
<glyph unicode="&#x43d;" horiz-adv-x="1106" d="M1014 0h-213l82 462h-495l-81 -462h-213l186 1060h213l-67 -383h495l67 383h212z" />
<glyph unicode="&#x43e;" horiz-adv-x="1357" d="M881 1146q243 0 384 -172t99 -415q-44 -243 -245.5 -415t-444.5 -172q-242 0 -384 172t-98 415q42 243 244.5 415t444.5 172zM563.5 819q-126.5 -108 -153.5 -260t61.5 -259t241.5 -107q152 0 279 107t153 259q27 152 -61.5 260t-240.5 108q-153 0 -279.5 -108z" />
<glyph unicode="&#x43f;" horiz-adv-x="1129" d="M468 846l-150 -846h-213l186 1060h920l-186 -1060h-212l149 846h-494z" />
<glyph unicode="&#x440;" horiz-adv-x="1416" d="M481 642l-30 -166q3 -98 69 -177q89 -107 241 -107q153 0 279.5 107.5t153.5 259.5t-62 260t-241 108t-279 -108q-94 -79 -131 -177zM391 132l-86 -488h-213l249 1416h213l-16 -96q186 181 391 181q243 0 384 -171.5t99 -414.5q-43 -243 -245 -415t-445 -172 q-205 0 -331 160z" />
<glyph unicode="&#x441;" horiz-adv-x="1299" d="M1058 364l200 -77q-97 -108 -138 -143q-203 -172 -446 -172q-242 0 -384 172t-98 415q42 243 244.5 415t444.5 172q243 0 385 -172q29 -35 88 -141l-227 -78q-32 50 -44 65q-88 107 -240 107t-278.5 -107.5t-153.5 -260.5q-27 -151 61.5 -258.5t240.5 -107.5t279 107 q16 14 66 64z" />
<glyph unicode="&#x442;" horiz-adv-x="1169" d="M840 846l-149 -846h-212l149 846h-385l38 214h983l-38 -214h-386z" />
<glyph unicode="&#x443;" horiz-adv-x="1173" d="M352 -356h-225l386 592l-249 824h240l167 -580l370 580h239z" />
<glyph unicode="&#x444;" horiz-adv-x="2256" d="M1350 657l-35 -198q6 -86 67 -159q88 -108 239 -108q153 0 279.5 107.5t153.5 258.5q27 153 -62 261t-241 108q-151 0 -277 -108q-88 -74 -124 -162zM1101 459l35 198q-5 88 -66 162q-89 108 -241 108q-151 0 -278 -108t-153 -261q-27 -151 61.5 -258.5t239.5 -107.5 q152 0 279 108q88 73 123 159zM1201 1026l76 431h214l-76 -431q174 117 374 117q244 0 385 -170.5t98 -414.5q-42 -241 -243.5 -413t-445.5 -172q-201 0 -332 120l-76 -433h-214l76 433q-174 -120 -376 -120q-243 0 -383.5 172t-98.5 413q43 244 244 414.5t444 170.5 q201 0 334 -117z" />
<glyph unicode="&#x445;" horiz-adv-x="1061" d="M1120 1060l-365 -484l230 -576h-246l-145 356l-269 -356h-248l435 576l-195 484h246l109 -265l199 265h249z" />
<glyph unicode="&#x446;" horiz-adv-x="1160" d="M899 0h-783l188 1061h213l-149 -847h494l149 847h213l-149 -840h76l-102 -576h-213z" />
<glyph unicode="&#x447;" horiz-adv-x="1278" d="M1048 503q-166 -166 -367 -166q-248 0 -368 151q-118 150 -65 454l21 118h222l-23 -127q-36 -201 37 -301q68 -92 206 -92h15q152 5 257 99q96 84 122 192l40 229h214l-187 -1060h-213z" />
<glyph unicode="&#x448;" horiz-adv-x="1428" d="M291 1060h215l-149 -845h288l148 845h214l-148 -845h288l149 845h213l-186 -1060h-1218z" />
<glyph unicode="&#x449;" horiz-adv-x="1472" d="M1213 0h-1085l186 1060h214l-148 -845h287l149 845h214l-148 -845h288l148 845h214l-148 -839h82l-102 -576h-213z" />
<glyph unicode="&#x44a;" horiz-adv-x="1279" d="M276 0l149 846h-241l38 214h454l-68 -382h400v-4q84 -4 171 -94q92 -96 66 -241v-1q-25 -144 -151 -240q-120 -91 -205 -98h-613zM526 214h269v-2q133 6 185 43q42 30 51 83q9 54 -22 85q-38 36 -170 43v-2h-268z" />
<glyph unicode="&#x44b;" horiz-adv-x="1520" d="M368 214h376l-1 -2q133 6 185 43q41 30 50 83q10 54 -21 85q-38 36 -169 43l-1 -2h-376zM1404 0h-213l186 1060h213zM116 0l187 1060h213l-67 -382h507l-1 -4q85 -4 171 -94q92 -96 67 -241v-1q-26 -144 -152 -240q-119 -98 -205 -98h-720z" />
<glyph unicode="&#x44c;" horiz-adv-x="1107" d="M368 214h268l-2 -2q134 6 186 43q42 30 51 83q10 54 -22 85q-37 36 -169 43l-1 -2h-268zM116 0l187 1060h213l-67 -382h400l-1 -4q84 -4 171 -94q92 -96 67 -241v-1q-26 -144 -152 -240q-120 -98 -205 -98h-613z" />
<glyph unicode="&#x44d;" horiz-adv-x="1326" d="M1115 543h-585l38 215h541q-6 4 -51 61q-89 108 -241 108t-278 -108q-53 -44 -111 -135h-224q98 197 206 289q203 172 446 172q241 0 382.5 -171.5t98.5 -415.5q-42 -241 -244 -413t-444 -172q-244 0 -384 172q-26 31 -114 161h291q103 -113 246 -113q152 0 278 107 q120 102 149 243z" />
<glyph unicode="&#x44e;" horiz-adv-x="1776" d="M840 558q-26 -151 62.5 -258t240.5 -107t278.5 107t153.5 258q27 153 -62 261t-240 108q-152 0 -279 -108t-154 -261zM610 462h-199l-81 -462h-214l187 1060h213l-67 -383h202q40 147 217 296q201 172 443 172q243 0 383.5 -171.5t98.5 -415.5q-43 -241 -244.5 -413 t-444.5 -172q-242 0 -382 173q-132 158 -112 316z" />
<glyph unicode="&#x44f;" horiz-adv-x="1001" d="M820 847h-162v2q-133 -6 -182 -43q-43 -30 -53 -83q-9 -53 23 -83q37 -37 168 -44v1h162zM1069 1060l-186 -1060h-212l68 384h-125l-4 -7l-76 -117l-166 -260h-236l255 398q-36 4 -112 83q-92 96 -66 241v1q26 145 151 240q119 91 204 97h505z" />
<glyph unicode="&#x451;" horiz-adv-x="1299" d="M526 240q46 -47 187 -47q152 0 279 107q16 14 66 64l200 -77q-97 -108 -138 -143q-203 -172 -446 -172q-242 0 -384 172t-98 415q42 243 244.5 415t444.5 172q208 0 343 -125q21 -22 42 -47q8 -10 47 -65l-126 -108zM999 899q-31 28 -156 28q-152 0 -278.5 -107.5 t-153.5 -260.5q-23 -124 -1 -161zM815 1438q37 -43 25 -105q-11 -63 -63 -106.5t-113 -43.5t-97.5 43.5t-24.5 106.5q11 62 62 105t113 43q61 0 98 -43zM1202 1438q37 -43 26 -105q-12 -63 -64 -106.5t-112 -43.5q-62 0 -98 43.5t-25 106.5q11 62 62 105t113 43q61 0 98 -43 z" />
<glyph unicode="&#x452;" horiz-adv-x="1097" d="M886 680q16 92 -39 157.5t-147 65.5q-91 0 -169 -65q-35 -28 -46 -46l-140 -792h-214l215 1218h-107l37 214h107l38 216h215l-39 -216h209l-37 -214h-209l-39 -221q90 120 247 120q161 0 261.5 -122.5t72.5 -305.5l-119 -679q-26 -142 -140.5 -240t-320.5 -98l38 215 q117 0 159 35q39 34 51 100z" />
<glyph unicode="&#x453;" horiz-adv-x="796" d="M479 846l-149 -846h-214l187 1060h597l-37 -214h-384zM733 1449h260l-331 -287h-203z" />
<glyph unicode="&#x454;" horiz-adv-x="1326" d="M480 758h542l-37 -215h-587q-20 -141 64 -243q89 -107 240 -107q145 0 287 113h289q-132 -130 -169 -161q-202 -172 -446 -172q-241 0 -382.5 172t-99.5 413q44 244 246 415.5t443 171.5q244 0 385 -172q75 -92 105 -289h-225q-27 91 -62 135q-89 108 -242 108 q-151 0 -278 -108q-66 -57 -73 -61z" />
<glyph unicode="&#x455;" horiz-adv-x="908" d="M409 228q32 -37 84 -37q53 0 97 37t54 91q9 53 -22 90q-20 26 -96 79q-104 63 -144 111q-70 85 -48 203q20 120 119.5 205t219.5 85q119 0 184 -81q47 -56 50 -126l-217 -60q-3 26 -9 34q-15 19 -45 19q-31 0 -57.5 -22.5t-31.5 -53.5q-6 -31 12 -52q17 -19 78 -63 q115 -70 162 -128q83 -101 58 -240q-25 -142 -142.5 -242.5t-259.5 -100.5q-141 0 -222 101q-58 69 -61 172l220 46q1 -48 17 -67z" />
<glyph unicode="&#x456;" horiz-adv-x="557" d="M572 1060l-187 -1060h-213l186 1060h214zM640.5 1452.5q36.5 -43.5 24.5 -106.5q-10 -63 -62 -106t-114 -43q-61 0 -97.5 43t-25.5 106t63 106.5t113 43.5q62 0 98.5 -43.5z" />
<glyph unicode="&#x457;" d="M576 1061l-188 -1061h-213l188 1061h213zM446.5 1438q36.5 -43 26.5 -105q-12 -63 -64 -106.5t-112 -43.5q-62 0 -98 43.5t-25 106.5q10 62 61.5 105t113.5 43q61 0 97.5 -43zM833.5 1438q36.5 -43 26.5 -105q-11 -63 -63 -106.5t-113 -43.5q-62 0 -98 43.5t-25 106.5 q11 62 62.5 105t112.5 43t97.5 -43z" />
<glyph unicode="&#x458;" horiz-adv-x="577" d="M48 -10q118 12 129 72l176 998h213l-176 -996q-46 -261 -379 -286zM634 1452.5q37 -43.5 26 -106.5t-63 -106t-114 -43q-61 0 -97.5 43t-25.5 106t63 106.5t113 43.5t98 -43.5z" />
<glyph unicode="&#x459;" horiz-adv-x="1875" d="M1136 214h268l-1 -3q134 7 185 44q42 30 52 83q9 54 -22 85q-38 36 -170 42l-1 -1h-268zM1033 846h-495l-100 -567q-46 -258 -378 -285l37 211q117 13 128 72l138 783h919l-67 -381l402 -2l-1 -3q85 -4 171 -94q93 -95 67 -241v-1q-26 -145 -151 -240q-120 -90 -205 -98 h-614z" />
<glyph unicode="&#x45a;" horiz-adv-x="1803" d="M1063 214h269l-1 -2q133 6 185 43q42 30 52 83q9 54 -23 85q-37 36 -169 43l-1 -2h-269zM813 0l81 462h-494l-82 -462h-213l186 1060h214l-67 -383h494l67 383h212l-67 -382h400l-1 -4q85 -4 172 -94q92 -96 66 -241v-1q-26 -144 -151 -240q-119 -91 -206 -98h-611z" />
<glyph unicode="&#x45b;" horiz-adv-x="1097" d="M383 1432l38 216h215l-39 -216h209l-37 -214h-209l-39 -221q69 120 247 120q161 0 261.5 -122.5t72.5 -305.5l-121 -689h-215l120 680q16 92 -39 157.5t-147 65.5q-91 0 -169 -65q-35 -28 -46 -46l-140 -792h-214l215 1218h-107l37 214h107z" />
<glyph unicode="&#x45c;" horiz-adv-x="975" d="M1063 1060l-349 -354l275 -706h-254l-197 534l-135 -126l-72 -408h-215l187 1060h214l-56 -317l329 317h273zM870 1449h260l-331 -287h-203z" />
<glyph unicode="&#x45e;" horiz-adv-x="1173" d="M352 -356h-225l386 592l-249 824h240l167 -580l370 580h239zM751 1455q0 -63 13 -79q22 -27 60 -27q37 0 69 28q18 15 39 78h196q-45 -126 -116 -187q-97 -85 -217 -85t-189 85q-54 65 -50 187h195z" />
<glyph unicode="&#x45f;" horiz-adv-x="1129" d="M458 0h-353l186 1060h214l-149 -846h495l148 846h212l-186 -1060h-353l-63 -355h-213z" />
<glyph unicode="&#x490;" horiz-adv-x="1042" d="M1177 1436l-1 -2h-579l-252 -1434h-214l290 1648h641l45 258h213l-82 -470h-61z" />
<glyph unicode="&#x491;" horiz-adv-x="830" d="M479 846l-149 -846h-214l187 1060h443l46 257h213l-83 -471h-443z" />
<glyph unicode="&#x1e80;" horiz-adv-x="1736" d="M816 308l236 1340h213l-236 -1340q7 -18 27 -43q55 -64 147 -64t170.5 65.5t94.5 156.5l216 1225h214l-217 -1233q-35 -174 -181 -299q-152 -129 -334 -129q-181 0 -278 127q-141 -127 -323 -127t-287 129q-104 124 -76 299l217 1233h213l-216 -1225q-15 -91 40 -156.5 t147 -65.5t169 64q31 25 44 43zM1338 1750h-203l-230 287h260z" />
<glyph unicode="&#x1e81;" horiz-adv-x="1460" d="M678 314l131 746h213l-128 -728q-10 -57 21.5 -94.5t83.5 -37.5q127 0 155 157l123 703h214l-130 -743q-29 -136 -140 -230q-119 -101 -260 -101q-142 0 -216 98q-112 -98 -253 -98q-142 0 -223 101q-78 94 -59 230l131 743h213l-123 -703q-28 -157 99 -157q53 0 98 37 q37 32 50 77zM1096 1162h-203l-230 287h260z" />
<glyph unicode="&#x1e82;" horiz-adv-x="1736" d="M816 308l236 1340h213l-236 -1340q7 -18 27 -43q55 -64 147 -64t170.5 65.5t94.5 156.5l216 1225h214l-217 -1233q-35 -174 -181 -299q-152 -129 -334 -129q-181 0 -278 127q-141 -127 -323 -127t-287 129q-104 124 -76 299l217 1233h213l-216 -1225q-15 -91 40 -156.5 t147 -65.5t169 64q31 25 44 43zM1290 2037h259l-331 -287h-202z" />
<glyph unicode="&#x1e83;" horiz-adv-x="1460" d="M678 314l131 746h213l-128 -728q-10 -57 21.5 -94.5t83.5 -37.5q127 0 155 157l123 703h214l-130 -743q-29 -136 -140 -230q-119 -101 -260 -101q-142 0 -216 98q-112 -98 -253 -98q-142 0 -223 101q-78 94 -59 230l131 743h213l-123 -703q-28 -157 99 -157q53 0 98 37 q37 32 50 77zM1048 1449h259l-331 -287h-202z" />
<glyph unicode="&#x1e84;" horiz-adv-x="1736" d="M816 308l236 1340h213l-236 -1340q7 -18 27 -43q55 -64 147 -64t170.5 65.5t94.5 156.5l216 1225h214l-217 -1233q-35 -174 -181 -299q-152 -129 -334 -129q-181 0 -278 127q-141 -127 -323 -127t-287 129q-104 124 -76 299l217 1233h213l-216 -1225q-15 -91 40 -156.5 t147 -65.5t169 64q31 25 44 43zM1136.5 2026q36.5 -43 26.5 -105q-11 -63 -63 -106t-113 -43q-62 0 -98 43t-25 106q10 62 61.5 105t113.5 43q61 0 97.5 -43zM1523.5 2026q36.5 -43 26.5 -105q-11 -63 -63 -106t-113 -43q-62 0 -98 43t-25 106q11 62 62.5 105t113.5 43 q60 0 96.5 -43z" />
<glyph unicode="&#x1e85;" horiz-adv-x="1460" d="M678 314l131 746h213l-128 -728q-10 -57 21.5 -94.5t83.5 -37.5q127 0 155 157l123 703h214l-130 -743q-29 -136 -140 -230q-119 -101 -260 -101q-142 0 -216 98q-112 -98 -253 -98q-142 0 -223 101q-78 94 -59 230l131 743h213l-123 -703q-28 -157 99 -157q53 0 98 37 q37 32 50 77zM894.5 1438q36.5 -43 26.5 -105q-12 -63 -64 -106.5t-112 -43.5q-62 0 -98 43.5t-25 106.5q10 62 61.5 105t113.5 43q61 0 97.5 -43zM1281.5 1438q36.5 -43 26.5 -105q-11 -63 -63 -106.5t-113 -43.5q-62 0 -98 43.5t-25 106.5q11 62 62.5 105t112.5 43 t97.5 -43z" />
<glyph unicode="&#x1ef2;" horiz-adv-x="1456" d="M737 661l-395 987h245l299 -746l563 746h246l-744 -987l-117 -661h-213zM1198 1750h-203l-230 287h260z" />
<glyph unicode="&#x1ef3;" horiz-adv-x="1173" d="M352 -356h-225l386 592l-249 824h240l167 -580l370 580h239zM952 1162h-203l-230 287h260z" />
<glyph unicode="&#x2000;" horiz-adv-x="1034" />
<glyph unicode="&#x2001;" horiz-adv-x="2069" />
<glyph unicode="&#x2002;" horiz-adv-x="1034" />
<glyph unicode="&#x2003;" horiz-adv-x="2069" />
<glyph unicode="&#x2004;" horiz-adv-x="689" />
<glyph unicode="&#x2005;" horiz-adv-x="517" />
<glyph unicode="&#x2006;" horiz-adv-x="344" />
<glyph unicode="&#x2007;" horiz-adv-x="344" />
<glyph unicode="&#x2008;" horiz-adv-x="258" />
<glyph unicode="&#x2009;" horiz-adv-x="413" />
<glyph unicode="&#x200a;" horiz-adv-x="114" />
<glyph unicode="&#x2010;" horiz-adv-x="946" d="M258 733h688l-38 -213h-688z" />
<glyph unicode="&#x2011;" horiz-adv-x="946" d="M258 733h688l-38 -213h-688z" />
<glyph unicode="&#x2012;" horiz-adv-x="946" d="M258 733h688l-38 -213h-688z" />
<glyph unicode="&#x2013;" horiz-adv-x="963" d="M180 733h860l-37 -213h-860z" />
<glyph unicode="&#x2014;" horiz-adv-x="1567" d="M180 733h1465l-37 -213h-1465z" />
<glyph unicode="&#x2015;" horiz-adv-x="3125" d="M52 733h2133l-37 -213h-2134z" />
<glyph unicode="&#x2017;" horiz-adv-x="1128" d="M5 -114h1078l-38 -214h-1077zM43 100h1078l-37 -213h-1078z" />
<glyph unicode="&#x2018;" horiz-adv-x="422" d="M568 1475q35 -43 24 -106q-11 -62 -62.5 -105t-113.5 -43q-61 0 -97.5 43t-24.5 105q5 33 23 64l151 225h194z" />
<glyph unicode="&#x2019;" horiz-adv-x="422" d="M362 1404q-35 43 -24 106q10 62 61.5 105t113.5 43q61 0 97.5 -43t26.5 -105q-7 -33 -24 -64l-152 -225h-194z" />
<glyph unicode="&#x201a;" horiz-adv-x="422" d="M118 24q-35 43 -23 106q10 62 61.5 105t113.5 43q61 0 97.5 -43t25.5 -105q-6 -33 -23 -64l-152 -226h-194z" />
<glyph unicode="&#x201b;" horiz-adv-x="422" d="M585 1221h-195l-71 225q-7 31 -1 64q11 62 63 105t112 43q62 0 98 -43t26 -105q-11 -63 -63 -106z" />
<glyph unicode="&#x201c;" horiz-adv-x="766" d="M569 1475q35 -43 24 -106q-11 -62 -62.5 -105t-113.5 -43q-61 0 -97.5 43t-24.5 105q5 33 23 64l151 225h194zM911 1475q36 -43 24 -106q-10 -62 -61.5 -105t-113.5 -43q-61 0 -97.5 43t-25.5 105q6 33 23 64l152 225h194z" />
<glyph unicode="&#x201d;" horiz-adv-x="766" d="M706 1404q-36 43 -25 106q11 62 62.5 105t113.5 43q61 0 97.5 -43t25.5 -105q-6 -33 -24 -64l-151 -225h-194zM363 1404q-35 43 -24 106q10 62 61.5 105t113.5 43q61 0 97.5 -43t26.5 -105q-7 -33 -24 -64l-152 -225h-194z" />
<glyph unicode="&#x201e;" horiz-adv-x="765" d="M108 -35q-35 43 -24 106q11 62 62.5 105t113.5 43q60 0 96.5 -43t26.5 -105q-6 -33 -24 -64l-151 -225h-195zM451 -35q-36 43 -25 106q12 62 63.5 105t113.5 43q60 0 96.5 -43t25.5 -105q-5 -33 -24 -64l-150 -225h-195z" />
<glyph unicode="&#x2020;" horiz-adv-x="864" d="M630 1644l37 207h183l-37 -207h238l-32 -182h-238l-229 -1297h-182l228 1297h-238l32 182h238z" />
<glyph unicode="&#x2021;" horiz-adv-x="864" d="M598 1462h-238l33 182h238l36 207h183l-36 -207h238l-33 -182h-238l-59 -333h238l-32 -183h-238l-138 -781h-182l138 781h-238l32 183h238z" />
<glyph unicode="&#x2022;" horiz-adv-x="885" d="M752 917.5q51 -60.5 36 -147.5q-16 -87 -88.5 -147.5t-156.5 -60.5q-87 0 -138 60.5t-35 147.5q15 87 87.5 147.5t159.5 60.5q84 0 135 -60.5z" />
<glyph unicode="&#x2026;" horiz-adv-x="2109" d="M401.5 242q36.5 -43 24.5 -105q-11 -64 -62.5 -107t-113.5 -43q-60 0 -97 43t-25 107q11 62 62.5 105t112.5 43q62 0 98.5 -43zM1104.5 242q36.5 -43 25.5 -105q-11 -64 -62.5 -107t-113.5 -43q-61 0 -97.5 43t-25.5 107q12 62 63.5 105t111.5 43q62 0 98.5 -43z M1808.5 242q36.5 -43 24.5 -105q-11 -64 -62.5 -107t-113.5 -43q-61 0 -97.5 43t-24.5 107q11 62 62.5 105t112.5 43q62 0 98.5 -43z" />
<glyph unicode="&#x202f;" horiz-adv-x="413" />
<glyph unicode="&#x2030;" horiz-adv-x="1824" d="M554 1071q-30 0 -54.5 -21t-29.5 -51q-5 -31 12 -52t46 -21q30 0 56 21t31 52q5 30 -13 51t-48 21zM1547 502q-31 0 -55.5 -21.5t-30.5 -50.5q-6 -31 11.5 -52.5t48.5 -21.5q29 0 54.5 21.5t30.5 52.5q6 29 -12 50.5t-47 21.5zM1024 502q-30 0 -54.5 -21.5t-31.5 -50.5 q-5 -31 12.5 -52.5t47.5 -21.5t55 21.5t31 52.5q6 29 -12 50.5t-48 21.5zM1445 1329l-1183 -1351l-154 122l1183 1349zM1252 315q-28 -47 -76 -86q-97 -84 -215 -84q-117 0 -185.5 83t-48.5 202q22 117 119 200t215 83t186 -83q33 -40 46 -87q28 47 75 87q98 83 216 83 t186.5 -83t46.5 -200q-21 -119 -118 -202t-215 -83t-187 84q-32 39 -45 86zM825 999q-21 -117 -118.5 -200t-215.5 -83q-117 0 -185 83t-47 200q20 118 117.5 200.5t214.5 82.5q118 0 186.5 -82.5t47.5 -200.5z" />
<glyph unicode="&#x2032;" horiz-adv-x="471" d="M129 948v697h213v-697h-213z" />
<glyph unicode="&#x2033;" horiz-adv-x="642" d="M57 948v697h213v-697h-213zM372 948v697h213v-697h-213z" />
<glyph unicode="&#x2039;" horiz-adv-x="766" d="M192 504l664 598l-51 -286l-346 -312l236 -313l-50 -289z" />
<glyph unicode="&#x203a;" horiz-adv-x="766" d="M85 -98l51 289l347 313l-237 312l51 286l454 -598z" />
<glyph unicode="&#x203c;" horiz-adv-x="1114" d="M427 242q37 -43 25 -105q-11 -64 -62.5 -107t-113.5 -43q-61 0 -97.5 43t-25.5 107q12 62 63.5 105t112.5 43t98 -43zM675 1648l-208 -1179h-214l208 1179h214zM984.5 242q36.5 -43 24.5 -105q-11 -64 -62.5 -107t-113.5 -43q-61 0 -97.5 43t-24.5 107q11 62 62.5 105 t112.5 43q62 0 98.5 -43zM1232 1648l-208 -1179h-213l208 1179h213z" />
<glyph unicode="&#x203e;" horiz-adv-x="1128" d="M352 1848h1078l-38 -214h-1078z" />
<glyph unicode="&#x2044;" horiz-adv-x="190" d="M960 1438l-1181 -1349l-155 121l1184 1350z" />
<glyph unicode="&#x205f;" horiz-adv-x="517" />
<glyph unicode="&#x20a3;" horiz-adv-x="1101" d="M306 573l190 1075h794l-39 -213h-578l-89 -504h579l-38 -213h-579l-26 -145h273l-37 -214h-273l-64 -359h-214l64 359h-154l37 214h154z" />
<glyph unicode="&#x20a4;" horiz-adv-x="1250" d="M684 524q-41 -234 -190 -362q94 53 194 53q27 0 55 -4q128 -18 205 -18q68 0 198 32l3 -211q-149 -35 -240 -35t-182 22q-83 19 -147 19q-54 0 -92 -13q-101 -34 -247 -102l-123 185q186 142 219 175q106 104 136 261h-226l37 213h178q0 3 -26 84q-81 181 -66 350 q2 21 6 42q27 155 150 277q138 136 324 154q21 1 41 1q154 0 260 -102q116 -117 101 -296q-1 -24 -5 -48q-12 -73 -82 -187l-187 66q48 92 55 130q2 12 3 22q7 89 -52 148q-53 52 -130 52q-11 0 -22 -1q-92 -8 -164 -78q-61 -61 -75 -138q-2 -12 -3 -23q-9 -95 27 -218 q62 -136 69 -235h200l-37 -213z" />
<glyph unicode="&#x20a7;" horiz-adv-x="2083" d="M598 1434l-121 -692h175q129 0 238 101.5t134 245.5q26 143 -48 244t-202 101h-176zM1127 847q-52 -84 -128 -155q-176 -165 -385 -165h-175l-93 -527h-192l291 1648h421q174 -27 273 -164q119 -165 77 -395q-2 -15 -5 -29h43l71 397h213l-71 -397h190l-6 -35 q91 67 197 67q119 0 184 -81q47 -56 50 -126l-218 -60q-2 26 -8 34q-15 19 -46 19t-57 -22.5t-32 -53.5q-5 -31 12 -52q17 -19 79 -63q115 -70 163 -128q81 -101 57 -240q-26 -142 -142.5 -242.5t-259.5 -100.5q-141 0 -223 101q-57 69 -60 172l220 46q1 -48 17 -67 q32 -37 85 -37q52 0 96 37t54 91q9 53 -22 90q-21 26 -95 79q-106 63 -145 111q-70 85 -49 203q4 23 11 45h-89l-150 -847h-213l149 847h-89z" />
<glyph unicode="&#x20ac;" horiz-adv-x="1552" d="M453 1000l12 63q42 242 244 413.5t444 171.5q243 0 420 -217l-181 -154q-126 152 -279 152q-152 0 -278 -107.5t-153 -258.5l-11 -63h638l-77 -194h-595l-11 -57h599l-77 -193l-555 3q-28 -152 61.5 -259t241.5 -107q153 0 278 108q80 67 141 194h222q-97 -231 -235 -350 q-202 -171 -445 -171q-242 0 -383 171.5t-98 413.5l-1 -3h-174l76 193h132l10 57h-134l77 194h91z" />
<glyph unicode="&#x2122;" horiz-adv-x="1292" d="M501 1471h-94v-574h-182v574h-173v177h601l218 -335l219 335h151v-751h-181v376l-189 -290l-189 291v-377h-181v574z" />
<glyph unicode="&#x2202;" horiz-adv-x="1077" d="M911 717q-403 -50 -565 -333q-16 -38 -22 -70q-18 -104 144 -105q261 27 443 508zM970 927q10 38 24 114q64 363 -80 391q-33 5 -66 5q-154 0 -362 -241l-69 214q225 224 457 224q75 0 154 -20q264 -71 180 -548q-24 -131 -74 -296q-249 -749 -701 -760q-372 0 -320 299 q10 55 37 123q208 422 820 495z" />
<glyph unicode="&#x2206;" horiz-adv-x="1365" d="M57 1h-92l891 1647h194l316 -1648h-1309v1zM1097 214l-207 1077l-584 -1077h791z" />
<glyph unicode="&#x220f;" horiz-adv-x="1404" d="M576 1434l-315 -1788h-215l354 2002h1185l-353 -2002h-214l315 1788h-757z" />
<glyph unicode="&#x2211;" horiz-adv-x="1302" d="M1487 1648l-38 -214h-808l228 -787l-505 -787h808l-38 -214h-1138l635 1001l-282 1001h1138z" />
<glyph unicode="&#x221a;" horiz-adv-x="1652" d="M904 467l520 1314h228l-740 -1919l-640 805l-92 -41l-121 152l393 221z" />
<glyph unicode="&#x221e;" horiz-adv-x="1290" d="M1009 838q0 66 -46 112.5t-112 46.5q-68 0 -120 -46q-52 -49 -70 -137q18 -90 70 -138q52 -47 120 -47q66 0 112 46.5t46 162.5zM1101 538.5q-104 -103.5 -250 -103.5q-219 0 -305 197q-78 -103 -190 -103t-192.5 79.5t-80.5 215.5q0 114 80 194.5t193 80.5t190 -105 q97 198 305 198q146 0 250 -103.5t104 -250.5q0 -196 -104 -299.5zM278 815q0 -45 22.5 -67.5t55.5 -22.5t61 26t39 63q-11 36 -39 62t-61 26t-55.5 -22.5t-22.5 -64.5z" />
<glyph unicode="&#x222b;" horiz-adv-x="668" d="M440 -12q-13 -333 -403 -333v208q183 0 191 126v1439q25 330 402 330v-194q-176 -6 -190 -141v-1435z" />
<glyph unicode="&#x2248;" horiz-adv-x="1367" d="M280 848l-151 23q5 115 28 171q55 133 188 178q34 10 72 10q118 0 297 -102q165 -95 227 -95h10q42 12 59 57q10 24 10 124l219 -34q-9 -114 -31 -170q-41 -97 -123 -148l154 -24q-9 -114 -31 -170q-55 -132 -187 -178q-34 -10 -73 -10q-118 0 -297 103q-165 95 -228 95 q-6 0 -8 -1q-42 -13 -60 -57q-10 -26 -12 -124l-214 33q5 115 28 171q41 98 123 148zM1020 833q-34 -11 -72 -11q-118 0 -297 103q-165 95 -228 95q-6 0 -8 -1q-42 -13 -60 -57q-8 -21 -11 -84h1q34 10 72 10q118 0 297 -102q165 -95 227 -95h10q42 12 59 57q8 19 10 85z " />
<glyph unicode="&#x2260;" horiz-adv-x="1305" d="M558 672h-350v214h544l167 184h271l-167 -184h73v-214h-268l-81 -91h349v-213h-543l-168 -186h-270l168 186h-75v213h268z" />
<glyph unicode="&#x2264;" horiz-adv-x="1549" d="M1160 214l-1057 385l1342 489v-228l-718 -261l718 -261v-338h-1172v214h887z" />
<glyph unicode="&#x2265;" horiz-adv-x="1549" d="M1275 214v-214h-1172v338l718 261l-718 261v228l1342 -489l-1057 -385h887z" />
<glyph unicode="&#xfb01;" horiz-adv-x="1050" d="M1115 1348.5q37 -43.5 26 -105.5q-11 -63 -63 -106t-113 -43q-62 0 -98 43t-24 106q10 62 61.5 105.5t113.5 43.5q60 0 97 -43.5zM815 848h-265l-149 -848h-214l150 848h-95l38 213h95l33 190q31 132 140 226q113 91 240 91q64 0 186 -45l-106 -202q-83 40 -108 40 q-42 0 -89 -37q-41 -33 -51 -81l-32 -182h478l-187 -1061h-214z" />
<glyph unicode="&#xfb02;" horiz-adv-x="1014" d="M886 1357q-12 4 -78 4q-90 0 -137 -37q-41 -33 -51 -81l-32 -182h191l-38 -213h-191l-149 -848h-214l150 848h-95l38 213h95l33 190q31 132 140 226q113 91 287 91q155 0 288 -79l-263 -1489h-213z" />
</font>
</defs>
</svg>
